/* XPM */
static const char *frame_06[] = {
/* columns rows colors chars-per-pixel */
"64 64 8 1 ",
"  c gray10",
". c gray17",
"X c gray24",
"o c #565656",
"O c #686868",
"+ c gray56",
"@ c gray76",
"# c None",
/* pixels */
"################################################################",
"################################################################",
"################################################################",
"################################################################",
"################################################################",
"################################################################",
"################################################################",
"################################################################",
"################################################################",
"###########################++++++++++###########################",
"########################++++++++++++++++########################",
"######################++++++++++++++++++++######################",
"####################++++++++@@@@@@@+++++++++####################",
"###################++++++@@@@@@@@@@@@++++++++###################",
"#################++++++@@@@@@OOOOOOO@@O++++++++#################",
"################+++++@@@@@@OOOOOOOOOOOOOO+++++++################",
"###############+++++@@@@OOOOOOOOOOOOOOOOOOO++++++###############",
"##############+++++@@@OOOOOOooooooooOOOOOOOO++++++##############",
"##############++++@@@OOOOOooooooooooooOOOOOOO+++++##############",
"#############++++@@@OOOOooooooooooooooooOOOOOO+++++#############",
"############++++@@@OOOOooooooXXXXXXooooooOOOOOO+++++############",
"############+++@@@OOOOooooXXXXXXXXXXXXooooOOOOOO++++############",
"###########+++@@@OOOOooooXXXXXXXXXXXXXXooooOOOOO+++++###########",
"###########+++@@OOOOooooXXXXXXXXXXXXXXXXooooOOOO@++++###########",
"##########+++@@@OOOooooXXXXXX......XXXXXXooooOOO@@++++##########",
"##########+++@@OOOOoooXXXXXX........XXXXXXoooOOO@@++++##########",
"##########+++@@OOOoooXXXXXX..........XXXXXXoooOO@@@+++##########",
"#########++++@OOOOoooXXXXX............XXXXXoooOOO@@++++#########",
"#########++++@OOOooooXXXX.....    .....XXXXooooOO@@++++#########",
"#########+++++OOOoooXXXX.....      .....XXXXoooOO@@++++#########",
"#########+++++OOOoooXXXX....        ....XXXXoooOO@@++++#########",
"#########+++++OOOoooXXXX....        ....XXXXoooOO@@++++#########",
"#########+++++OOOoooXXXX....        ....XXXXoooOO@@++++#########",
"#########+++++OOOoooXXXX....        ....XXXXoooOO@@++++#########",
"#########+++++OOOoooXXXX.....      .....XXXXoooOO@@++++#########",
"#########+++++OOOooooXXXX.....    .....XXXXooooOO@@++++#########",
"#########++++++OOOoooXXXXX............XXXXXoooOOO@@++++#########",
"##########+++++OOOoooXXXXXX..........XXXXXXoooOO@@@+++##########",
"##########++++@OOOOoooXXXXXX........XXXXXXoooOOO@@++++##########",
"##########++++@OOOOooooXXXXXX......XXXXXXooooOOO@@++++##########",
"###########+++@@OOOOooooXXXXXXXXXXXXXXXXooooOOO@@++++###########",
"###########++++@@OOOOooooXXXXXXXXXXXXXXooooOOOO@@++++###########",
"############+++@@@OOOOooooXXXXXXXXXXXXooooOOOO@@++++############",
"############++++@@@OOOOooooooXXXXXXooooooOOOO@@@++++############",
"#############++++@@@OOOOooooooooooooooooOOOOO@@++++#############",
"##############++++@@@OOOOOooooooooooooOOOOOO@@++++##############",
"##############+++++@@@@OOOOOooooooooOOOOOOO@@+++++##############",
"###############+++++@@@@@OOOOOOOOOOOOOOOOOO@+++++###############",
"################++++++@@@@@OOOOOOOOOOOOOOOO+++++################",
"#################++++++@@@@@@OOOOOOOOOOOOO+++++#################",
"###################++++++@@@@@@@@@@OOOO++++++###################",
"####################+++++++@@@@@@@++++++++++####################",
"######################++++++++++++++++++++######################",
"########################++++++++++++++++########################",
"###########################++++++++++###########################",
"################################################################",
"################################################################",
"################################################################",
"################################################################",
"################################################################",
"################################################################",
"################################################################",
"################################################################",
"################################################################"
};
