/* XPM */
static const char *frame_09[] = {
/* columns rows colors chars-per-pixel */
"64 64 8 1 ",
"  c gray10",
". c gray17",
"X c gray24",
"o c #565656",
"O c #686868",
"+ c gray56",
"@ c gray76",
"# c None",
/* pixels */
"################################################################",
"################################################################",
"################################################################",
"################################################################",
"################################################################",
"################################################################",
"################################################################",
"################################################################",
"################################################################",
"###########################++++++++++###########################",
"########################++++++++++++++++########################",
"######################++++++++++++++++++++######################",
"####################++++++++++@@@@@@@+++++++####################",
"###################++++++++@@@@@@@@@@@@@+++++###################",
"#################+++++++++@@@@OOOOOOO@@@@@+++++#################",
"################++++++++@@@OOOOOOOOOOOO@@@@+++++################",
"###############++++++++@OOOOOOOOOOOOOOOOO@@@+++++###############",
"##############++++++++OOOOOOooooooooOOOOOO@@@+++++##############",
"##############+++++++OOOOOooooooooooooOOOOO@@@++++##############",
"#############+++++++OOOOooooooooooooooooOOOO@@@++++#############",
"############+++++++OOOOooooooXXXXXXooooooOOOO@@@++++############",
"############++++++OOOOooooXXXXXXXXXXXXooooOOOO@@++++############",
"###########++++++OOOOooooXXXXXXXXXXXXXXooooOOOO@@++++###########",
"###########+++++OOOOooooXXXXXXXXXXXXXXXXooooOOOO@++++###########",
"##########++++++OOOooooXXXXXX......XXXXXXooooOOOOO++++##########",
"##########+++++OOOOoooXXXXXX........XXXXXXoooOOOOO++++##########",
"##########+++++OOOoooXXXXXX..........XXXXXXoooOOOO++++##########",
"#########++++@OOOOoooXXXXX............XXXXXoooOOOOO++++#########",
"#########++++@OOOooooXXXX.....    .....XXXXooooOOOO++++#########",
"#########++++@OOOoooXXXX.....      .....XXXXoooOOOO++++#########",
"#########+++@@OOOoooXXXX....        ....XXXXoooOOOO++++#########",
"#########+++@@OOOoooXXXX....        ....XXXXoooOOOO++++#########",
"#########+++@@OOOoooXXXX....        ....XXXXoooOOOO++++#########",
"#########+++@@OOOoooXXXX....        ....XXXXoooOOOO++++#########",
"#########+++@@OOOoooXXXX.....      .....XXXXoooOOOO++++#########",
"#########+++@@OOOooooXXXX.....    .....XXXXooooOOO@++++#########",
"#########+++@@@OOOoooXXXXX............XXXXXoooOOOO@++++#########",
"##########++@@@OOOoooXXXXXX..........XXXXXXoooOOO@@+++##########",
"##########+++@@OOOOoooXXXXXX........XXXXXXoooOOOO@@+++##########",
"##########+++@@@OOOooooXXXXXX......XXXXXXooooOOO@@++++##########",
"###########++@@@OOOOooooXXXXXXXXXXXXXXXXooooOOOO@@+++###########",
"###########+++@@OOOOOooooXXXXXXXXXXXXXXooooOOOO@@++++###########",
"############++@@@OOOOOooooXXXXXXXXXXXXooooOOOOO@@+++############",
"############+++@@@OOOOOooooooXXXXXXooooooOOOOO@@++++############",
"#############+++@@OOOOOOooooooooooooooooOOOOO@@@+++#############",
"##############+++@@OOOOOOOooooooooooooOOOOOO@@@+++##############",
"##############++++@@OOOOOOOOooooooooOOOOOOO@@@++++##############",
"###############++++@@OOOOOOOOOOOOOOOOOOOO@@@@++++###############",
"################+++++@OOOOOOOOOOOOOOOOO@@@@+++++################",
"#################+++++++OOOOOOOOOOOO@@@@@@+++++#################",
"###################+++++++OOOOOOO@@@@@@++++++###################",
"####################++++++++++++++++++++++++####################",
"######################++++++++++++++++++++######################",
"########################++++++++++++++++########################",
"###########################++++++++++###########################",
"################################################################",
"################################################################",
"################################################################",
"################################################################",
"################################################################",
"################################################################",
"################################################################",
"################################################################",
"################################################################"
};
