/* XPM */
static char *frame_details[] = {
/* columns rows colors chars-per-pixel */
"136 56 234 2 ",
"   c None",
".  c #000000",
"X  c #0B0202",
"o  c #010A0A",
"O  c #0B0C0C",
"+  c #0C0608",
"@  c #130404",
"#  c #1A0C0C",
"$  c #170808",
"%  c #001111",
"&  c #0C1313",
"*  c #001B1B",
"=  c #09171E",
"-  c #131414",
";  c #1C1415",
":  c #141B1C",
">  c #1B1B1B",
",  c #15161B",
"<  c #0D0F14",
"1  c #220202",
"2  c #241212",
"3  c #241B1B",
"4  c #2B1818",
"5  c #341B1B",
"6  c #0B1C24",
"7  c #0A1C27",
"8  c #161E22",
"9  c #261B20",
"0  c #002424",
"q  c #00262C",
"w  c #01292D",
"e  c #0E242B",
"r  c #1B2324",
"t  c #13232B",
"y  c #142A2A",
"u  c #1D2B2B",
"i  c #142325",
"p  c #032B32",
"a  c #132C34",
"s  c #152F38",
"d  c #003536",
"f  c #003B3D",
"g  c #08373B",
"h  c #13333B",
"j  c #143637",
"k  c #232323",
"l  c #2C2424",
"z  c #2D2C2C",
"x  c #222B2C",
"c  c #332C2C",
"v  c #382626",
"b  c #233434",
"n  c #2A3738",
"m  c #333333",
"M  c #3C3C3C",
"N  c #383636",
"B  c #322E31",
"V  c #401212",
"C  c #413B3E",
"Z  c #523636",
"A  c #2C403F",
"S  c #013D42",
"D  c #093B42",
"F  c #133E45",
"G  c #3F3D41",
"H  c #453D41",
"J  c #004243",
"K  c #0B424B",
"L  c #06484B",
"P  c #144146",
"I  c #134248",
"U  c #194949",
"Y  c #084950",
"T  c #005354",
"R  c #005B5C",
"E  c #085455",
"W  c #125757",
"Q  c #2C4344",
"!  c #2E4B4B",
"~  c #284545",
"^  c #3A5B5B",
"/  c #355455",
"(  c #2E5050",
")  c #095B60",
"_  c #3C5E61",
"`  c #006263",
"'  c #026C6D",
"]  c #0A6869",
"[  c #136767",
"{  c #037274",
"}  c #03787A",
"|  c #1A7677",
" . c #006E71",
".. c #246868",
"X. c #3B6364",
"o. c #2B7676",
"O. c #4D4A4C",
"+. c #484446",
"@. c #55494C",
"#. c #514D51",
"$. c #595558",
"%. c #465659",
"&. c #505F62",
"*. c #645D62",
"=. c #416364",
"-. c #446C6C",
";. c #46676B",
":. c #457373",
">. c #4A7C7C",
",. c #477878",
"<. c #536869",
"1. c #6B6569",
"2. c #756C72",
"3. c #787578",
"4. c #6A7275",
"5. c #60595E",
"6. c #827C7E",
"7. c #917476",
"8. c #4B807F",
"9. c #007F81",
"0. c #477F80",
"q. c #7E7D82",
"w. c #857E82",
"e. c #008789",
"r. c #1B8587",
"t. c #009699",
"y. c #179697",
"u. c #278686",
"i. c #339697",
"p. c #339B9D",
"a. c #2D8F8F",
"s. c #159DA2",
"d. c #009FA1",
"f. c #1AA2A5",
"g. c #16A2A8",
"h. c #18A5A9",
"j. c #04B3B3",
"k. c #00B6BC",
"l. c #00B9BE",
"z. c #0DBCBC",
"x. c #0FADAE",
"c. c #25ABAB",
"v. c #25BABA",
"b. c #36AFB0",
"n. c #4C8383",
"m. c #4B8A8B",
"M. c #518888",
"N. c #4C9394",
"B. c #4A9698",
"V. c #529C9E",
"C. c #549596",
"Z. c #4B9090",
"A. c #78878A",
"S. c #699A9D",
"D. c #7B9498",
"F. c #559FA1",
"G. c #769EA2",
"H. c #699FA0",
"J. c #53A3A4",
"K. c #54ADAD",
"L. c #58A9AA",
"P. c #52AEB1",
"I. c #55B4B4",
"U. c #5BB4B5",
"Y. c #55B7B9",
"T. c #55BBBC",
"R. c #5DBCBE",
"E. c #59B7B8",
"W. c #4CB5B7",
"Q. c #69AAAC",
"!. c #7AA7AA",
"~. c #75AEB2",
"^. c #63B3B4",
"/. c #63BCBC",
"(. c #6EBABA",
"). c #75B5B6",
"_. c #5BC1BF",
"`. c #00BDC3",
"'. c #11BBC1",
"]. c #5BBEC0",
"[. c #56BFC1",
"{. c #61BFC0",
"}. c #00C5CA",
"|. c #02C2C6",
" X c #04DCDC",
".X c #1ACCCC",
"XX c #29CDCD",
"oX c #05EBEF",
"OX c #4EC4C5",
"+X c #56C3C3",
"@X c #5AC5C5",
"#X c #5AC8C7",
"$X c #5AC7C8",
"%X c #56CCCB",
"&X c #5BCBCB",
"*X c #5DD0CF",
"=X c #5DD3D3",
"-X c #5FD9D8",
";X c #5DCFD0",
":X c #62C7C7",
">X c #65D5D5",
",X c #55FCFD",
"<X c #75E4E4",
"1X c #67FEFE",
"2X c #6EFEFF",
"3X c #6EF5F7",
"4X c #72F6F8",
"5X c #88868A",
"6X c #92898D",
"7X c #8A8D90",
"8X c #88989B",
"9X c #97969A",
"0X c #948C92",
"qX c #A3989C",
"wX c #939DA1",
"eX c #A29DA2",
"rX c #86A7A9",
"tX c #86B5B7",
"yX c #99A4A7",
"uX c #A6A3A6",
"iX c #B2B2B2",
"pX c #8BCACB",
"aX c #8BD5D5",
"sX c #ACCCCD",
"dX c #ADD6D7",
"fX c #B1D3D3",
"gX c #88E5E7",
"hX c #AAEAEA",
"jX c #C8ECED",
"kX c #C7EBEB",
"lX c #C9F5F6",
"zX c #C6F3F3",
"xX c #D1E8E9",
"cX c #EEFBFB",
/* pixels */
"                                                                                                                                      <X<X                                                                                                                  <X<X                ",
"                                                                                                                                    @X@X@XY.R.@X@X                                                                                                R.@X@XY.@X&XV.K.              ",
"                                                                                                                                    @X@XR.Q.%XOX$X&X@XR.Y.                          &X&X@XJ.N.@X&X&X@X+X@X@X@X@X                            +XR.P.P.+X%X&XB.K._.J.              ",
"                                                                                                                                    +X%X^.7.8XrXU.R.@X&X@XY.@X&X@X      @X#X&X@X].Y.+X&X=XOXZ./.:X:X{.E.&X%X[.&X&X&X&X$X@XY.@X        @X&X&X&X@XK.^.(.tXA.x :.@X].              ",
"          a h p p f S S f S S S f w w q q q p w q w w q q q w w q q p q q q w p q q w w q q q p w q q w q d S f d w e t             +XY.OXtXqX0X6X8XrX).@XP.+X@XI.I.&X&X&X%X%X%XE.C.L./.S.!.tXuX6X6Xw.3.G.G.S.^./.^./.$XY.P.@X&X&X&X&X&X&X@XR.Q.!.yXuX7X+.Z.&XK.@X              ",
"        i h ) W m.Q.U.R.R.R.R.].].R.R.R.R.R.R.R.R.R.R.R.R.R.R.R.R.R.R.R.].].R.R.].].R.R.R.R.R.R.R.R.R.R.R.R.R.^.S...d e               Y.[.(.9X5X0X9X9X9X9XwX!.C.C.V.R.:X:X~.~.~.yXuXuX7X2.2.2.3.1.H $.1.2.2.2.q.5XA.D.!.rX!.^.R.R.R.R.^.Q.D.A.q.9XuXq.%.X.B.[.Y.                ",
"        t h t.*XcX<XgXaXaXpXpXpXpXpXpXpXpXpXpXpXpXpXpXpXpXpXpXpXpXpXpXpXpXpXpXpXpXpXpXpXpXpXpXpXpXpXpXpXpXaXgXgXhXjXL h               +X@XR.8XeX@.; O.1.w.6X6X5X8X8X8XrX8X5X3.6.5X2.$.O.z ; O O O . . O & z H +.#.1.2.6.eX9X3.<.&.<.4.3.2.1.1.5.*.#.%.:.n.@XY.@X                ",
"        a h k.4XhXd.e.{ ` R T T T T T T T T T T T T T T T T T T T T T T T T T T T T T T T T T T T T T T R ' 9.t..XjX` d                 @X+XH.0XuXl . # l C #.#.#.#.O.#.#.O.M l k > O . . . . . . . . . . . . . O , > k +.O.m c c M H H M B x r ; k _ :.I.&XI.Y.                ",
"        y h `.2XdXe.{ T J f d d d d d d d d d d d d d d d d d d d d d d d d d d d d d d d d d d d d d d J T ` } b.zX{ D                 @X+X^.A.3.C + X + + : : . . . . . . . . . . . . . . . . . . . . . . . . . . . . . . . . . . . . . . o O # B :.:.Y.&XR.                  ",
"        t h }.2XfX{ R f w * * * * * * * * * * * * * * * * * * * * * * * * * * * * * * * * * * * * * * * 0 d L ' b.zX} D                 :X&X@XrX0X*.3 + . . . . . . . . . . . . . . . . . . . . . . . . . . . . . . . . . . . . . . . . . . . . , ! ^ Z.=XR.Y.                  ",
"        t a l.2XsX` L w * o . o o . o o . . . . . . . . . . o o . . . . o o . . o . o o . . . . . . . o % 0 f R p.zX} S                   @X&X(.wX6.c . . . . . . . . . . . . . . . . . . . . . . . . . . . . . . . . . . . . . . . . . . . . . b X.;.I.*X@X                    ",
"        t a k.2XsXR J 0 % . . . . . . . . . . . . . . . . . . . . . . . . . . . . . . . . . . . . . . . o * d T i.zX} L                   +X+X/.8X6.m . . . . . . . . . . . . . . . . . . . . . . . . . . . . . . . . . . . . . . . . . . . . . ! >.>.@X&X@X                    ",
"        t a `.2XsXR J 0 % . . . . . . . . . . . . . . . . . . . . . . . . . . . . . . . . . . . . . . . o * d T i.zX} q                     Y.U.!.7XC . . . . . . . . . . . . . . . . . . . . . . . . . . . . . . . . . . . . . . . . . . . . . ! >.J.@X@XY.                    ",
"        6 a }.2XsXR J 0 % . . . . . . . . . . . . . . . . . . . . . . . . . . . . . . . . . . . . . . . o * d T i.zX{ I                     Y.Y.~.7XM . . . . . . . . . . . . . . . . . . . . . . . . . . . . . . . . . . . . . . . . . . . . . Q ;.N.@X&X                      ",
"        6 a `.2XsXR J 0 % . . . . . . . . . . . . . . . . . . . . . . . . . . . . . . . . . . . . . . . o * d T i.zX{ P                     Y.@X~.7X+.. . . . . . . . . . . . . . . . . . . . . . . . . . . . . . . . . . . . d.0 . . . . . . . A =.J.=XE.                      ",
"        t a k.2XsXR J 0 % . . . . . . . . . . . . . . . . O - - - - O . . . . . . . . . . . . . . . . . o * d T i.zX{ F                     R.@X~.7X+.. . . . . . . . . . . . . . . . . . . . . . . . . . . . . . . . . . . l. X* . . . . . . O ! =.V.-X].                      ",
"        t s l.2XsXR J 0 % . . . . . . . . . . . . . . . . > > k > > k . . . . . . . . . . . . . . . . . o * d T i.zX{ I                   b.Y.E.rX5XH . . . . . . . . . . . . . . . . . . . . . . . . . . . . . . . . . . j.1Xt.. . . . . . . < / ,.N.&X&X&X                    ",
"        i a }.2XsXR J 0 % . . . . . . . . . . . . . % o O z k M M x z O O % . . . . . . . . . . . . . . o * d T i.zX{ P                     I.^.8X5XC . . . . . . . . . . . . . . . . . . . . . . . . . . . . . . . . . j.1X XJ . . . . . . . O / M.;.I.&X#X                    ",
"        6 a `.2XsXR J 0 % . . . . . . . . . . . . w |.2 > m B 3 3 z z > 5 |.w . . . . . . . . . . . . . o * d T i.zX{ I                   T.I.Q.8X2.9 . . . . . . . . . . . . . . . . . . . . . . . . . . . . . . . . j.1X XJ . . . . . . . . o u ;.:.@X&X@X                    ",
"        t a l.2XsXR J 0 % . . . . . . . . . . . h .Xu.| $ > 3 j U ; > $ | u.XXP . . . . . . . . . . . . o * d T i.zX{ F                   Y.U.rXuX3.> . . . . . . . . . . . . . . . . . . . . . . . . . . . . . . . j.1X XJ . . . . . . . . . . & ^ :.V.&X@X                    ",
"        6 a k.2XsXR J 0 % . . . . . . . . . X > g u # Y 2 - $ } y.$ - # L # u g z X . . . . . . . . . . o * d T i.zX{ P                   +XR.rXuX1.> O . . . . . . . . . . . . . . . . . . . . . . . . . . . . . j.1X XJ . . . . . . . . . . . O ^ ;.>.Y.R.                    ",
"        6 a |.2XsXR J 0 % . . . . . . . . . 3 f.l # ( y.1 > 4 ] h.1 > 1 y./ # 2 c.m . . . . . . . . . . o * d T i.zX{ I                   #X@X!.w.m O . . . . . . . . . . . . . . . . . . . . . . . . . . . . . j.1X XJ . . . . . . . . . . . . X r ;.n.-XR.].                  ",
"        = s }.2XsXR J 0 % . . . . . . . . X | a.v # U y.u.5 M ; # N v u.y.~ ; 4 o.a.@ . . . . . . . . . o * d T i.lX{ P                 @X&X/.A.$.k X . . . . . . . . . . . . . . . . . . . . . . . . . . . . j.1X XJ . . . . . . . . . . . . . X 8 ;.,.I.R.@X                  ",
"        6 s l.2XsXR J 0 % . . . . . . . . X v.M z > c V c.o.c > > c o.c.V l > x B XX@ . . . . . . . . . o * d T i.lX{ I                 @X&X^.3.1.k . . . . . . . . . . . . . . . . . . . . . . . . . . . . j.1X XJ . . . . . . . . . . . . . . O r X.=.V.@X@X                  ",
"        6 a k.2XsXR J 0 % . . . . . . . . X [ y > - > 3 u...k - - ; ..u.3 > - > y [ X . . . . . . . . . o * d T i.lX{ F                 @X@XQ.5X$.O . . . . . . . . . . . . . . . . . . . . . . . . . . . j.1X XJ . . . . . . . . . . . . . . . . O ! =.I.&X[.                  ",
"        6 h `.2XsXR J 0 % . . . . . . . . i Y ; m > - 3 Y j ; > > ; g Y 3 > - k ; Y u . . . . . . . . . o * d T i.lX{ I                 $X:XrX7X@.. . . . . . . . . . . . . . . . . . . . . . . . . . . j.1X XJ . . . . . . . . . . . . . . . . . . n ;.>.&XY.I.                ",
"        = h }.2XsXR J 0 % . . . . . . . X U | v M O . # y.( k x b z X.y.# . O k 4 r.X.X . . . . . . . . o * d T i.zX{ P                 &X:X8X3.M . . . . . . . . . . . . . . . . . . . . . . . . . . j.1X XJ . . . . . . . . . . . . . . . . . . . b :.>.@X&X&X                ",
"        = h `.2XsXR J 0 % . . . . . . . @ c.c +.M - . 3 h ' f.W [ f.' P v . # k k m v.$ . . . . . . . . o * d T i.lX{ P               OX&X_.4.1.B . . . . . . . . . . . . . . . . . . . . . . . . . j.1X XJ . . . . . . . . . . . . . . . . . . . . : ^ :.@X@X+X                ",
"        6 h k.2XsXR J 0 % . . . . . . . @ c.c +.m . O # r.y.c Z Z v i.r.# O . k > l v.@ . . . . . . . . o * d T i.zX{ F               &X&X@XD.3.+.X . . . . . . . . . . . . . . . . . . . . . . . j.1X XJ . . . . . . . . . . . . . . . . . . . . . b ;.=.R.&X%X                ",
"        6 F k.2XsXR J 0 % . . . . . . . @ f.l m O . O 2 W U l z m c U W 2 O . O k 3 c.@ . . . . . . . . o * d T i.zX{ F               @X&X@X!.7X#.+ . . . . . . . . . . . . . . . . . . . . . . j.1X XJ . . . . . . . . . . . . . . . . . . . . . . n :.m.&X&X:X                ",
"        = F }.2XsXR J 0 % . . . . . . . # E ; - . . O 2 ] ; > - - > ; [ v O . . > ; T @ . . . . . . . . o * d T i.zX{ I                 @X&XQ.7X1.- . . . . . . . . . . . . . . . . . . . . . j.1X XJ . . . . . . . . . . . . . . . . . . . . . . . ~ ;.U.=X@X                  ",
"        6 I |.2XsXR J 0 % . . . . . . . P W 3 z . . X ..a.5 k , > > 4 a.u.X . . > 3 W P . . . . . . . . o * d T i.zX{ P                 &X&XF.*.+.- . . . . . . . . . . . . . . . . . . . . j.1X XJ . . . . . . . . . . . . . . . . . . . . . . . & ^ ;.J.;X$X                  ",
"        7 I k.2XsXR J 0 % . . . . . . . h.2 M k . . X y.b B > k m > k b y.X . . - k 5 v.. . . . . . . . o * d T i.zX{ P                 @X&XI.;.c O . . . . . . . . . . . . . . . . . . . j.1X XJ . . . . . . . . . . . . . . . . . . . . . . . . r _ n.&X&X@X                  ",
"        7 P k.2XsXR J 0 % . . . . . . . c.4 m . . . X W y - > m M k - y W X . . . k 4 v.. . . . . . . . o * d T i.zX{ P                 &X&X@XG.*.> . . . . . . . . . . . . . . . . . . h.,X XJ . . . . . . . . . . . . . . . . . . . . . . . . . b =.N.=X@X@X                  ",
"        6 I |.2XsXR J 0 % . . . . . . . h.5 k . . . X .XQ > - > > > > Q .XX . . . - 4 c.. . . . . . . . o * d T i.zX{ I                   #X@X!.5Xz . . . . . . . . . . . . . . . . . 3.7.z.J . . . . . . . . . . . . . . . . . . . . . . . . . & / =.>.=X@X                    ",
"        6 F `.2XsXR J 0 % . . . . . . . ] 3 > . . . X E y > > > > > > i E X . . . - 3 ] . . . . . . . . o * d T i.zX{ P                   @X$X~.9Xz . . . . . . . . . . . . . . . . 2.7XL.Z . . . . . . . . . . . . . . . . . . . . . . . . . . & ^ ;.m.&X@X                    ",
"        = I l.2XsXR J 0 % . . . . . . . j ; k . . . . . . . O O O O . . . . . . . k ; j . . . . . . . . o * d T i.zX{ P                   @X$X(.7X; . . . . . . . . . . . . . . . 3.7XJ.Z . . . . . . . . . . . . . . . . . . . . . . . . . . . i ;.;.I.&X@X                    ",
"        = I k.2XsXR J 0 % . . . . . . . ..Q c - . . . . . . . . . . . . . . . . - c Q ... . . . . . . . o * d T i.zX{ P                   @X@X(.8Xm O . . . . . . . . . . . . . > N L.Z . . . . . . . . . . . . . . . . . . . . . . . . . . . . ~ :.^ Y.&X&X                    ",
"        6 I `.2XsXR J 0 % . . . . . . * XX[ . m . . . . . . . . . . . . . . . . m . [ XX* . . . . . . . o * d T i.zX{ I                   +X@X@XG.9XO.. . . . . . . . . . . . > m > 3 . . . . . . . . . . . . . . . . . . . . . . . . . . . . . Q =.:.Y.&X@X                    ",
"        = I }.2XsXR J 0 % . . . . . . . j l . - . . . . . . . . . . . . . . . . - . l j . . . . . . . . o * d T i.zX{ P                     #X@XS.w.+.. . . . . . . . . . . > m k - . . . . . . . . . . . . . . . . . . . . . . . . . . . . . O Q ;.J.=X@X                      ",
"        6 I l.2XsXR J 0 % . . . . . . . : z m . . . . . . . . . . . . . . . . . . m z : . . . . . . . . o * d T i.zX{ P                     &X@XQ.q.G . . . . . . . . . . > m k - . . . . . . . . . . . . . . . . . . . . . . . . . . . . . . : ! :.J.=X@X                      ",
"        7 P k.2XsXR J 0 % . . . . . . . . O O . . . . . . . . . . . . . . . . . . O O . . . . . . . . . o * d T i.zX{ F                     &X&X~.eX$.. . . . . . . . . > m k - . . . . . . . . . . . . . . . . . . . . . . . . . . . . . . . - Q =.V.=X&X                      ",
"        6 P k.2XsXR J 0 % . . . . . . . . . . . . . . . . . . . . . . . . . . . . . . . . . . . . . . . o * d T i.zX{ I                   Y.@X@XtXuXO.. . . . . . . . M z k - . . . . . . . . . . . . . . . . . . . . . . . . . . . . . . . . & ! :.J.=X@X@X                    ",
"        6 F }.2XsXR J 0 % . . . . . . . . . . . . . . . . . . . . . . . . . . . . . . . . . . . . . . . o * d T i.zX{ F                   Y.%X/.yXeX+.. . . . . . . M iX$.O . . . . . . . . . . . . . . . . . . . . . . . . . . . . . . . . . - ! n.>.@X&X#X                    ",
"        6 h `.2XfX` L d * % o o o o o o o o o o o o o o o o o o o o o o o o o o o o o o o o o o o o o o % 0 f R p.zX{ I                   &X$XQ.9X5Xz . . . . . . . . $.O.. . . . . . . . . . . . . . . . . . . . . . . . . . . . . . . . . . r ! :.>.K.&X#X                    ",
"        6 h l.2XdX} ` J d 0 0 0 0 0 0 0 0 0 0 0 0 0 0 0 0 0 0 0 0 0 0 0 0 0 0 0 0 0 0 0 0 0 0 0 0 0 0 0 w f T  .b.zX{ P                 W.&X@XrX9X2.- . . . . . . . . . . . . . . . . . . . . . . . . . . . . . . . . . . . . . . . . . . . . r n >.M.C.=X@X:X                  ",
"        e h k.3XhXt.} ` T J J J J J J J J J J J J J J J J J J J J J J J J J J J J J J J J J J J J J J J L R ' e.XXzX .D                 @X%X(.wX5X+.O . . . . . . . . . . . . . . . . . . . . . . . . . . . . . . . . . . . . . . X . o O o o : k n n.n.I.&X#X                  ",
"        % a `.4XhXd.t.e. .' ` ` ` ` ` ` ` ` ` ` ` ` ` ` ` ` ` ` ` ` ` ` ` ` ` ` ` ` ` ` ` ` ` ` ` ` ` ` ' } e.d.XXjX) q                 R.@X~.5X@.; X . o o . . . . . . . . . . . . . . . . . . . . . . . . . . . . . . . . o & o > k Q ^ n r 8 > r n.>.K.&X@X                  ",
"        , 6  X,XcXzXzXzXjXkXjXjXjXjXjXjXjXjXjXjXjXjXjXkXjXjXjXjXjXjXjXkXjXjXkXjXjXjXjXjXjXjXjXjXjXjXjXjXjXjXzXzXcXfXf h               $X$X+XA.*.3 . n ^ Q / =.! b u j ~ u u - - i : & & & & o o o . o o o O O & & & & : : - >.C.n./ - ^ :.;./ Q :.r Q C.n.&X@XR.                ",
"        , , '.oXx.r.y.s.s.g.f.s.s.s.g.s.s.g.f.s.s.s.g.g.s.g.g.s.s.s.f.g.s.s.g.f.s.s.s.g.s.s.g.f.s.s.s.g.g.s.g.y.| L w e               Y.Y.~.3.B u Q n b B / C.=X-X:XJ.L.L.L.J.U.n.>.n.M.M.M.M.n.>.^ n.M.>.>.,.>.n.^ X.U.L.L.&X&X=X*X:XR.J.m.X.; / V.m.8.>.K.&X@X                ",
"        t 6 e L S d L K K K D D D D K K K K D D D D K K K K D D D D D K K K K D D D D K K K K D D D D K K K K D p p e i             +XY.%X!.@.Q / >.B.N.@Xn.;.@X&XR.J.m.n.J.K.;X&X&X&X@XJ.J.J.n.n.n.;.;.V.J.V.@X&X&X&X=X=X&X].#X@X$X&X&X=X&X&XK.V.m.>.n.;.C.=X@X@X              ",
"                                                                                                                                    [.=XZ.3 0.N.$X&X=X&XY.J.V.V.        U.K.I.@X&X@X@X&X*X&X&X@X&X@X@X@X=X=X=X&X@X@X@X@X@X@X&X        &X@X@X@X&X&X&XJ.>.m.,.I.&X@X              ",
"                                                                                                                                    +X$XY.Y.=XI.K.Y.Y.I.Y.                            @X@X@X@X@X@X@X@X@X@X&X&X@X                            @X@X&XY.L.@XP.@X@X@X@X              ",
"                                                                                                                                    $X@X&X&X@X&X].                                                                                                  &X@X@X&X&X@X@X              ",
"                                                                                                                                      OX&X                                                                                                                @X$X@X                ",
"                                                                                                                                                                                                                                                                                "
};
