/* XPM */
static char *small_frame[] = {
/* columns rows colors chars-per-pixel */
"104 48 188 2 ",
"   c #05101C",
".  c #071623",
"X  c #0A1923",
"o  c #0D1A24",
"O  c #01142D",
"+  c #0B1C2B",
"@  c #121E27",
"#  c #131E29",
"$  c #191F2B",
"%  c #091C33",
"&  c #131C30",
"*  c #1A242E",
"=  c #0D2431",
"-  c #0E273E",
";  c #0C2A3C",
":  c #162533",
">  c #152836",
",  c #1B2A35",
"<  c #142C3C",
"1  c #1B2C3B",
"2  c #19303D",
"3  c #242635",
"4  c #212937",
"5  c #222E3E",
"6  c #24313E",
"7  c #2A363E",
"8  c #0A2646",
"9  c #122E43",
"0  c #1E2E44",
"q  c #0E314D",
"w  c #143647",
"e  c #1C3242",
"r  c #1B354B",
"t  c #1C3A4B",
"y  c #092852",
"u  c #0C3154",
"i  c #1E3E53",
"p  c #183B56",
"a  c #222E40",
"s  c #253341",
"d  c #2B3A45",
"f  c #2D3649",
"g  c #253A4B",
"h  c #2D3D4D",
"j  c #313746",
"k  c #313843",
"l  c #313E4E",
"z  c #253B52",
"x  c #2E3E50",
"c  c #313E51",
"v  c #0D3C62",
"b  c #1A4259",
"n  c #27404D",
"m  c #2E404E",
"M  c #32414E",
"N  c #2D4A56",
"B  c #23425D",
"V  c #2C445B",
"C  c #2D4B5A",
"Z  c #384555",
"A  c #314954",
"S  c #35465A",
"D  c #38455A",
"F  c #34495D",
"G  c #3A4C5D",
"H  c #2F515D",
"J  c #33515E",
"K  c #3E5058",
"L  c #0C4868",
"P  c #164664",
"I  c #1B4766",
"U  c #164A62",
"Y  c #1B4964",
"T  c #1A4A6A",
"R  c #16546D",
"E  c #174A7C",
"W  c #11557A",
"Q  c #1E5F7E",
"!  c #254562",
"~  c #2A4563",
"^  c #2C4A65",
"/  c #304661",
"(  c #354C62",
")  c #324E69",
"_  c #275268",
"`  c #2E5C6B",
"'  c #355166",
"]  c #325C66",
"[  c #3B5A66",
"{  c #355A6C",
"}  c #3B5B6B",
"|  c #2E5474",
" . c #265679",
".. c #215F7D",
"X. c #355670",
"o. c #3C5675",
"O. c #365A73",
"+. c #365E79",
"@. c #395D79",
"#. c #1E607F",
"$. c #386167",
"%. c #31636F",
"&. c #3B606B",
"*. c #2F647A",
"=. c #336376",
"-. c #396176",
";. c #356B75",
":. c #35627A",
">. c #3A617B",
",. c #3A6B7D",
"<. c #357277",
"1. c #367279",
"2. c #3E7A7E",
"3. c #415160",
"4. c #445C6C",
"5. c #415C70",
"6. c #466E7F",
"7. c #427C7E",
"8. c #1C5D83",
"9. c #215D80",
"0. c #1E6181",
"q. c #116488",
"w. c #1D658B",
"e. c #2A6284",
"r. c #20668A",
"t. c #2C6A8D",
"y. c #3A6481",
"u. c #346A81",
"i. c #396B84",
"p. c #336B8B",
"a. c #3B6E8C",
"s. c #2E7D87",
"d. c #2E7F8A",
"f. c #3D7584",
"g. c #307E8A",
"h. c #266D95",
"j. c #396F96",
"k. c #267096",
"l. c #2D749E",
"z. c #3A7997",
"x. c #2B6FAB",
"c. c #2774A1",
"v. c #2E75A2",
"b. c #297AA7",
"n. c #2C71AA",
"m. c #2F7DAB",
"M. c #3075A3",
"N. c #317BA6",
"B. c #317BAA",
"V. c #316FB1",
"C. c #436A84",
"Z. c #46748A",
"A. c #2F808B",
"S. c #31808C",
"D. c #2F8291",
"F. c #378D9C",
"G. c #2C86A8",
"H. c #3281AD",
"J. c #3694AB",
"K. c #2E83B2",
"L. c #3285B5",
"P. c #2E95B5",
"I. c #299AB9",
"U. c #3196B6",
"Y. c #3197B8",
"T. c #3398B8",
"R. c #3998BA",
"E. c #48859A",
"W. c #5F869C",
"Q. c #4C94A9",
"!. c #619AA9",
"~. c #6AA5B7",
"^. c #379DD5",
"/. c #389ED6",
"(. c #379ED8",
"). c #399DD9",
"_. c #34A1D4",
"`. c #3AA2D5",
"'. c #3BABD7",
"]. c #35A2D9",
"[. c #3AA5DA",
"{. c #3CABD9",
"}. c #3DB2DC",
"|. c #39A6E1",
" X c #3DA9E3",
".X c #3FB4E1",
"XX c #42AAE4",
"oX c #47B6E4",
/* pixels */
"5.4.4.' ' ' ' ' ' ' [ [ [ [ [ [ [ } } } } } &.&.[ &.&.o.-.i.u.*.=.:.=.=.=.=.=.=.=.=.=.=.=.:.:.:.:.:.:.:.:.;.:.:.:.:.:.:.:.:.=.=.=.=.=.=.=.=.=.=.=.-.i.u.=.{ [ [ [ [ [ [ [ [ [ [ [ ' ' ' ' ' ' ' ' ' ' ' ' ' 4.4.",
"[ h e z V V N N N C H H H ] ] ] ] ] { { { } &.$.$.{ 6.W.@.y E n.V.V.n.n.n.n.n.n.n.n.n.n.n.n.n.n.n.n.n.n.n.n.n.x.x.x.n.n.n.n.n.n.n.n.n.n.n.n.n.n.n.n.I u e.Z.' N H H J J F F F F C C C C N N N V N N N n g e g [ ",
"' < w ] ] ` ` { =.=.=.;.;.,.,.1.1.1.1.1.1.f.f.2.7.1.E.~.E.L w.`.XX).]._./.(.(.(.(.(.(.(.).).).).).)././././././.^.^./.).).).).).(.).[.].).).).). X_.q.R Q.!.7.<.1.1.1.1.1.1.<.;.;.;.;.;.;.=.%.%.{ ` ` ` { b < V ",
"F 9 ] C.-.:.y.>.>.>.>.>.y.y.y.y.y.i.i.i.i.i.i.i.i.y.y.a.E.F.G.P.U.P.P.U.P.P.U.U.U.U.U.U.U.U.U.U.U.U.U.T.T.U.T.T.U.U.Y.T.T.Y.U.U.P.P.U.P.P.P.P.P.P.I.I.J.E.Z.f.a.a.a.a.f.i.i.i.i.i.i.i.i.i.i.i.i.i.y.y.y.Z.>.r g ",
"C r { >.o.@.@.o.o.o.O.O.O.O.+.+.+.+.+.+.+.+.+.+.+.+.+.| +.E.F.d.d.d.g.g.d.s.g.g.A.S.S.S.S.S.S.S.S.S.S.S.S.S.S.D.S.S.A.A.S.A.A.d.A.A.d.s.s.s.s.s.s.D.J.z.O.O.:.y.y.:.:.:.:.:.:.:.>.>.:.>.>.>.@.@.>.>.>.>.C.>.p h ",
"F e ( >.o.o.o.o.} O.O.o.o.o.O.O.o.o.-.=.o.o.o.@.@.>.>.>.O.o.>.,.,.,.>.,.,.,.,.,.,.,.,.,.,.,.,.,.,.,.,.,.,.,.i.i.,.,.,.,.,.,.,.,.,.,.,.,.,.,.,.,.,.i.>.O.+.>.>.>.-.:.:.>.:.:.:.:.>.>.>.>.:.O.o.o.O.O.:.O.-.O.t N ",
"N 2 ( @.} } { { { o.o.O.o.O.o.o.O.o.O.O.O.o.o.o.o.o.O.-.-.O.X.O.O.o.o.O.o.o.o.o.o.o.o.o.o.o.o.o.o.o.o.o.o.o.o.o.O.O.o.o.o.o.o.o.o.o.o.o.o.o.o.o.@.o.o.:.:.>.>.:.=.@.>.>.>.@.@.@.@.@.@.+.O.+.@.{ C { y.O.-.O.r h ",
"C 1 F o.[ [ { { { { { { { O.O.O.O.O.O.O.O.O.O.O.O.O.O.O.O.O.O.O.O.O.+.+.O.O.O.O.O.+.+.:.+.+.+.+.:.+.:.:.:.:.:.:.:.:.:.:.:.:.:.:.:.:.+.+.+.+.+.+.+.+.>.@.o.O.O.O.O.O.+.+.O.O.O.O.O.O.o.O.O.O.o.{ V ] o.{ o.{ e h ",
"V t ' ' [ { ] { } { { { { { { { { X.X.X.X.X.X.X.X.X.O.O.X.O.O.O.O.O.O.O.O.O.O.O.O.O.O.O.O.o.o.O.O.O.O.O.O.O.O.O.O.O.O.O.O.O.O.O.O.O.O.O.O.O.O.O.O.O.O.O.O.O.O.O.O.O.O.O.O.O.O.O.O.X.O.O.X.O.O.X.X.{ { ' o.O.t n ",
"V b p.o.( { ] ] { { { { { { { { { { { { { { X.X.X.X.X.X.{ X.X.X.O.O.O.O.O.O.O.X.O.O.O.O.O.O.O.O.O.O.O.O.O.O.O.O.O.O.O.O.O.O.O.O.X.O.X.O.O.O.O.O.O.O.O.O.X.X.X.O.O.O.O.O.X.X.X.X.X.X.X.X.{ { X.o.o.{ { ( o.j.R g ",
"V q  .y.F ( { ( ] { ] { { { ' ' { { { { { { { { { { { { { { { { { { { { X.X.X.X.X.X.X.O.O.O.O.O.X.X.O.O.X.X.O.X.O.O.O.O.O.O.X.X.X.X.O.O.X.O.O.O.X.X.X.X.X.X.X.X.{ { { { { [ [ [ { { { { { { { { { { { ( y.e.p g ",
"C % u p.} F { ( ( ] ] ] ( ( ( ( ' ] ] ] { [ { [ { { { { { { { { { { { { { { { { { [ [ { { { { { { { { { { { { { { { { { { { { { { { { { { { { { { { [ { { { [ [ { { { { { { { [ [ [ [ [ [ { { { { { ( o.z.U o h ",
"h w w.l.>.( ( ( F ( ] ] ( ( ( ( ( ] ] ] ] ] ] ] ( { { { { { { { { { { { { { { { { { [ { { { { { { { { { { { { { { { { { { { { { { { { { { { { { { { { { { { { { { { { { { { ] ) { ( { { { { ( ( ] ( G @.B.k.w s ",
"s T [.K.| ( F ( F ( ( ( ( ( ( ( ( ( ( ( ( ( ( ( ( ( ( ( ( ] ] ] ( ( ( ] ] ] ( ( ] ] { { ) ) ) ) { { { { ) ) { { { { { { { { { { { ) { { { { { { { { { { { { ] ] ] ( ( ( ( ] ( ( ( ( ( ( ] ( ( ( ] D G O.m. Xw.2 ",
"s T  XL.| ( F ( F F ( ( ( ( ( ( ( ( ( ( ( ( ( ( ( ( ( ( ( ( ( ( ( ( ( ( ( ( ( ( ] ( ( ( ( ( ( ( ( ( ( ( ( ( ( ( { { ( ( ( ( ( ( ( ( ( ( { ) ( ( ( ( ( ( ' ' ' ( ( ( ( ( ] ] ] ( ( ( ( ( ( ( ( ( ( F G { B.XXw.1 ",
"s T _.K.X.( S ( F F ( F ( ( ( ( ( ( ( ( ( ( ( ( ( ( ( ( ( ( ( ( ( ( ( ( ( ( ( ( ( ( ( ( ( ( ( ( ( ( ( ( ( ( ( ( ( ( ( ( ( ( ( ( ( ( ( ( ( ( ( ( ( ( ( ( ( ( ( ( ( ( ( ( ( ( ( ( ( ( ( ( ( ( ( ( ( F G X.B.[.0.5 ",
"s T `.K.| ( S F F F F F F F F F F F F F F F F F F F F F F F ( ( F ( ( ( F F F F F F F ( ( ( ( ( ( ( ( ( ( ( ( ( ( ( ( ( ( ( ( ( ( ( ( ( ( ( ( ( ( ( ( ( F F F F F ( ( ( F F F F F ( ( ( F F F F F F F { m.[.0.1 ",
"s T `.K.| G S V V F F F F F F F F F F F F F F F F F D D D D F F D D D D F F F F F D D D F F F F F F ( F D D D D F F G G D D D D F F F F D D G G F F F F F F G G F F F F F F F F F F F F F F F F F S F { n.[.0.1 ",
"a T `.H.| G h V F F F F F F F F F F F F F F F F F F F F D D D F D F D D F F F F D D D D F F F F F F F F D D F F F F F D D F F F F F D D D D D D D D F F F F F F F F F F F F F F F F F F F F F F F S F { B.[.Q 1 ",
"5 T `.L.{ S d F F F F F F F F F F F F F F F F F F F F D D D D D D D D D F F S S F F D F S S S S F F F F S S S S F F F F F F F F S S S S S S F F F F F F S S S F F F F F F F F F F F F F F F F F F S S ) B.[.Q 1 ",
"a T `.B.! h h F S S S S S S S S S S S S F F F F S S S S Z S S S S S Z S S S S S F F F F S S S S S S S S S S S S S S S S S S S S S S S S S S S S S F S S S S S S F F F F S S F S F F F F S S S S F S S ) B.[.#.1 ",
"5 T `.b.p M S F S S S S S S S S S S S S F F S S S S S S S S S S S S S S S S S S S S S S S S S S S S S S S S S S S S S S S S S S S S S S S S S S S S S S S S S S S F F S S S S S S F F F S S S S F S S ) N.[.Q , ",
"5 T `.b.! S M S S S S S S S S S S S S S S S S S S S S Z S S S S S S S S S S S S S S S S S S S S S S S S S S S S S S S S S S S S S S S S S S S S S S S S S S S S S V V S S S V V S S S S S S S S F V S ( M.[.Q , ",
"4 T [.B.^ S h S S S S S S S S S S S S S S S S S S S S S S S S S S S S S S S S S S S S S S S S S S S S S S S S S S S S S S S S S S S S S S S S S S S S S S S S S S S S S V V V V V V V V V V S S S V S ( v.[.9., ",
"4 I [.H.^ S h S S S S S S V V V V V V V S S S V V S c l S S S S S S S S S S S S S S S S S S S S S S S S S S S S S S S S S S S S S S S S S S S S S S S S S S S S V V S S S S S S V S S V V V S S V m S ( v.[.9., ",
"4 I [.H.^ S h S S S S S S S V V V V V V S S S V V S M M S S M M S S M M M S S S M S S M M M S M S M M S S S S S S S S M S S S S S S S S l l S S S M M S S S S S V V S S S S S S V V S V V V S S V h M ( v.[.9., ",
"4 I `.B.^ S h S x V S S S S S S S S V V S S S V S M M M S S S S l l l l l l M M M l S S l l l l S M l l l l S S l l S S l l S S S c S S l l l l S M l l l l S S V V V S V V V V S V S S V M S S V h l / v.{..., ",
", I `.m.^ S h S m m m M S S S S M M m m S S S V m M m l S S S S l l l l l l l M M S S S l l l l M M l l l l S S l l l l l l l l S S S S l l l l M M l l l l S V m m m m m m m m S S S S M M M S V h l F v.{..., ",
", I [.m.~ S d V h h V V V V M M l l m V V c S m m h V S S l l l l S l l l l l l S S S l l l l l l l l l S S S l l l l l l l l l S S S l l l l l l l l l c S S V V V V V h h h h S S V V V V V S V m l V v.{...: ",
", P [.B.~ S d V h h h h h h h l l h h h x x h m m h h h l l l l l l l l l l l l l l l l l l l l l l l l l l l l l l l l l l l l l l l l l l l l l l l l l l h m m h h h h h h h l l h h h h h x S M M V l.[.9.: ",
"* U ].B.V M d V h h h h h h h h l h h l c h h h h h h h h h h h h h h h h h h h h h h h h h h h h h h h h h h h h h h h h h h h h h h h h h h l h h h h h h h h h h h m h l l l l l h h h h h h c l Z ( l.|.8.* ",
", Y ].B.V M d h h h m V h h h h h h h h h h h h h h h h h h h h h h h h h h h h h h h h h h h h h h h h h h h h h h h h h h h h h h h h h h h h h h h h h h h h h h h h h h h h h h h h h h h h h d K } l.].Q $ ",
", I `.m.~ l d h h h h h h h h h h h h h h h h h h h h h h h h h h h h h h h h h h h h h h h h h h h h h h h h h h h h h h h h h h h h h h h h h h h h h h h h h h h h h h h h h h h h h h h h h h d 3.o.l.`...# ",
"3 Y .XK.B M d h h S M h h h h h h h h h m h h h h h h h h h h h h h h h h h h h h h h h h h h h h h h h h h h h h h h h h h h h h h h h h h h h h h h h h h h h h h h h h h h h h h h h h h h h l f F ( M.oXr.# ",
"3 b _.c.V M d h h d h h h h h l h h h h h h h h h h h h h h h h h h h h h h h h h h h h h h h h h h h h h h h h h h h h h h h h h h h h h h h h h h h h h h h h h h h h h h h h h h h h h h h d h h h V k.].8.# ",
"f - L 9.( l h S h : 1 S S c M M S h h h h h h h h h h h h h h h h h h h h h h h h h h h h h h h h h h h h h h h h h h h h h h h h h h h h h h h h h h h h h h h h h h h h h h h h h h h h h h h h l h F e.W ; , ",
"g . % ^ ( h x S d * , S S l s s l S c x x h h h h h h h h h h c M m m V c l l l l l l c c l S S S S l l l l l l l l l l l l l l l l l l l l l l l l c S x c l l m h h h h h h h h h h h h h h h c c h F | q   5 ",
"1 = p ) h d M S h s d M l 5 * * s S S x x x h h h h h x h x h h h h l h h h h h h h h m h h V V V V h h h h h h h h h h h h h h h h h h h h h h h l l l l l h l l h h h h h h h h h h h h h h l c V h s )  .9 , ",
"1 < { V h l m h h S S M 7 * o o , l S h x l l V m m h h l c m h h c h h h h h h h h h h h h h h h h h h h h h h h h h h h h h h h h h h h h h h h h h h l h h l c h h h h h h h h h h h h h h h h h l s V | p , ",
"1 < h x h l h h h c c S 6 o o # 1 m M h h l l h h h h h l h h h h h h h h h h h h h h h h h h h h h h h h h h h h h h h h h h h h h h h h h h h h h h h h h h h l h h h h h h h h h h h h h h h h h l l h V 1 , ",
"1 * s c h h h h h h h l d * o , d l h h h h h h h h h h h h h h h h h h h h h h h h h h h h h h h h h h h h h h h h h h h h h h h h h h h h h h h l h h h h h h h h h h h h h h h h h h h h h h h h h l l s * , ",
", # s c h d h h h h h h l s 5 s h h h h h h h h h h h h h f l h d d h l h h h h h h h h h h h h h h h h h h h h h h h h h h h h h h h h h h h h l j s h h h h h h h h h h h h h h h h h h h h h h h h h l k * : ",
", * 7 l h d d h h h h h h l l h h h h h h h h h h h h h d h f s d 7 d s s s s s s s s s s s s s s s s s s s s s s s s s s s s s s s s d d d s 7 s j d d s h h h d h h h h h h h h h h h h h h d d h h h h d * : ",
", * s l h d d h h h h h h h l h h h h h h h h h h h h g h A z 0 5 5 6 0 a a a a a a a a a a a a a a a a a a a a a a a a a 5 a a a 5 5 5 5 5 5 5 1 t C V s h h h h h h h h h h h h h h h h h h d d h h h m h * * ",
": o s S h h h h h h h h h h h h h h h h h h h h l h h x V ^ e.h.t.t.t.t.t.t.t.t.t.t.t.t.t.t.t.t.t.t.t.t.t.t.t.t.t.t.t.t.t.t.t.t.t.t.t.t.t.t.t.t.t.r._ V F S h h l h h h h h h h h h l l l l l h h h h h S h * * ",
",   * s s s s s s s 6 6 s s s s s s s s 6 6 6 6 s 6 s V 0 y N.oX}.'.{.{.{.{.{.{.{.{.{.{.{.{.{.{.{.{.{.{.{.{.{.{.{.{.{.{.{.{.{.{.{.{.'.{.{.'.'.{.oXR.v 8 C V 5 6 6 6 6 6 s s s s 6 6 6 6 s s s s s s s s s , o : ",
", o . # * * # @ # # # @ # # # @ @ # # @ @ @ # @ @ o = < + O Y t.h.w.r.r.r.r.r.r.r.r.r.r.r.r.r.r.r.r.r.r.r.r.r.r.r.r.r.r.r.r.r.r.r.r.r.r.w.r.r.r.t. .8 O - : # @ @ @ @ @ @ @ @ @ @ @ @ @ @ # @ # # # # # # o o < ",
"6 5 , , , , , , , , , , , , : : : : : : : : , , * , > < 1 1 : % & & # # & & & & & & & & & & & & & & & & & & & & & & & & & & & & & & & & & & & & # : 1 1 : : , , , : , , , , , , , , , , , , , , , , , , , , 1 s "
};
