/* XPM */
static const char *frame_07[] = {
/* columns rows colors chars-per-pixel */
"64 64 8 1 ",
"  c gray10",
". c gray17",
"X c gray24",
"o c #565656",
"O c #686868",
"+ c gray56",
"@ c gray76",
"# c None",
/* pixels */
"################################################################",
"################################################################",
"################################################################",
"################################################################",
"################################################################",
"################################################################",
"################################################################",
"################################################################",
"################################################################",
"###########################++++++++++###########################",
"########################++++++++++++++++########################",
"######################++++++++++++++++++++######################",
"####################++++++++@@@@@@@@@+++++++####################",
"###################++++++@@@@@@@@@@@@@@++++++###################",
"#################++++++@@@@@@@OOOO@@@@@@+++++++#################",
"################+++++@@@@@@OOOOOOOOOOO@@@@++++++################",
"###############+++++@@@@OOOOOOOOOOOOOOOOO@@++++++###############",
"##############+++++@@@OOOOOOooooooooOOOOOOOO++++++##############",
"##############++++@@@OOOOOooooooooooooOOOOOOO+++++##############",
"#############++++@@@OOOOooooooooooooooooOOOOOO+++++#############",
"############+++++@@OOOOooooooXXXXXXooooooOOOOOO+++++############",
"############++++@@OOOOooooXXXXXXXXXXXXooooOOOOOO++++############",
"###########++++@@OOOOooooXXXXXXXXXXXXXXooooOOOOO+++++###########",
"###########++++@OOOOooooXXXXXXXXXXXXXXXXooooOOOOO++++###########",
"##########+++++@OOOooooXXXXXX......XXXXXXooooOOOOO++++##########",
"##########++++@OOOOoooXXXXXX........XXXXXXoooOOOOO++++##########",
"##########+++++OOOoooXXXXXX..........XXXXXXoooOOOOO+++##########",
"#########+++++OOOOoooXXXXX............XXXXXoooOOOOO++++#########",
"#########+++++OOOooooXXXX.....    .....XXXXooooOOO@++++#########",
"#########+++++OOOoooXXXX.....      .....XXXXoooOOO@++++#########",
"#########+++++OOOoooXXXX....        ....XXXXoooOOO@@+++#########",
"#########+++++OOOoooXXXX....        ....XXXXoooOOO@@+++#########",
"#########+++++OOOoooXXXX....        ....XXXXoooOOO@@+++#########",
"#########++++@OOOoooXXXX....        ....XXXXoooOOO@@+++#########",
"#########++++@OOOoooXXXX.....      .....XXXXoooOOO@@+++#########",
"#########++++@@OOooooXXXX.....    .....XXXXooooOO@@@+++#########",
"#########++++@@OOOoooXXXXX............XXXXXoooOOO@@++++#########",
"##########+++@@OOOoooXXXXXX..........XXXXXXoooOOO@@+++##########",
"##########+++@@@OOOoooXXXXXX........XXXXXXoooOOO@@@+++##########",
"##########+++@@@OOOooooXXXXXX......XXXXXXooooOOO@@++++##########",
"###########+++@@@OOOooooXXXXXXXXXXXXXXXXooooOOOO@@+++###########",
"###########+++@@@OOOOooooXXXXXXXXXXXXXXooooOOOO@@++++###########",
"############+++@@@OOOOooooXXXXXXXXXXXXooooOOOO@@@+++############",
"############++++@@@OOOOooooooXXXXXXooooooOOOOO@@++++############",
"#############++++@@@OOOOooooooooooooooooOOOOO@@@+++#############",
"##############++++@@@OOOOOooooooooooooOOOOOO@@@+++##############",
"##############+++++@@@@OOOOOooooooooOOOOOOO@@@++++##############",
"###############+++++@@@@@OOOOOOOOOOOOOOOOO@@@++++###############",
"################++++++@@@@@OOOOOOOOOOOOO@@@+++++################",
"#################+++++++@@@@OOOOOOOOOOO@@@+++++#################",
"###################+++++++@@@@OOOOOOOO@++++++###################",
"####################++++++++++++++++++++++++####################",
"######################++++++++++++++++++++######################",
"########################++++++++++++++++########################",
"###########################++++++++++###########################",
"################################################################",
"################################################################",
"################################################################",
"################################################################",
"################################################################",
"################################################################",
"################################################################",
"################################################################",
"################################################################"
};
