/* XPM */
static const char *frame_02[] = {
/* columns rows colors chars-per-pixel */
"64 64 8 1 ",
"  c #0E0616",
". c #1D1127",
"X c #2C1A3D",
"o c #402756",
"O c #50306C",
"+ c #6B3F93",
"@ c #7A4CBA",
"# c None",
/* pixels */
"################################################################",
"################################################################",
"################################################################",
"################################################################",
"################################################################",
"################################################################",
"################################################################",
"################################################################",
"################################################################",
"###########################++++++++++###########################",
"########################++++++++++++++++########################",
"######################++++++++++++++++++++######################",
"####################++++++++++++++++++++++++####################",
"###################+++++++++OOOOOOOO+++++++++###################",
"#################++++++++OOOOOOOOOOOOOO@@@+++++#################",
"################+++++++OOOOOOOOOOOOOOOOOO@@@++++################",
"###############++++++OOOOOOOOOOOOOOOOOOOOO@@@++++###############",
"##############+++++@OOOOOOOOooooooooOOOOOOO@@@++++##############",
"##############++++@OOOOOOOooooooooooooOOOOOO@@@+++##############",
"#############++++@@OOOOOooooooooooooooooOOOOO@@++++#############",
"############++++@@OOOOOooooooXXXXXXooooooOOOOO@@++++############",
"############+++@@OOOOOooooXXXXXXXXXXXXooooOOOO@@++++############",
"###########+++@@@OOOOooooXXXXXXXXXXXXXXooooOOOO@@++++###########",
"###########+++@@OOOOooooXXXXXXXXXXXXXXXXooooOOO@@++++###########",
"##########+++@@@OOOooooXXXXXX......XXXXXXooooOOO@@++++##########",
"##########+++@@OOOOoooXXXXXX........XXXXXXoooOOO@@++++##########",
"##########++@@@OOOoooXXXXXX..........XXXXXXoooOO@@++++##########",
"#########+++@@OOOOoooXXXXX............XXXXXoooOOO@@++++#########",
"#########++@@@OOOooooXXXX.....    .....XXXXooooOO@@++++#########",
"#########++@@@OOOoooXXXX.....      .....XXXXoooOO@@++++#########",
"#########++@@OOOOoooXXXX....        ....XXXXoooOOO@++++#########",
"#########++@@OOOOoooXXXX....        ....XXXXoooOOO@++++#########",
"#########++@@OOOOoooXXXX....        ....XXXXoooOOO@++++#########",
"#########++@@OOOOoooXXXX....        ....XXXXoooOOOO++++#########",
"#########++@@OOOOoooXXXX.....      .....XXXXoooOOOO++++#########",
"#########++@@OOOOooooXXXX.....    .....XXXXooooOOOO++++#########",
"#########+++@@OOOOoooXXXXX............XXXXXoooOOOO+++++#########",
"##########++@@OOOOoooXXXXXX..........XXXXXXoooOOOO++++##########",
"##########+++@@OOOOoooXXXXXX........XXXXXXoooOOOOO++++##########",
"##########+++@@OOOOooooXXXXXX......XXXXXXooooOOOO+++++##########",
"###########+++@@OOOOooooXXXXXXXXXXXXXXXXooooOOOO@++++###########",
"###########+++@@OOOOOooooXXXXXXXXXXXXXXooooOOOO@@++++###########",
"############++++@OOOOOooooXXXXXXXXXXXXooooOOOOO@@+++############",
"############++++++OOOOOooooooXXXXXXooooooOOOOO@@@+++############",
"#############+++++OOOOOOooooooooooooooooOOOOO@@@+++#############",
"##############+++++OOOOOOOooooooooooooOOOOOO@@@+++##############",
"##############++++++OOOOOOOOooooooooOOOOOO@@@@++++##############",
"###############++++++OOOOOOOOOOOOOOOOOOO@@@@@++++###############",
"################+++++++OOOOOOOOOOOOOO@@@@@@@++++################",
"#################++++++++OOOOOOOO@@@@@@@@@+++++#################",
"###################+++++++++@@@@@@@@@@@++++++###################",
"####################++++++++++@@@@++++++++++####################",
"######################++++++++++++++++++++######################",
"########################++++++++++++++++########################",
"###########################++++++++++###########################",
"################################################################",
"################################################################",
"################################################################",
"################################################################",
"################################################################",
"################################################################",
"################################################################",
"################################################################",
"################################################################"
};
