/* XPM */
static const char *frame_03[] = {
/* columns rows colors chars-per-pixel */
"64 64 8 1 ",
"  c #0E0616",
". c #1D1127",
"X c #2C1A3D",
"o c #402756",
"O c #50306C",
"+ c #6B3F93",
"@ c #7A4CBA",
"# c None",
/* pixels */
"################################################################",
"################################################################",
"################################################################",
"################################################################",
"################################################################",
"################################################################",
"################################################################",
"################################################################",
"################################################################",
"###########################++++++++++###########################",
"########################++++++++++++++++########################",
"######################++++++++++++++++++++######################",
"####################++++++++++++++++++++++++####################",
"###################+++++++++OOOOOOOO+++++++++###################",
"#################++++++@+OOOOOOOOOOOOOO++++++++#################",
"################+++++@@OOOOOOOOOOOOOOOOOO+++++++################",
"###############++++@@@OOOOOOOOOOOOOOOOOOOO@@+++++###############",
"##############++++@@@OOOOOOOooooooooOOOOOOO@@+++++##############",
"##############+++@@@OOOOOOooooooooooooOOOOOO@@++++##############",
"#############+++@@@OOOOOooooooooooooooooOOOO@@@++++#############",
"############++++@@OOOOOooooooXXXXXXooooooOOOO@@+++++############",
"############+++@@@OOOOooooXXXXXXXXXXXXooooOOOO@@++++############",
"###########+++@@@OOOOooooXXXXXXXXXXXXXXooooOOO@@+++++###########",
"###########+++@@OOOOooooXXXXXXXXXXXXXXXXooooOOO@@++++###########",
"##########+++@@@OOOooooXXXXXX......XXXXXXooooOO@@+++++##########",
"##########+++@@OOOOoooXXXXXX........XXXXXXoooOOO@@++++##########",
"##########++@@@OOOoooXXXXXX..........XXXXXXoooOO@@++++##########",
"#########+++@@OOOOoooXXXXX............XXXXXoooOO@@+++++#########",
"#########+++@@OOOooooXXXX.....    .....XXXXooooOO@@++++#########",
"#########+++@@OOOoooXXXX.....      .....XXXXoooOO@@++++#########",
"#########++@@@OOOoooXXXX....        ....XXXXoooOO@@++++#########",
"#########++@@@OOOoooXXXX....        ....XXXXoooOO@@++++#########",
"#########++@@@OOOoooXXXX....        ....XXXXoooOO@@++++#########",
"#########++@@@OOOoooXXXX....        ....XXXXoooOOO@++++#########",
"#########+++@@OOOoooXXXX.....      .....XXXXoooOOO@++++#########",
"#########+++@@OOOooooXXXX.....    .....XXXXooooOOO@++++#########",
"#########+++@@@OOOoooXXXXX............XXXXXoooOOOO+++++#########",
"##########+++@@OOOoooXXXXXX..........XXXXXXoooOOOO++++##########",
"##########++++@OOOOoooXXXXXX........XXXXXXoooOOOOO++++##########",
"##########++++@OOOOooooXXXXXX......XXXXXXooooOOOO+++++##########",
"###########++++@OOOOooooXXXXXXXXXXXXXXXXooooOOOOO++++###########",
"###########+++++OOOOOooooXXXXXXXXXXXXXXooooOOOOOO++++###########",
"############+++++OOOOOooooXXXXXXXXXXXXooooOOOOOOO+++############",
"############++++++OOOOOooooooXXXXXXooooooOOOOOOOO+++############",
"#############+++++OOOOOOooooooooooooooooOOOOOO@@+++#############",
"##############+++++OOOOOOOooooooooooooOOOOOO@@@+++##############",
"##############++++++OOOOOOOOooooooooOOOOOOO@@@++++##############",
"###############++++++OOOOOOOOOOOOOOOOOOOO@@@@++++###############",
"################+++++++@@@OOOOOOOOOOOO@@@@@@++++################",
"#################++++++++@@@@@OOOO@@@@@@@@+++++#################",
"###################+++++++++@@@@@@@@@@@++++++###################",
"####################++++++++++@@@@++++++++++####################",
"######################++++++++++++++++++++######################",
"########################++++++++++++++++########################",
"###########################++++++++++###########################",
"################################################################",
"################################################################",
"################################################################",
"################################################################",
"################################################################",
"################################################################",
"################################################################",
"################################################################",
"################################################################"
};
