/* XPM */
static const char *frame_08[] = {
/* columns rows colors chars-per-pixel */
"64 64 8 1 ",
"  c gray10",
". c gray17",
"X c gray24",
"o c #565656",
"O c #686868",
"+ c gray56",
"@ c gray76",
"# c None",
/* pixels */
"################################################################",
"################################################################",
"################################################################",
"################################################################",
"################################################################",
"################################################################",
"################################################################",
"################################################################",
"################################################################",
"###########################++++++++++###########################",
"########################++++++++++++++++########################",
"######################++++++++++++++++++++######################",
"####################+++++++++@@@@@@@@@++++++####################",
"###################+++++++@@@@@@@@@@@@@@+++++###################",
"#################+++++++@@@@@@@OOOOOO@@@@++++++#################",
"################++++++@@@@@OOOOOOOOOOOO@@@++++++################",
"###############++++++@@@OOOOOOOOOOOOOOOO@@@@+++++###############",
"##############++++++@@OOOOOOooooooooOOOOOO@@@+++++##############",
"##############+++++@@OOOOOooooooooooooOOOOOO@@++++##############",
"#############+++++@@OOOOooooooooooooooooOOOOO@+++++#############",
"############++++++@OOOOooooooXXXXXXooooooOOOOOO+++++############",
"############+++++@OOOOooooXXXXXXXXXXXXooooOOOOOO++++############",
"###########++++++OOOOooooXXXXXXXXXXXXXXooooOOOOO+++++###########",
"###########+++++OOOOooooXXXXXXXXXXXXXXXXooooOOOOO++++###########",
"##########++++++OOOooooXXXXXX......XXXXXXooooOOOOO++++##########",
"##########+++++OOOOoooXXXXXX........XXXXXXoooOOOOO++++##########",
"##########+++++OOOoooXXXXXX..........XXXXXXoooOOOOO+++##########",
"#########+++++OOOOoooXXXXX............XXXXXoooOOOOO++++#########",
"#########++++@OOOooooXXXX.....    .....XXXXooooOOOO++++#########",
"#########++++@OOOoooXXXX.....      .....XXXXoooOOOO++++#########",
"#########++++@OOOoooXXXX....        ....XXXXoooOOOOO+++#########",
"#########+++@@OOOoooXXXX....        ....XXXXoooOOOOO+++#########",
"#########+++@@OOOoooXXXX....        ....XXXXoooOOOOO+++#########",
"#########+++@@OOOoooXXXX....        ....XXXXoooOOOO@+++#########",
"#########+++@@OOOoooXXXX.....      .....XXXXoooOOOO@+++#########",
"#########+++@@OOOooooXXXX.....    .....XXXXooooOOO@@+++#########",
"#########+++@@@OOOoooXXXXX............XXXXXoooOOOO@++++#########",
"##########++@@@OOOoooXXXXXX..........XXXXXXoooOOO@@+++##########",
"##########+++@@OOOOoooXXXXXX........XXXXXXoooOOOO@@+++##########",
"##########+++@@@OOOooooXXXXXX......XXXXXXooooOOO@@++++##########",
"###########++@@@OOOOooooXXXXXXXXXXXXXXXXooooOOOO@@+++###########",
"###########+++@@OOOOOooooXXXXXXXXXXXXXXooooOOOO@@++++###########",
"############++@@@OOOOOooooXXXXXXXXXXXXooooOOOOO@@+++############",
"############+++@@@OOOOOooooooXXXXXXooooooOOOOO@@++++############",
"#############+++@@@OOOOOooooooooooooooooOOOOO@@@+++#############",
"##############+++@@@OOOOOOooooooooooooOOOOOO@@@+++##############",
"##############++++@@@OOOOOOOooooooooOOOOOO@@@@++++##############",
"###############++++@@@@OOOOOOOOOOOOOOOOOO@@@@++++###############",
"################+++++@@@OOOOOOOOOOOOOOO@@@@+++++################",
"#################+++++++@OOOOOOOOOOOO@@@@@+++++#################",
"###################+++++++OOOOOOOO@@@@@++++++###################",
"####################++++++++++++++++++++++++####################",
"######################++++++++++++++++++++######################",
"########################++++++++++++++++########################",
"###########################++++++++++###########################",
"################################################################",
"################################################################",
"################################################################",
"################################################################",
"################################################################",
"################################################################",
"################################################################",
"################################################################",
"################################################################"
};
