/* XPM */
static const char *frame_04[] = {
/* columns rows colors chars-per-pixel */
"64 64 8 1 ",
"  c gray10",
". c gray17",
"X c gray24",
"o c #565656",
"O c #686868",
"+ c gray56",
"@ c gray76",
"# c None",
/* pixels */
"################################################################",
"################################################################",
"################################################################",
"################################################################",
"################################################################",
"################################################################",
"################################################################",
"################################################################",
"################################################################",
"###########################++++++++++###########################",
"########################++++++++++++++++########################",
"######################++++++++++++++++++++######################",
"####################++++++++++++++++++++++++####################",
"###################+++++@@@@OOOOOOOO+++++++++###################",
"#################+++++@@@@OOOOOOOOOOOOO++++++++#################",
"################+++++@@@OOOOOOOOOOOOOOOOO+++++++################",
"###############++++@@@OOOOOOOOOOOOOOOOOOOOO++++++###############",
"##############++++@@@OOOOOOOooooooooOOOOOOO@++++++##############",
"##############+++@@@OOOOOOooooooooooooOOOOOO@+++++##############",
"#############+++@@@OOOOOooooooooooooooooOOOO@@@++++#############",
"############++++@@OOOOOooooooXXXXXXooooooOOOO@@+++++############",
"############+++@@@OOOOooooXXXXXXXXXXXXooooOOOO@@++++############",
"###########+++@@@OOOOooooXXXXXXXXXXXXXXooooOOO@@+++++###########",
"###########+++@@OOOOooooXXXXXXXXXXXXXXXXooooOOO@@++++###########",
"##########+++@@@OOOooooXXXXXX......XXXXXXooooOO@@+++++##########",
"##########+++@@OOOOoooXXXXXX........XXXXXXoooOOO@@++++##########",
"##########++@@@OOOoooXXXXXX..........XXXXXXoooOO@@++++##########",
"#########+++@@OOOOoooXXXXX............XXXXXoooOO@@+++++#########",
"#########+++@@OOOooooXXXX.....    .....XXXXooooOO@@++++#########",
"#########+++@@OOOoooXXXX.....      .....XXXXoooOO@@++++#########",
"#########+++@@OOOoooXXXX....        ....XXXXoooOO@@++++#########",
"#########+++@@OOOoooXXXX....        ....XXXXoooOO@@++++#########",
"#########+++@@OOOoooXXXX....        ....XXXXoooOO@@++++#########",
"#########++++@OOOoooXXXX....        ....XXXXoooOO@@++++#########",
"#########++++@OOOoooXXXX.....      .....XXXXoooOO@@++++#########",
"#########++++@OOOooooXXXX.....    .....XXXXooooOO@@++++#########",
"#########+++++@OOOoooXXXXX............XXXXXoooOOO@+++++#########",
"##########+++++OOOoooXXXXXX..........XXXXXXoooOOO@++++##########",
"##########+++++OOOOoooXXXXXX........XXXXXXoooOOO@@++++##########",
"##########+++++OOOOooooXXXXXX......XXXXXXooooOOO@+++++##########",
"###########+++++OOOOooooXXXXXXXXXXXXXXXXooooOOOOO++++###########",
"###########+++++OOOOOooooXXXXXXXXXXXXXXooooOOOOOO++++###########",
"############+++++OOOOOooooXXXXXXXXXXXXooooOOOOOO++++############",
"############++++++OOOOOooooooXXXXXXooooooOOOOOOO++++############",
"#############+++++OOOOOOooooooooooooooooOOOOOOO++++#############",
"##############+++++@OOOOOOooooooooooooOOOOOOOO++++##############",
"##############++++++@@@OOOOOooooooooOOOOOOOO@+++++##############",
"###############++++++@@@@OOOOOOOOOOOOOOOOO@@+++++###############",
"################+++++++@@@@@OOOOOOOOOOO@@@@+++++################",
"#################++++++++@@@@@@@@@@@@@@@@@+++++#################",
"###################+++++++++@@@@@@@@@@@++++++###################",
"####################++++++++++@@@@++++++++++####################",
"######################++++++++++++++++++++######################",
"########################++++++++++++++++########################",
"###########################++++++++++###########################",
"################################################################",
"################################################################",
"################################################################",
"################################################################",
"################################################################",
"################################################################",
"################################################################",
"################################################################",
"################################################################"
};
