/* XPM */
static char *_5e14c1f8fdf45dad6b1fd016c68a052UpHlTMZ5szsnilEx[] = {
/* columns rows colors chars-per-pixel */
"64 64 254 2 ",
"   c #0C0714",
".  c #0D0815",
"X  c #140816",
"o  c #150C1B",
"O  c #1A0D1C",
"+  c #1A101E",
"@  c #220C1D",
"#  c #170E22",
"$  c #1B0E21",
"%  c #1D1223",
"&  c #191327",
"*  c #1D132B",
"=  c #1E1535",
"-  c #260D23",
";  c #350C23",
":  c #221325",
">  c #24152B",
",  c #2B152C",
"<  c #241B2B",
"1  c #28182A",
"2  c #35152D",
"3  c #241933",
"4  c #261834",
"5  c #2B1A34",
"6  c #2B1D3C",
"7  c #381633",
"8  c #331A33",
"9  c #3C1A34",
"0  c #341C3C",
"q  c #3B1D3C",
"w  c #28222D",
"e  c #2D2337",
"r  c #34273B",
"t  c #38333A",
"y  c #3A333D",
"u  c #4B142C",
"i  c #481A36",
"p  c #441D3C",
"a  c #581A39",
"s  c #661B3B",
"d  c #751D3A",
"f  c #472239",
"g  c #572438",
"h  c #77253B",
"j  c #2A1C45",
"k  c #371E43",
"l  c #3B1A52",
"z  c #2D2243",
"x  c #2C264A",
"c  c #342244",
"v  c #3B2244",
"b  c #34234B",
"n  c #3C244B",
"m  c #372A49",
"M  c #3C3443",
"N  c #3D3648",
"B  c #3A2956",
"V  c #3A315B",
"C  c #3D2F68",
"Z  c #481D44",
"A  c #581D43",
"S  c #4D1452",
"D  c #661E45",
"F  c #791D46",
"G  c #631E52",
"H  c #432344",
"J  c #482547",
"K  c #44244A",
"L  c #4C234B",
"P  c #532144",
"I  c #5A2446",
"U  c #54234D",
"Y  c #5C234C",
"T  c #443B47",
"R  c #433B4C",
"E  c #472956",
"W  c #572957",
"Q  c #433D52",
"!  c #473658",
"~  c #553252",
"^  c #692247",
"/  c #63234B",
"(  c #6A234C",
")  c #752546",
"_  c #7C2246",
"`  c #74234B",
"'  c #7B234B",
"]  c #672756",
"[  c #772755",
"{  c #743450",
"}  c #452E66",
"|  c #572D63",
" . c #423365",
".. c #49356A",
"X. c #56356A",
"o. c #5F2D74",
"O. c #4A3876",
"+. c #593B76",
"@. c #662D65",
"#. c #663869",
"$. c #733268",
"%. c #683B77",
"&. c #773776",
"*. c #49434C",
"=. c #4B4354",
"-. c #4D4658",
";. c #534B54",
":. c #534C5C",
">. c #58545B",
",. c #5A545D",
"<. c #6A585B",
"1. c #544C63",
"2. c #5B5562",
"3. c #5D5A64",
"4. c #5B5768",
"5. c #524871",
"6. c #58437A",
"7. c #625B65",
"8. c #655866",
"9. c #635D6A",
"0. c #6C4679",
"q. c #67646A",
"w. c #6B636C",
"e. c #70696E",
"r. c #6B6572",
"t. c #6D6973",
"y. c #6A6876",
"u. c #726D75",
"i. c #746D78",
"p. c #757275",
"a. c #797575",
"s. c #74727A",
"d. c #7A757B",
"f. c #7D797D",
"g. c #831F3B",
"h. c #861E47",
"j. c #971D45",
"k. c #84244C",
"l. c #8C234B",
"z. c #842848",
"x. c #93234C",
"c. c #9C244C",
"v. c #992949",
"b. c #882855",
"n. c #962855",
"m. c #903352",
"M. c #A3244C",
"N. c #AA274C",
"B. c #B32C4D",
"V. c #B8284C",
"C. c #B3324C",
"Z. c #A72B54",
"A. c #B72B52",
"S. c #A73453",
"D. c #B73456",
"F. c #8F346D",
"G. c #AD346C",
"H. c #C92E4E",
"J. c #C62C53",
"K. c #C43253",
"L. c #C93758",
"P. c #D63957",
"I. c #E23B5A",
"U. c #CE386B",
"Y. c #904B58",
"T. c #B64B5A",
"R. c #984E71",
"E. c #AF4F65",
"W. c #906362",
"Q. c #827A7C",
"!. c #B46768",
"~. c #CB4758",
"^. c #D8455C",
"/. c #E7475C",
"(. c #E94D5C",
"). c #D25065",
"_. c #E64A63",
"`. c #F24D63",
"'. c #EA5865",
"]. c #F45966",
"[. c #D66C6C",
"{. c #E86769",
"}. c #F57171",
"|. c #7E807E",
" X c #85817F",
".X c #D18870",
"XX c #EA8E7B",
"oX c #F68779",
"OX c #523B81",
"+X c #683B84",
"@X c #5A4788",
"#X c #684987",
"$X c #6E5092",
"%X c #7A7782",
"&X c #7E7B82",
"*X c #766498",
"=X c #776AAA",
"-X c #8E4B91",
";X c #837D83",
":X c #817F8C",
">X c #836091",
",X c #A76298",
"<X c #EE6686",
"1X c #858185",
"2X c #8A8386",
"3X c #8B8986",
"4X c #868489",
"5X c #8A858A",
"6X c #8D8A8C",
"7X c #908987",
"8X c #928D8E",
"9X c #848893",
"0X c #8E8C91",
"qX c #928E91",
"wX c #918F98",
"eX c #959290",
"rX c #959293",
"tX c #9B9595",
"yX c #9B9995",
"uX c #989698",
"iX c #9C9A9A",
"pX c #A29A96",
"aX c #A29D9B",
"sX c #A4A19D",
"dX c #AAA49E",
"fX c #A29EA1",
"gX c #9FA0A1",
"hX c #A5A3A2",
"jX c #AAA5A3",
"kX c #A8A7A5",
"lX c #ACAAA5",
"zX c #ADADAA",
"xX c #B1ADA4",
"cX c #B1ADAA",
"vX c #B3B2AC",
"bX c #BAB6AD",
"nX c #AEB2B1",
"mX c #BAB9B4",
"MX c #F39288",
"NX c #F6A98E",
"BX c #DE9CA6",
"VX c #D3A7B4",
"CX c #C2BDB4",
"ZX c #C6C5BB",
"AX c #CCCDC4",
"SX c #CDD2C9",
"DX c #D3D5CC",
"FX c #D7D8CC",
"GX c #D6D9D2",
"HX c #DADDD4",
"JX c #EBD9DF",
"KX c #DEE1D7",
"LX c #E2E5DA",
"PX c #E5E9DD",
/* pixels */
"LXLXLXLXFXGXHXKXHXSXe.kXHXLXKXHXAXp.8.tXd.yXzXyX4XHXHXHXKXLXuXmXHXKXKXKXKXnX0XSXGXHXDXDXCXy.GXHXHXKXHXnXf.mXFXHXHXGXGXKXPXPXPXKX",
"mXZXmXmX;X&X6XlXqXy.:.a.aXjXjXhXrXT 2XQ.2XmXZXxX1XpXf.1X1XrX>.hXiXyXuXrX6Xu.d.aXqX1X;X2X;X,.jXyXyXZXjXt.2XjXd.iXrXi.2XsXCXmXbXjX",
"lX,.,.r jXvXxX5Xs.:X3.T Q.aX8Xp.sXM CXrX6X6XrXQ. XbX6X5X5X1X:.r rXyX6X5X2Xu.Q.pX&Xp.1X8X;Xq.CXvXlX1XZX6XM 2.;X2.=.8XcXjXyXq.:.cX",
"lX7.e e =.tXiXaXfXuX7.w.pXqX2X8X8Xy aXuXrXjXsX1Xp.dX0X4X6X4X>.7XbXjXrX6X6Xu.2XdX6XhXZXaX6X7.jX2.8X5X2X7.8XvXhXjXsXyX1X;.> < rXjX",
"zX;X3.%XM ,.7.q.q.r.=.e.5X2X1X5X1Xy sXqX7.,.8X1Xw.iX;X>.1X1X2.;Xf.qX0X4X5Xi.Q.aXiX0XrXuX6X,.0Xr.5X0X6Xq.,.w.w.i.u.w.;.e.jXq.zXrX",
">.N R R w  XsXhXgXrXw.*.;.=.=.=.Q r 7.Q -.1.1.-.R :.=.=.-.=.R q.-.=.=.-.1.Q *.;.R R -.-.R R 8.-.=.=.=.Q M  XsXkXhX8X,.M 7.y -.1.",
"y 3.1Xf.M lXAXFXGXSX3X# X o o @ @ o o O O O O @ : + + + + + O o O O O $ % O o o o # * O : % O O o O o X N cXHXKXLXZXp.e.f.,.jX;.",
"t.kXCXbX9.pXpX5X3Xd.=.+ $ : g ) u - : 1 > 2 u u 9 8 2 7 8 8 1 : % : , 8 , 1 0 e O * 6 : p r 1 : - 8 : o y rXiXuXhXiXq.dXpXjXjXtX",
"lXbXvX;X:.pXpXw.7.q.;.+ 6 0 Y.).a , , 1 5 s s A Y P A ^ ] ] P q 7 2 2 7 , , 6.6.6 % O : v E 0 , - U 9 : > uXiXs.4X0X=.7.8XmXqXyX",
"aXq.w.;X=.tXpX2Xi.t.;.% j K Z A Z B 6 < : 1 > ! X.W a i F k.n.b.k.` ` ( U 7 n X.X.B c % : J %.E 2 H 9 q 1 uXuX&X6X6X:.i.;Xp.2X;X",
"bXjX7.;.M 2.R M N R r > B X.W n 8 % + a K E } b = & * * , s d a V.n.l.l.x.D 8 0 E +.@Xb * f E.%.+.%.W W 8 w.,.R R N R s.d.t.kXhX",
"bXjXu.w.R : : % % % O x b - : : : < b G.$.X...n X.#XO.V m O + + j.V.V.c.n.k.s i p U +X$XB + O F.$X@.b.n.i $ O O O O M ;XyXr.zXjX",
"vXsX5XiX9.+ X O X o % 7 2 % > b ..6.0.#.#X#XF.) & U &.6.6.% % O O + r ).^.A.c.) ) a ) l.5 % % O *X%.BX<Xb.5 o X X X y Q.aXi.,.pX",
"8X*.iXuX7.O - u - > 5 Z.x.j ..@X$X#X0.0.F.I + % % & * c 0.0.0.fX! > > * & S.D.k.' l.k.M.D 1 : & *X$X-XF.$XE - @ ; @ t f.xXrXcXr ",
"r r r e 5 o @ @ 4 j ( BX,X@.6.*X*X2 O o o % e m H K L q r q n.G #.c 5 V x & O.).~.' x.N.k.p K @XO O.*X$Xm P 2 ; v.v.> M r r r r ",
"LXLXLXLXrX% - @ j G._.JXJXU.-X*XO &  .n K H H Y $.&.b.b.E E -X-XG.F.&.b +.! & # Z ' h.c.m.[ L q % * #X6.B ] J ; u ; ,.ZXPXPXLXDX",
"3X1XuX6X,.+ O b C V E G.F.+.+.% 3 b ! , I ' x.x._ l.c.c.h.j.[ [ ' ` ` Y n / Z b b 0 ' M.B.n./ W > : e O.! %.%.0 @ O R f.6X6X3XbX",
"qX1XyXyX7.% V ..b C O.%.$X$X#XV ! p p ` [ ' ` S.L.H.P.P.{.V.V.M.j.l.V.k.] P ( ] n 6 E h H.M.( n.=X+X> e e #.#X} : : *.&X;Xd.5X5X",
";X1XiXiXq.: 6 e  .V  .O. .! m r H 9 A ` ` c.K._./.H./.'.'.}.oX{.D.M.V.N.x./ Y Y ....6 s C.L.l.x.5.E % O m.F.%.X.c 5 *.iXZXvX6XqX",
"uXyXyXaXr.% % ! C x W n.k.f > 5 U ' h.N.L.^.^.P.B.h z.Y.Y.!.}.NX}.P.'.P.N.l.k.A.Z.@.x 2 d B.V.M./ r > O S.b.L 6.O., *.qXiXrXhXfX",
"aXaXpXaXy.& z V B U [ ` a 8 6 P [ l.l.V.'.T.) a u * 3 3 3 , h W.T.NXoX'.L.x.F Z.L.Z.B 6 d J.H.N.F r V * N.k.H ..+., *.rXqX2X2.>.",
"e.i.p.s.1.& b q 5 ` s 2 : v W ( l.N.^._ z.g 4 b E E E W v b c = a <.[.oX}.T.x.k.D.^.] b 9 m.(.K.h.H } 3 B.N.I X.+.k t t.t.q.e < ",
"rXyXr rXp.e z K K I 9 % 5 W $.l.B./.z., % > / n.D.D.D.Z.Z.n.n.E b j ^ E.XX}.L.n.z.D.n.B b g ^.P.h.K E 3 a M.^ X.+.k T 3XiXyXyXyX",
"AXDX=.AXgXy q L J 0 1 5 K ] S.N.l.v.& 4 v ' x.k.z.z.v.x.B.B.U.P.D.W b Y E.XX}.Z.k.M.Z.] E g K.P.l.] K n & M._ | @.q 7.CXFXHXAXAX",
"qXiX2.vXt.< A Z , : 5 n ] F v.N._ 1 n L ` k.^ z.N.L.P.A.B.M.K.P._.L.[ v I E.{.^.N.B.A.x.E g K.P.c.` J W 5 d ' ] ] 7 ;.rXiXZX6X6X",
"iX1X1X;X3.> , 2 i 9 c K c.J.v.i i 3 / [ l.x.N.P.{.MXNXMXXX{.).n.Z.D.B.( v Y T.(.A.D.K.N.E 8 z.`.c.' J [ 8 O D ] ] 7 ;.tX6X8XqXqX",
"cX1X2X6X3.> 1 _ ~.) c P h.h.a 5 0 r U k.l.L.'.NXNXS.r 0 r v L L Z Z L.Z.U c ` A.P.(.K.D.W 6 s `.c.k.#.b.9 o ) [ A 2 ;.aXqXrXuXuX",
"lX4X5XqX9.< , p Y W K D F a , 0 E 9 b.c.K.{.oX[.[ 6 6 6 k 6 > & * * / n.( k L k.).{.H.Z.| 6 f `.c.l.,XF.q o F b./ 8 >.sXrXgX5XuX",
"yX5X4X0X9.% 0 k ! K p M.V.d 5 ! ..A N.P.}.oX!.v v K Z L E B b # . i : 0 L K L / !.MXP.Z.E v g /./.M.[ q & u k.b.D 8 ;.aX0XhXQ ;X",
"-.s.9.:.M %  . .B p _ N.d & c E ] F K.}.}.T.L n E [ M.h.1 . . o . b.p . 6 v U Y v.^.^.Z.E J S././.h.[ q % v.Z./ L Z t ,.-.R R y ",
"f.,.p.f.=.%  .O.b d M.N.d > v W ' j.L.MX'.z.6 K n.V.j.>   . . l . . . . 6 b l.x.v.{.[.b.E I {.]./.h.P 1 2 l.n./ L Z r q.u.p.p.u.",
"sX5XAXvXf.> C } 1 s M.d # > v m.P.N.<X].{ , 0 D.P.x.j X S     Z     . - > b b p T.].L.U E { MX].H.b.L 1 @ S.Z./ P 9 >.lXdXlXbXyX",
"uX8X1XiXt.< % 8 8 d ) i & > v / S.`.}.S.g b k.[..XZ & . . . .         . X o & D .XXXb.6 ) '.}.P.J.[ K > S.B.' ( p : >.kX6XrX8X2X",
"rX1X5XuXr.< : n I F i & *X=XP ( C.].].> * U Z.'.).k = . . . .     *XK . o o 4 N._.T.c 0 W.NX].l.` E 5 1 2 N.x.p 5 : 7.jX0XsXrX5X",
"5X4X1XaXq.< , W I _ a * b K P ` D.}.}.> 6 [ [.{.m.n 6 & . -       #.7 . . > Z !.[.l v W.NX}.P.k.~ 3 > q D.M.' p 5 5 T p.6XiXiX6X",
"6X6X3.lXq.: 0 W Y s 2 4 ....A l.I.].L.> c b.{.).U Y k 4 o A   . . - o . # 0 n.Z.Y k Y.MXMXP.M.( E 6 * E.m.b.( 0 0 k T 5XlX9.0XvX",
"u.s.:.1X:.: v W A i 5 z ..E ' B.P.].D = / M.}.[.Y k.D 4 * . $ . X . o X 0 ] ] E k { [.NX(.B.[ @.6 ..5 K.v.` P 5 K K y &XrXr.q.2X",
"w.>.>.>.N % v W ( A 5 x m 7 ' B.K.P.Y > / D./.D.k.A.k.3 j o G . . . k b E } E Z k.).}.'.^.V.[ | % W ^.B.F A K 6 E E w :.2.7.R u.",
"jX8XtXtXu.: n +.] U z 6 6 8 / M.P.J.( > x.K.V.b.z.^.).3 j 6 6 6 6 6 6 6 6 0 K T.oXMX'.J.J.( ( : + ^.M.F a E c [ ] 5 *.rXxX5X,.mX",
"cXaXcX5X9.: ! E ] W z z z 8 Y x.B.V.L.1 q D.D.b.J !.}.! 6 6 ] A.[ ] W W b.).].].]./.K.x.h.F 1 8 ~.D._ a ` v k.' 7 O ;.xXZXq.dXrX",
"i.p.uXiXr.< , H U [ k * > q I k.M.J.K.: 6 Z.L.G.$.T.].).6 m E ] Z.{.{.{.'.`.P.L.^.L.n.' p , f ~.~.M.x.h.s s ) A , % >.tXf.r.lX5X",
"uXi.qXhXuXw % 8 0 [ U * & q W ` M.H.I.> 4 ` B.Z.] ^ !.NX).j c B Y Y.~.^.L.S.b.b.b.' / E V #.~.Z._ D F a U P p , c n T d.u.&XjX%X",
"hX0X=.wXs.< + 1 1 ` n.D & v W Y k.J.I.8 5 L n.A.( A m.).}.NXY 4 C O.@.[ [ ] ] W J v v c Z ` z.F A D A +.K , % K W Z y p.uXAXrX%X",
"hX;X:.zXt.: : 0 k ^ Z.` & 0 E p ( v.H.F 2 b [ c.R.>X) B.'.oXXX[.~ z c v v K K c n n k g v.k.F F K.c.b.@.Z , & J E.Y.M d.6XiX4X4X",
"u.7.-.;X>.% : 0 5 P x.D * > 8 q ] _ K.V.a 6 E ] $.$.Z k.A.~.}.}.{..X[.) 5 0 0 Z p Y.{.'._.P.P.A.S.b.] 9 - % e k.S.{ w :.2.3.3.3.",
"sXjXlXzXs.< : 8 0 H ' %.B * % 7 P x.N.j.a * 5.5.W / D ^ c.F J.`.(.].}.{.{.{.}.[.^._.(./.P.B.Z.b.Y K 5 # O C %.&.W 7 y 1XjXsXyXtX",
"mXmXZXZX5X< $ q H H / %. .3 x  .u ' c.d B.h V  .B ~ ] A b.n._ N.M.J._.^./.`.].(.P.A.V.V.c.k.A Z 5 4 * * B O.&.#X .> ;.aXmXmXbXCX",
";Xp.jX3X7.% O , q K U F.$.x 6 m i [ n.a C.V.h z m K $.S.Y [ U / D n.D.P.K.N.B.N.l.F F F ( / 7 > j C OX@X6.O.#X+.c % N d.1XuXq.8X",
";Xf.iX;X2.% O a D.[ W &.&.o.W = , A / i z.V.H.m.e z J ' ' 0 | #.J A ( L.S.[ ] ] #X*X%.7 9 8 $ j B <XU.&.@X#XX.n a u T 2XjXuX2.rX",
"s.;XuX6X3.+ O u m.( } o.F.G.Z.S $ , +Xi a M.H.H.^ 3 3 9 ' v.B } 6 v n ` ] | L Z X.%.| 1 6 B * E G.JXJX,X%.E B E Y.Y.T 8XcXqXu.qX",
"rX&X2X5X3.O O $ : 0 } F.U.BXBXF.m O X.2 i d N.J.V.v.> > i g.c.W ..c 5 6 6 k 8 : 1 5 5 : < z 3 } F.VXVXR.X.X.B k Y.<.*.6XyXiXqXtX",
"8Xq.,.w.:.O o o % 5 } F.U.VXVXG.6.O % 7 2 u d x.V.B._ S.# # g.n.G.n.$.+.+.+.#.] W r & & : P k.F.OXF.F.+.OX+.c : - O N &X2X2X4X5X",
"M M R N N 7.5XuXuX4X9.O.&.G.G.0.$X6.O , 1 - D ' n.Z.k.m.$XB & h _ B.G.G.G.F.X.W J z W ' ' n.b.&.#X@X@X#X+.i.p.a.|.p.>.M M N M r ",
"r 9.lXiXr.zXDXGXHXDX1X..O.O.} #.0.#X# o Z : i i ` n.F ` n.>X% > 5 I [ [ n.n.Z.b.E 6.#X` ` ] W | +.+...O.m nXKXKXKXSXuX8.a.hXcXcX",
"2.=.;X&X:.6XaXuXyX;XQ # j } } n ! %.C o 2 % : 8 ) n.[ &.F.n.J ..6 j } } W ] $.$.[ / 0 q n E +.E E | 0 : Q iXnXcXzXuX9.cXZXCXbXqX",
"dXrX2X4X:.rXiXf.s.s.-.O : b  .B c ..6.c & o % > p a Z W | $.b.Z.Z.a , 5 < 1 0 c q W o.W q 0 0 q c.9 : O :.mXzX4X6X9X=.9.6X4Xr.8X",
"rX5X6X2X-.8XrX1Xd.u.:.# o * j x 6 }  .C 6 o o & 1 , , q B } } E ] ] ` h.h._ F a i 8 q 8 8 r X., i : $ O 4.mXkX1X0X9XQ q.5X9.t.aX",
"p.6X5Xu.Q w.:.-.=.Q N w e r r e w 6 Q 1.Q y t r < e < e e z 4 4 0 q p p 9 7 7 r 8 e t t e > y t t t t e ,.d.y.4.4.Q r M 8.9.cX;X",
"vXgXr.0X*.7.q.q.q.q.*.kXDXAXDXAXsX*.GXFXHXKXHXvX1XHXLXLXPXPXnXvXFXKXKXLXHXhXiXKXLXLXLXLXSXw.AXDXHXHXKXjX=.>.q.3.>.*.5 8.dXjXcXjX",
"pXdX9.nX=.vXZXZXCXZX4Xq.d.s.iXhX3.T vXd.6XrX6Xt.p.lX6X8XiXsX7.;X8X6X5X5X;X4.p.yX6X8XqX;Xp.,.jXfXrX6X0Xq.3.kXmXvXzXqX3.1XAXmX;XjX",
"zXiX-.7.=.sX2Xi.d.1X3.s.yX8Xu.&X6XT jXf.t.uXqXr.p.lX4XrXzXp.:.;XrXiX6X6X5X3.p.yX6XhXlX&Xs.,.mXAXlX6X0X9.6XhX2XiXkXmXmXsX;X2.2.fX",
"jX4.%XrXr.i.w.9.i.i.=.;XtX5X5X5Xf.M d.6X6X0X4X9.a.lX1X0XvXf.3.5XaXhX6X1X1Xr.a.iX6Xd.d.;X%XM 2.-.:XiXaXq.-.r.i.p.u.p.6XiXrX9.r.fX",
"hX1X6XrX8.r.8.8.5XuX3.Q.8X;X;X&Xu.M lXlXlXu.2.:.p.jX&X4XhXd.i.6XhXiX1X&X&Xy.a.iX&Xi.;X4Xs.2.aXt.&XuXiXq.2.u.r.t.;X&X6XiXiX;X4XtX",
"R R -.Q ! r.9.8.2.2.Q 8.9.2.:.=.R y 2X=.=.y.r.:.,.;Xr.t.r.9.-.r.:.-.y.&X4Xt.q.;X9.2.r.9.1.*.%X9.4.1.Q ! 2.r.9.1.y.9.4.8.:.:.=.R "
};
