/* XPM */
static char *blue_wall[] = {
/* columns rows colors chars-per-pixel */
"64 64 94 2 ",
"   c #030304",
".  c #080405",
"X  c #040806",
"o  c #090905",
"O  c #09060A",
"+  c #0A0B0C",
"@  c #050511",
"#  c #060D12",
"$  c #0A0D13",
"%  c #0D0F19",
"&  c #100F11",
"*  c #071015",
"=  c #0D1215",
"-  c #0D151C",
";  c #0E181E",
":  c #111215",
">  c #11151C",
",  c #0D1621",
"<  c #0E1922",
"1  c #0F1C28",
"2  c #121622",
"3  c #131B24",
"4  c #141E2A",
"5  c #191F2B",
"6  c #0F2027",
"7  c #142026",
"8  c #192126",
"9  c #15222C",
"0  c #19232D",
"q  c #15292B",
"w  c #1A2A2F",
"e  c #162431",
"r  c #172934",
"t  c #1A2936",
"y  c #172739",
"u  c #1A2739",
"i  c #1C2C3B",
"p  c #1D313E",
"a  c #212C37",
"s  c #20223D",
"d  c #212D3D",
"f  c #20303E",
"g  c #1E2E41",
"h  c #1F2B48",
"j  c #1E3243",
"k  c #1E364B",
"l  c #1F3A4E",
"z  c #212E42",
"x  c #212F49",
"c  c #203442",
"v  c #203844",
"b  c #22374D",
"n  c #29324D",
"m  c #243A4E",
"M  c #293C4E",
"N  c #283750",
"B  c #233952",
"V  c #253850",
"C  c #293D55",
"Z  c #263E5B",
"A  c #2A3E5A",
"S  c #2A3E60",
"D  c #303F62",
"F  c #264154",
"G  c #294156",
"H  c #2C4054",
"J  c #26415B",
"K  c #2C485F",
"L  c #32425D",
"P  c #274562",
"I  c #2B4463",
"U  c #2C4965",
"Y  c #2C466A",
"T  c #2D4B6B",
"R  c #324860",
"E  c #314668",
"W  c #314B6B",
"Q  c #2C506D",
"!  c #33516F",
"~  c #2F4D74",
"^  c #364B70",
"/  c #2E5372",
"(  c #325274",
")  c #33547A",
"_  c #365C86",
"`  c #385A88",
"'  c #3D608D",
"]  c #3D6292",
"[  c #426B99",
"{  c #486B9C",
"}  c #486DA7",
"|  c #028791",
" . c #038B95",
".. c #028F98",
/* pixels */
"= = > 3 i i e 9 e t 9 t e t 9 e e e r 4 i 4 t e e 9 r 9 j   2     3 7 3 3 3 4  .= A b d i A ; i e e e p O = $ b u A i b C c e V ",
"V Y 9 $ i i e 9 e t 9 t e t e e e e e 3 i 9 r e e 9 e e j . <   . . + $ $ $ =  .+ 4       . V k 9 e e f O ,   3 + 3 $ = 2 = $ - ",
"= 3     m V c i j b i c z m g c b v b t m i b c c j c j G   <   . [ G m V Z Z m V V G b k ( i G 3 e i c O -   7 > 0 2 3 0 3 - 4 ",
"3 0 #   V . .             .   .   . O   .       .   .   . - 3     b G V V A J b V A I b b ~ Z i 4 V  .l . -   4 > t 2 3 e 2 ; 7 ",
"3 0 # +   < < - ; < - ; - < - < > > - - < - - - ; ; < ; - - 4     c 9 3 3 4 9 3 3 3 9 3 > 9 > 3 t j  .G . -   4 - 0 > 3 9 3 - 9 ",
"3 0 #   Z                                                     O   k i e e i i < 9 i k 9 e i 9 e u e  .V O -   4 - e , 3 0 3 - 9 ",
"e d -   b > > , , 9 ; 3 2 3 2 3 3 3 3 - 9 ; 3 3 3 2 2 ; 3 2 9 $   b i e 9 t g i e i + i 9 i 9 9 u r  .V O ;   t 3 d 0 e i e 3 a ",
"    .   I 0 t e + $ $ = = : = : = : = + > + = : $ = = 3 i t d -   b i e e t 3 c b 3   g 4 i 9 e i r  .F . 2             .       ",
". O   $ >   . . ] U c A V Z V A Z J V j I b A J V Z T t           m i e 0 i 7 t i O $ i 9 i 9 9 t i ..J . 3   . + . X . . O   . ",
"3 $ $ - $ . . . m ^ k G V I V J G G Z b U b G Z V T 7 .       .   c i 0 0 i 4 O $ , $ i 9 i 9 9 i 9  .J . 3   . $ - = - > $ O 4 ",
"= W V I I I I I < r , 9 3 9 6 3 9 9 3 - e > 9 4 3 i   - > I m # % j i e 4 c   $ + O   z 4 p 9 9 m  . .J . 3   ! b ^ A I U V A e ",
"- e + = - = > . t i 9 i e i e e i e t > j 3 i t g c . <   < . + - i i e 9 e m e z c b 9 9 i 9 9 e b m i O 3   u + 2 = - - $ - O ",
"> g - 4 0 4 3 $ i b 7 z i e i i i i i g u i i b  .V . -   9 ,   $ b V c f j m y c c m d i M j i c b c G . 3   z = e 3 4 0 7 4 $ ",
"O e . $ $ $ + . G Z 4 9 j e r t t r r t t t j i ..G   -   9 -   - j   .   O .     O .     O         .   ; 3   z - = + & = + =   ",
"C V m I I G A P b I i  . . . . . . . . . . . . . .G   -   4 -   4   2 - - ; 4 2 < - < , - 1 - - < < < < < e   z   [ I Z I A k ! ",
"J Z V P I Z G G I c < V j V b c m m V e G j b m j c . -   9 -   > h           O   #       .             o     b   m W Z I Z b U ",
"7 4 3 0 0 3 < 3 3 e e i e u e e t e t 3 j 9 t u 9 c O ,   9 O .   e + + $ = O | O e + O O $ O + O + $ O 2 .   G . j e 7 9 7 < 9 ",
"t t e i i e t 9 e i 9 i 9 i e e i e i 4 g 9 i i 4 c . -   O } T V V Z F V G ! J G J I V V T m Z V I I A ) b   V O m i t i r 9 i ",
"t i e i i t t 9 e c 9 i e t e e i e i 0 i e e i 4 c . ;   = m A Z A V Z V V U b A G I V b W b V V I J T t .   k o m g e i e e p ",
"t i e i i t e g i O i i e i e t i e i 4 p e e i 9 m   - O  .j 9 3 9 9 9 3 3 e 3 3 9 9 3 3 j ; 7 3 7 9 t   3 O | O b i e i e 9 i ",
"t t e t i t i 4 I   i i e i e t i e i 9 c e t i 9 m . -   - m y e e t t e e i 0 e i t g k  .i e e i i c O 3   j O b g e i e 9 i ",
"e e e i i e j <   $ p i e i 0 t i e i 9 j 0 t i 9 m . - . - c i e i t t e t i 0 e t g 9 j ..c r e t i c O 3   b + b i e i e 9 i ",
"c b c m V c G   < . p i e i e t i e i 9 j 0 t d 9 m   -   - c i e e e t e t i 9 e e V  ... .c r e i i c O 3   b o V G b V c p V ",
".   .   O . . $ - V 9 i e i e t i e i e i 0 t i 9 m   -   - c i 9 e e e e t i 9 e t i j p G 9 t 9 i u c O 3   b = V . . . .   O ",
"< - , < 3 , ; 2   3 t i e i e t i e i 7 m 0 e i e m   - O 3 b m j b c b g i i 9 e i i 9 3 m i c z m b G . 3   b >   2 < < < - 4 ",
"  @         .   , 0 e i e i e t i e e m  .p e i 9 m   3     G . O . .   O i g 9 e t i 9 e 9         O   < 3   b : t O     .     ",
"> i - 3 4 3 1 $ i j 9 i e i e t i e t j  .b e g 9 m   3   . = - 3 - < <   < j 9 e i i 0 c   = 3 3 3 9 3 9 e   z = e 3 3 3 < 3 # ",
"3 z > 4 e 3 9 - i b 9 i e i e t i e d 9  .c 0 j 9 m . <   - #     %     , 0 c 9 e i i 0 c O 3                 x = e 0 9 0 3 9 $ ",
"> g > 4 0 3 4 - u c 9 i e i e t i t i e  .c 0 j 9 m . $ , C E c V y - - i j i 9 e i i 0 d # <     + O + .     V + e 4 3 4 3 9 $ ",
"+ e o $ = $ - - c j 9 i e i e t i t d e  .v 9 c 9 m . -   = > = - 3 4 > i i i 9 e i i 0 z # -   : - + O - O . g   - $ $ $ + - . ",
"I V V J U I T   k j 9 i e i e t i e t i  .j e j 9 m . -   < 0 3 3 3 3 > i i i 9 e t i 0 d $ * : b G _ G T J V G g T G J I A b ( ",
"J I V G ] 7     b j 9 i 0 i 9 t i 0 e G  .b 9 j 9 m . -   < 0 3 3 3 3 > i i i 9 e t i 9 f # -   $ + h I T A V T g / I J I Z V U ",
"9 7 e e + . 3   k c 9 t V V k k j V V l  .c 9 c 9 m . -   < 0 3 3 3 3 > g V m d j b V p C O -   > 3 i 9 0 7 > j = t 3 9 9 3 > e ",
"t i 4 i + - <   b c 4 C  . . . . . . . . .c 9 c 9 m . -   < 0 3 3 3 3 3 j   +   X   +     3 -   > 3 g t i i k  .t j t t i e 9 i ",
"c G   $ < % <   b j 9 i c V j m V j F i U 4 e c 9 m . -   < 0 3 3 3 3 0   - 4 < - , 3 > - 4 <   2 3 g i c 9 j  .i g g m m c p V ",
".   - - - - <   c c 9 i e i 9 e i 0 i 3 c 9 e g 9 m . -   < 0 3 3 3 3 4 4 +   O $             + > 3 g i C  . . .i b 9   . .   O ",
"< - , < < , 1   i b 9 i e i e t i e i 9 c 9 e g 9 m . -   4 $ + $ $ + = $ = O | u O = O + 4 > 3 3 > z i i m j J 3 J   - 4 < - 4 ",
"  @             i b 9 i e i e t i e i 9 c 4 e g 9 m . -   O ] J V A Z A V Z ( G V I T C I i : 4 3 > z i i e 9 g 3 A   4         ",
"> i - 3 4 3 < $ y c 9 i e i e t i e i 9 c 9 e i 9 m . -   $ b L V Z J J C J Y b Z A U I 7 . X 3 3 > g i i t 9 g 3 Z   <   2 4 $ ",
"3 z > 9 e 3 9 - i c 9 i e i e t i e i 9 c 9 e i 9 m . -   - j 9 3 9 7 4 3 7 9 3 3 7 9 t   4   3 3 > g i i t 9 g 3 Z   <   3 e $ ",
"> g > 3 0 3 9 - i c 9 i e i e t f 9 p t j 9 e i 9 m . -   - c i e e e t 9 t g 0 j e i j   4   2 3 > j i i t 9 g 3 A   <   3 9 $ ",
"> g > 4 0 3 9 - i c 9 i e i 9 u i i i O m 9 e i 0 m . -   - c i 9 V V j b k k m  .j i c   4   2 3 ; g i i t 9 g 3 V   <   3 9 $ ",
"> i > 3 0 2 3 > i c 9 i e i e t 3 V 3   C 9 i i e b   - . 3 c y b  . . . . . ... .m i p   4   , 3 - f i p t e i 3 C . <   3 0 # ",
"> b 8 i d e e 3 i g 9 i e i e i < e O O F 7 i i e c   3     G i 9 m b m j m F i k e i j   3   9 e 5 j V V c p V u !   < . 9 d - ",
"5 $   .         m c 9 i e i 9 g 3 i # O V 3 t i 9 m   3     G u 9 i e t 9 t i 9 e t i j   9         C . O .   +   . > 9       . ",
": 3 $ O .     . b g 9 i e i 9 i 3 i # O V 7 i i e m . <   O c i 4 t e e 9 e i 4 t u i z   4     . . O $ ; - = , $ - - 4         ",
"Y t = O { G U E 3 g 9 u e i e i 3 b # O M 9 i i e m . $ 3 A r e 9 t e i 9 e g 9 e i i j   - - V I ( s X                 3 A I ^ ",
">   O > g + = + i j 4 i e i e j 4 O ; O m 4 i i 9 m   ,   O b u e i e i 9 e i 9 e i t z   <   = = O Q T ! G Z ( b ( P R G ; . ; ",
"0 $   - V : 4 = i i 9 i e i e m   + O   V 4 i i e v . -   - c y 0 t e i 9 e i 9 9 t i j   <   , 7 = b A I V b I g T A ~ q   . 5 ",
"0 $   - b ; 3 = i g 9 e e i 9 e m c b e c 9 i t e b O -   - c e 0 t 9 t 9 e i 9 e e i p   <   3 3 > t 9 9 3 3 0 - e 4 i   ,   9 ",
"0 =   - b = 3 $ i j 9 i e i 9 u u e e 3 c 4 p t e m . - . = m b j b j b d b m d c b m V   <   3 7 > g e p 0 0 i 9 i t c O -   0 ",
"0 $   ; V - 3 = i i 9 i e i 0 t t t e 4 i 9 i t e m . -   - c   .     .   . O     .   . = <   3 3 > i u i 9 e i 3 i i c O -   9 ",
"0 $   > b > 3 > t j 4 i e i 9 e t i e 3 i 4 i t 9 b   - o 4   < 3 - , ; , ; < - - ; < - - 4   3 7 : j m V f z V i C c G   -   9 ",
"e $   - n ; 3 & p V i m j m z b m c c i m d m b j K   -   2 0     $                         $ 3 3 3 i   O .   .   O .   - -   9 ",
"0 $   - b = 3 > p   . . X . . X . .     O .   . X   ; -   2 e +   g - 3 - 3 4 - ; 3 2 - , 3 ; 4 < 4 - - < - - < - 3 , ; - <   4 ",
"0 $   - b - 3 5   , ; , - < - - < < ; - , - < < - < - <   , w $   N > 9 3 7 e 3 3 9 0 4 3 e . $ + = +             O .       $ 0 ",
"0 $   = b - 3 3 4 +                                     $ 3 9 $   b - 3 2 3 5 > 3 3 4 3 - = ) G k S I G ` c O < - < < , 2 - - 8 ",
"0 $   - e   $ + + + O $ + + O + $ + + + + O $ # + $ + O $ + 0 $   b = 4 3 3 9 > 3 3 3 2 ; > r D V V Z I a   . $ O = $ $ O + $ 7 ",
"0 $   O ' J V V V G G W U T G U T U T b T V ( W / A G b I U e .   b - 3 3 3 9 2 3 3 4 3 - 2 9 9 > 3 3 t   ;   - - 3 3 ; > - > 4 ",
"0 $   $ b E Z m V I i j i i j i i i i j i j i j  .) Z b ~ 7 .     b - 3 3 3 5 - 3 3 3 3 < 3 e i 9 e e c O -   4 3 0 9 3 4 3 3 7 ",
"d $   - j 9 3 3 3 p  . . . . . . . . . . . . . . .i 3 ; i   <     C 0 e 0 0 d 0 0 e e 0 4 0 9 i e e t c . -   9 9 d t 0 0 9 e e ",
"    X $ b t 0 9 e e j V c c j c b c m i b i m b j e t 9 m   <     >                         j i 9 t e c . ,   .                 ",
"O   $ = b e e 9 e t 9 e e t 9 t e t e 3 e 9 t e e e t 9 v   <   O - =     . + O   .   . O   c i 9 e t c . <   O   + O . .     O ",
"4 2 3 - j e e 9 e e e t e t 9 e t e t 9 i 9 i e e t e 9 c   3     2 3 3 3 3 e  .3 3 4 3 - 3 e i 9 e e c . -   3 3 4 9 3 3 2 4 4 "
};
