/* XPM */
static char *_62c767d05954f67a746412ce4824552IA68v3VYvJyKkGiB[] = {
/* columns rows colors chars-per-pixel */
"64 64 179 2 ",
"   c None",
".  c #030304",
"X  c #080405",
"o  c #040806",
"O  c #090905",
"+  c #040509",
"@  c #09060A",
"#  c #050A0B",
"$  c #0A0B0C",
"%  c #100F0F",
"&  c #050511",
"*  c #060D12",
"=  c #0B0D13",
"-  c #0D0F19",
";  c #100E10",
":  c #071015",
">  c #0D1215",
",  c #0D141C",
"<  c #0E181E",
"1  c #121214",
"2  c #11151C",
"3  c #12191D",
"4  c #0D1621",
"5  c #0E1922",
"6  c #0F1C28",
"7  c #121622",
"8  c #131B24",
"9  c #1A1A26",
"0  c #141D2A",
"q  c #191E29",
"w  c #231F2F",
"e  c #0F2027",
"r  c #142025",
"t  c #192126",
"y  c #15222C",
"u  c #19222D",
"i  c #15292B",
"p  c #162432",
"a  c #192533",
"s  c #172934",
"d  c #1A2936",
"f  c #172739",
"g  c #1A2639",
"h  c #162A3A",
"j  c #1C2C3B",
"k  c #1D313E",
"l  c #222631",
"z  c #212C37",
"x  c #20223D",
"c  c #212D3D",
"v  c #21303E",
"b  c #1D2E41",
"n  c #1F2B48",
"m  c #1E3242",
"M  c #1E364B",
"N  c #1E354A",
"B  c #202F42",
"V  c #212E42",
"C  c #212F49",
"Z  c #203442",
"A  c #203044",
"S  c #223246",
"D  c #223746",
"F  c #223445",
"G  c #283546",
"H  c #203844",
"J  c #263947",
"K  c #293A45",
"L  c #203149",
"P  c #203449",
"I  c #21364A",
"U  c #24354A",
"Y  c #22374D",
"T  c #22354A",
"R  c #29324D",
"E  c #233849",
"W  c #253B4A",
"Q  c #22384F",
"!  c #243A4E",
"~  c #25394E",
"^  c #253C4F",
"/  c #24394B",
"(  c #293A4C",
")  c #243551",
"_  c #233951",
"`  c #223952",
"'  c #263851",
"]  c #203C52",
"[  c #233D52",
"{  c #253D53",
"}  c #223857",
"|  c #233C56",
" . c #263E54",
".. c #243B53",
"X. c #293A52",
"o. c #2B3F56",
"O. c #293D53",
"+. c #263E58",
"@. c #273E5A",
"#. c #253E5A",
"$. c #2A3B59",
"%. c #2A3E59",
"&. c #2B3E5D",
"*. c #2A3E5A",
"=. c #2A3E60",
"-. c #303F62",
";. c #0C595E",
":. c #264157",
">. c #2C4054",
",. c #2F4355",
"<. c #2B4255",
"1. c #25415C",
"2. c #26415C",
"3. c #2B405E",
"4. c #2A415D",
"5. c #2F435E",
"6. c #2B435C",
"7. c #2C485F",
"8. c #31475A",
"9. c #0E5D64",
"0. c #105E66",
"q. c #274562",
"w. c #294264",
"e. c #2B4463",
"r. c #2C4965",
"t. c #2C466A",
"y. c #2E476A",
"u. c #2D4B6B",
"i. c #314365",
"p. c #324860",
"a. c #314668",
"s. c #344A6D",
"d. c #2C506D",
"f. c #33516E",
"g. c #2E4E72",
"h. c #2F4D74",
"j. c #364B70",
"k. c #2F5172",
"l. c #325274",
"z. c #345574",
"x. c #34547B",
"c. c #39577A",
"v. c #0E6068",
"b. c #0E696F",
"n. c #126069",
"m. c #365C86",
"M. c #385A88",
"N. c #3D608D",
"B. c #3D6292",
"V. c #426B99",
"C. c #436A9E",
"Z. c #486B9C",
"A. c #486DA7",
"S. c #00C7C7",
"D. c #00CDCD",
"F. c #00D5D5",
"G. c #00D8D7",
"H. c #00D7D8",
"J. c #00DADA",
"K. c #00E1DF",
"L. c #00E2E2",
"P. c #00E8E7",
"I. c #04EDED",
"U. c #07F1EF",
"Y. c #08F0EF",
"T. c #03F5F5",
"R. c #09F5F6",
"E. c #04F7F8",
"W. c #08F7F8",
"Q. c #0AFAFA",
"!. c #D5D6D6",
"~. c #D9D9DA",
"^. c #DADDDD",
"/. c #DFDEDE",
"(. c #DDDEDE",
"). c #DEDFE0",
"_. c #DFE0E1",
"`. c #E0E0E1",
"'. c #E1E1E1",
/* pixels */
"> > 2 8 j j p y p d y d a d y f f f s 0 j 0 d a f y s y m . 7 . . 8 r 8 8 8 u /.1 &.Y c j $.< j a a a k O : = P g &.j L o.S f ' ",
"' t.y = j j a y p d y d a d a a a f f 0 j y s a f y a p m + 5 . @ @ $ $ $ $ 3 ~.1 0 . X . @ | N y a p v # 4 . 8 $ 8 = > 7 : = , ",
"> 8 . . ! { Z j m P j D B E b D D H S d W j P Z S m S m >.. 5 . @ V.4.Q ` #.#.! ` [ 4.P N l.j 4.8 p m B O , . 8 2 u 7 8 u 8 < 0 ",
"8 u * . [ @ @ . . . . . . + . + . . @ . @ . . . @ . + . + , 8 . . Y 5.} ` &.1.m | &.w.P U g.#.j 0 X.^.W + < . 0 2 d 7 8 a 7 < r ",
"8 u * $ . 5 5 < < 5 , < < 5 < 5 < < , , 5 , < < < < 4 < , < 0 . . Z y 8 0 0 r 8 0 0 y 2 3 y 2 8 d D '.>.+ < . 0 , u 2 8 y 8 < y ",
"8 u * . #.. . . . . . . . X . . . . . . . . . . . . . . . . . O . N j a p j j 5 y j D y p j y p f d ).6.# < . 0 , a 4 8 y 8 , y ",
"p c : . Y 2 7 < 4 y < 0 7 8 7 0 0 8 8 < y < 8 8 8 8 7 < 7 7 y = . P j p y d b j s j $ j y j y y f j ).o.# < . d 8 c u a j a 8 z ",
". . + . e.u d a $ = = > > 1 : 1 > 1 > $ 1 $ > 1 = > > 8 d d c , . P j a p d 8 S L 8 . n 0 j y p d j /.,.+ 7 . . . . . . + . . . ",
"@ O . = 2 . + @ B.r.S &.' #.| &.#.1.| m e.P &.2.' #.y.d . . . . . E j a u j 0 d j O = j y j y y d j ).6.+ 8 . + $ + o @ X O X . ",
"8 = = , = . . + H s.N 4.| e.' 1.6.4.#.L r.L 4.#.' u.r + . . . @ . Z j u u j 0 O = 4 = j y j y y j l '.6.+ 8 . + = 2 : : 2 - $ 0 ",
"> s.{ e.e.e.r.e.0 i 4 y 8 y e 8 y y 0 , y 3 y 8 5 j . : 3 e.! = = m j a 0 D . = * # . n 0 k y y W ^._.6.+ 8 . f.L j.&.e.r.| o.f ",
", f $ > < > 1 @ d j y d p j a f j f d 3 m 0 j d m D + 5 . 3 @ $ , j j p y a ^ f B S P y y j y y p ( W j O 0 . g $ 7 : , , - , O ",
"2 b , 0 y 0 8 - j G r b j s j j j j f j g j f U ^.o.@ , . y 4 . = D ' D Z m ( g Z D E c j ( m j Z L N :.+ 8 . C > a 0 0 y r 0 = ",
"@ a X = = = $ + 6.#.y u Z d j d d d d j j d Z F '.8.. < . y < . < m . + . O + . . # + . . # . . . . + . < 8 . C , > $ ; > $ > . ",
"o.{ Q e.e.6.&.q.S e.j ~._././././././././././._.).5.. < X 0 < . 0 . 7 < , < 0 < 5 < 5 4 , 6 , < 5 5 5 5 5 p . C . C.e.#.e.&.N f.",
"2.#._ q.e.#.6.6.e.Z 5 o.U >.W W O.W >.d 5.D ! ( Z D @ < . y , . 3 n . . . . . $ . = . . . X . . . . . . O . . I X Q s.#.e.#.L r.",
"r 0 8 u u 0 6 8 8 p a s a f p s s p d 8 k y s g y D @ < . y + . . a $ $ = > 1 !.$ a $ # # - @ $ # $ = # 7 + . 6.. m p r y r 5 y ",
"d d p j j f d y f j y j y j s a j a j 0 b y j j 0 D @ < . O A.y.{ ` #.:.| 4.f.e.4.1.r.` ' u.Q #.` e.e.&.x.P . ' X E j d j s y j ",
"d j a j j d f u p D y j f d p f j a d u j p f j 0 D @ < . 3 ! &.#.&...#...| r.N &.6.e.' P y.Y | ' 4.1.t.d + . ) X Y b f j f p k ",
"d j a d j d a b j # j j a j f d j a d 0 k p a j y Q . , ; !.U e 8 y y 0 8 0 y 8 8 y y 8 8 D < r 8 r y d . 0 $ !.1 P j f j f y j ",
"d d f d j a j 0 r.. j j a j f d j a j y Z a d j y E @ < . 3 E j a a d d s a j u s d d b P ^.F p a j j Z # 8 . U @ P b a d f y j ",
"f f a j j a m 5 . = k j a j u d j a j y m u d j y W + < X : S j p j d d a d j y f d B u ( '.G p a d j Z # 8 . L $ P j f j f y j ",
"D P Z E ..Z 6.. 5 . j j a j a d j a j y m u d c y W . < . , S j y f f d a d j y f p { ^.'.).G y a j j Z # 8 . L O [ 6.P Q D k ' ",
"+ . + . # + . = , | y j a j a d j a j y j u d j y W . < . : S j y a a f p d j y f d j D v 5.y d y j g Z # 8 . L > ` @ + @ + . O ",
"5 < 4 5 0 4 < 7 . 8 d j a j a d j a j r O.u a j p W + < @ 0 U Q m D D P b j j y f d j y 0 P j D B E U 6.@ 8 . L 3 . 2 5 8 5 < 8 ",
". & . . . . X . 4 u a j a j a d j a s X.^.Z p j y W . 8 . . :.@ O + @ . O j b y f d j y f y . . . . # . 5 8 . G > d # . . X . . ",
"2 j , 8 0 8 6 - j m y j a j p d j a d P ).( p b y W . 8 . X : < 8 < 5 5 X 5 D y f d j u Z . : 8 8 0 y 8 y p . C > s 8 0 0 5 8 * ",
"8 C 3 0 a 8 y , j P y j a j p d j a j a /.W y m y W + 5 . , * . . - . . 4 u Z y f d j u v # 8 . . . . . . . . C > f y y u 8 y = ",
"3 b 2 0 u 8 0 , f D y j a j p d j d j d /.J y m y W + = 4 X.a.S ) f , , j m j y f d j u c * 5 . . $ X X @ . . | $ f 0 8 0 8 y = ",
"$ a O - > = , , D m y j a j p d j d j a /.K y Z y U + < . : 3 > < 8 0 3 j j j y f d j u B * < . > , $ # , $ @ n . < = = - $ > . ",
"e.{ ..1.r.e.u.. N m y j a j p d j a d c /.D u m y W + < . 5 u 8 8 8 8 2 j j j y f d j u c = : 1 I 6.m.5.s.1.{ 5.n u.4.1.e.&.P f.",
"1.e.[ 4.B.r . . U m y j y j y d j y p 6.).W y Z y W + < . 5 u 8 8 8 8 2 j j j y a d j y v * < . - O b e.y.&._ u.b k.e.1.e.#._ r.",
"r r f p $ + 8 . N D y j X.O.U U D X.o.O._.G y S y E @ < . 5 u 8 8 8 8 2 b | ! c S D ' k O.# , . 7 8 j y u r 3 L > d 8 y y 8 3 p ",
"d j 0 j $ , 5 . P S 0 O.^._./././.).)._.).F y Z y E @ < . 5 u 8 8 8 8 8 m . $ . o . $ . . 8 , . 7 8 b j j j L ^.j m d d j f y j ",
"D 6.. = 5 - 5 . P S y j W :.D ( o.D :.c r.0 p Z y E @ < . 5 u 8 8 8 8 u . < 0 4 , < 8 2 , 0 5 . 7 8 b j S y ( '.v b b ! Q D k ' ",
"+ . , , , , 5 . Z S y j y j y f d y j 0 m 0 u b y P @ < . 5 u 8 8 0 8 0 8 $ . $ = . . . . . . $ 2 8 b s o.^.'./.j Y y . @ + . O ",
"5 < 4 5 5 4 6 . j P y j a j p d j a j u u a a a a q a 8 a a u 8 a a a a q a q a a a a y y p 3 8 8 2 B j j ( D 4.8 2.. < 0 5 , 0 ",
". & . . . . . . j P y j a j p d j a 8 W.T.T.T.T.T.T.T.E.T.T.T.E.T.T.T.T.E.E.E.E.T.E.T.T.Q.8 1 0 8 2 B j j p y j 8 &.. 0 . . . . ",
"2 j , 8 0 8 6 = h D y j a j p d j a q I.H.J.G.G.G.L.L.L.G.G.G.H.J.G.G.G.L.J.J.J.G.G.J.G.W.8 o 8 8 2 b j j d y b 8 #.. 5 . 7 0 = ",
"8 C 3 y a 8 y , j D y j a j p d j a q T.J.J.J.J.J.L.L.L.J.G.J.J.J.J.J.G.L.L.L.J.J.J.J.J.W.8 . 8 8 2 b j j d y b 8 #.. 5 . 0 a = ",
"3 b 2 8 u 8 0 , j D y j a j a d v y q T.J.J.J.G.J.L.L.L.J.G.J.J.J.J.J.G.L.L.L.J.G.J.J.G.W.8 . 7 8 2 b j j d y b 8 &.. 5 . 8 y = ",
"3 b 2 0 u 8 0 , j D y j a j y g g f q U.G.J.J.G.J.J.J.J.G.J.J.J.J.J.J.G.J.J.J.J.G.J.J.G.R.8 . 7 8 2 B j j d y n 8 | . 5 . 8 y = ",
"2 j 2 r u 7 8 1 j Z y j a j p d 8 ! q U.G.G.J.G.G.J.J.J.G.G.J.G.G.J.J.F.J.J.J.G.G.J.G.G.R.8 . 4 8 2 v j k d p j 8 o.@ 5 . 8 u * ",
"3 Y t j c a a 8 j b y j a j p j 5 a 9 Y.F.G.J.F.G.J.J.J.F.G.J.G.G.J.G.D.J.J.J.G.F.J.G.F.R.8 . y f q m [ ' S k | g f.. 5 @ y c , ",
"q = . + . . . . ! Z y j a j y b 8 j 8 I.H.G.J.F.F.H.G.J.F.F.G.J.G.H.G.D.J.G.G.F.F.G.G.F.R.8 . . . . X.@ @ + . $ . + 2 y . . . + ",
"2 8 = @ @ . . @ P b y j a j y j 8 j q I.J.G.G.D.F.G.G.G.D.F.G.J.J.G.F.D.G.G.G.F.D.G.G.F.R.8 . . . @ # = < , > 4 = < , 8 . . . . ",
"t.d > # Z.4.r.a.0 b y g p j p j 8 S 8 I.J.F.G.D.D.G.F.G.D.D.F.J.J.G.F.S.H.F.G.D.D.F.J.G.R.8 < ..r.z.x o . . . . . . . . 8 $.r.j.",
"2 . # 3 n $ > $ j m 0 j f j p m 0 # q I.J.F.G.D.D.G.F.H.D.F.G.J.J.H.F.S.J.F.G.D.D.F.J.G.R.8 . : : O d.y.f.6.#.f.P c.q.p.4.< @ < ",
"u = . , ) 2 0 > j j y j a j p W . $ 8 E.I.P.P.J.J.L.L.P.G.J.L.I.P.P.K.G.P.K.P.J.J.L.P.P.W.8 . 4 r > P &.e.} P r.b u.&.g.i . @ q ",
"u = . , Y < 8 1 j b y f a j y f W S 0 v.0.9.9.9.9.0.9.9.9.0.9.;.;.9.9.9.n.9.0.9.9.9.9.9.b.0 . 8 5 2 d y y 0 8 u < a 0 j . 4 . y ",
"u : . , Y > 8 = j m y j a j y g g s 0 1 9 2 9 7 2 u @ - @ = 9 w w 9 9 q 9 q u 9 q q q u X 8 . 8 r 1 b f k u y j y j d S O < . u ",
"u = . , ) , 0 > j j y j a j u d s d f 0 j y j d a E @ , . < f - = = . @ . + + . . + . + > 5 . 8 8 2 j g j p a j 8 j j Z O < . y ",
"u = . 1 Y 2 8 , d m 0 d p j y f d j s 0 j 0 j d y P . , O 0 = , > < 4 < 4 < 5 < , < 5 , < 0 . 8 r 1 m P ' v B [ j o.D 6.. , . y ",
"u = . , R < 8 - k | j W m ! B P E D D j Q c Q P m 7.. , . 7 0 , > , . . . . X . . . . . . . = 8 8 8 j . O + . @ . # + . , < . y ",
"y = . , P > 8 2 k . + @ o + + o + @ . . O + . @ o . < , . 7 0 , > a , 8 , 8 0 < < 8 8 < < 8 < 0 5 0 < , 5 < , 5 : 8 4 < < 5 . 0 ",
"u = X , I > 8 q . 4 < 4 < 5 , < 5 5 < , 4 , 5 5 < 5 < 5 . < y , > j 2 y 8 r a 8 8 y y 0 8 a @ $ $ > $ . . . . X . O X . . . = y ",
"a = X , Y , 8 8 0 $ . . . . . . . . . . . . . X . . . . = 8 0 , , d , 0 7 8 q 2 8 8 0 8 < > x.5.M =.e.5.M.N $ 5 , 5 5 4 7 , , t ",
"u = . < a . = $ $ $ O = $ $ # $ = $ $ $ $ # = * $ = $ O = $ 0 , , f > 0 3 8 y 2 8 8 8 7 < 2 s -.` ' #.w.z . + = O > = = $ $ = r ",
"u = . O N.2.` ` | 6.#.u.q.t.#.r.u.q.t.P u.` k.u.z.&.6.Y e.r.y , , g , 8 8 8 y 7 8 8 0 8 < 7 y y 3 8 0 d . < . , , 8 7 , 2 , 2 0 ",
"y = X = P i.#.Q | w.c U c c S B c B v D v G j K ).c.} L h.8 > , , f < 8 8 8 q , 8 8 8 8 < 8 f j y f a D # < . 0 8 u y 8 0 8 8 r ",
"c = X , m y 0 8 8 v ^.'./././././././././././._.^.j 0 < j . 8 , , j y a u u c u u a a u 0 u y j y a d D @ < . y y c d u u y a f ",
". . o - D d u y a s D O.G J D J ( ( W j ( v X.( F s d y Y . 8 , , 8 . . . . . . . . . . . . m j y d a D @ 4 . + . . . . . . . . ",
"@ . = > P f f y p d y a p d y p p d p 0 s y d p p s d y D . 8 > = 8 > . . + $ 1 . @ . @ o . S d y f d D @ 5 . @ . $ @ + @ . . @ ",
"0 7 8 , m f a y s a p d a d y f d s d y j y j a a d a y D . 8 y y 8 8 8 8 4 a ^.q 5 0 8 < 8 a j y f a D @ < . 0 8 0 y 8 8 7 0 0 ",
};
