/* XPM */
static char *_16047d0700f41baeb322997f5169157kL6A8ZKBet9u1ulj[] = {
/* columns rows colors chars-per-pixel */
"64 64 167 2 ",
"   c #030304",
".  c #090405",
"X  c #040806",
"o  c #090905",
"O  c #040509",
"+  c #09060A",
"@  c #050A0B",
"#  c #0A0B0C",
"$  c #0E1003",
"%  c #121306",
"&  c #131209",
"*  c #151A0F",
"=  c #050511",
"-  c #060D12",
";  c #0B0D13",
":  c #0D0F19",
">  c #150D15",
",  c #170D18",
"<  c #190E1A",
"1  c #071015",
"2  c #0D1215",
"3  c #0D151C",
"4  c #0E181E",
"5  c #111315",
"6  c #161A13",
"7  c #11151C",
"8  c #11191E",
"9  c #1C1C1E",
"0  c #0D1621",
"q  c #0E1922",
"w  c #0F1C28",
"e  c #121622",
"r  c #131B23",
"t  c #141D2A",
"y  c #191F2B",
"u  c #0F2027",
"i  c #142025",
"p  c #1A2126",
"a  c #15222C",
"s  c #19232D",
"d  c #15292B",
"f  c #1D292E",
"g  c #162432",
"h  c #192533",
"j  c #172934",
"k  c #1A2935",
"l  c #172639",
"z  c #1A2639",
"x  c #162A39",
"c  c #1C2C3B",
"v  c #1D313E",
"b  c #232927",
"n  c #232A2F",
"m  c #202C37",
"M  c #20223D",
"N  c #212E3D",
"B  c #253136",
"V  c #22313C",
"C  c #2A383A",
"Z  c #1D2E42",
"A  c #1F2B48",
"S  c #1E3242",
"D  c #1E344A",
"F  c #212E43",
"G  c #212F49",
"H  c #203044",
"J  c #223246",
"K  c #223444",
"L  c #223745",
"P  c #203746",
"I  c #243843",
"U  c #203844",
"Y  c #263A44",
"T  c #253C45",
"R  c #293A44",
"E  c #203149",
"W  c #203449",
"Q  c #22354A",
"!  c #24354A",
"~  c #22374D",
"^  c #29324D",
"/  c #233849",
"(  c #263A4A",
")  c #22384F",
"_  c #243A4E",
"`  c #253C4F",
"'  c #293C4B",
"]  c #293B4E",
"[  c #243551",
"{  c #233951",
"}  c #223952",
"|  c #253850",
" . c #243B53",
".. c #233D52",
"X. c #253D53",
"o. c #223857",
"O. c #233C56",
"+. c #2A3D53",
"@. c #2B3F56",
"#. c #263E58",
"$. c #253E5A",
"%. c #2A3B59",
"&. c #2A3E5A",
"*. c #2B3E5E",
"=. c #2A3E60",
"-. c #303F62",
";. c #2B404D",
":. c #264157",
">. c #2B4354",
",. c #2C4054",
"<. c #26415C",
"1. c #2A415D",
"2. c #2B435C",
"3. c #2B405E",
"4. c #2F435E",
"5. c #2C485F",
"6. c #304450",
"7. c #314855",
"8. c #274562",
"9. c #2B4463",
"0. c #294264",
"q. c #2C4965",
"w. c #2C466A",
"e. c #2E476A",
"r. c #2D4B6B",
"t. c #314365",
"y. c #324860",
"u. c #314668",
"i. c #344A6D",
"p. c #2C506D",
"a. c #33516E",
"s. c #2E4E72",
"d. c #2F4D74",
"f. c #364B70",
"g. c #2F5172",
"h. c #355573",
"j. c #325274",
"k. c #395676",
"l. c #34547B",
"z. c #DEEA33",
"x. c #DEEB35",
"c. c #E0EB35",
"v. c #E3F333",
"b. c #E4F231",
"n. c #365C86",
"m. c #385A88",
"M. c #3D608D",
"N. c #3D6292",
"B. c #426B99",
"V. c #436A9E",
"C. c #486B9C",
"Z. c #486DA7",
"A. c #03878C",
"S. c #049195",
"D. c #00ADAD",
"F. c #00B4B4",
"G. c #00BCBC",
"H. c #00C0BF",
"J. c #00C4C4",
"K. c #00C8C7",
"L. c #00C7C8",
"P. c #00CACA",
"I. c #00D1D1",
"U. c #00DCDC",
"Y. c #00E3E3",
"T. c #00EAEA",
"R. c #00F3F3",
/* pixels */
"2 2 7 r c c g a g k a k h k a l l l j t c t k h l a j a S   e     r i r r r p b.5 *.~ N c %.4 c g h h v + 1 ; W l &.c E @.J l | ",
"| w.a ; c c g a g k a k h k g h h l l r c a j h l a s s S O q   + + # # # ; 6 z.% t O .   + O.D a h g V @ 0   r # r ; 2 e 2 ; 3 ",
"2 r     _ X.K c S W c K F / Z K K U J k ` c W K J S J S ,.  q   + B.1.) { $.$.( { ..1.W D j.c 1.r g v F + 3   i 7 s e r s r 3 t ",
"r s -   ..+ +     O   O   O O O     +   +   O   +   O   O 3 r     ~ 4.| { &.<.D O.&.0.W ! s.$.c t ] x.T O 3   t 7 j e r h e 8 i ",
"r s - #   q 0 3 4 q 3 4 3 q 3 q 4 4 3 3 q 3 3 3 4 4 q 4 3 3 t     K a r r t i r r r s 7 8 a 7 r k I v.6.O 3   t 3 s 7 r a r 3 a ",
"r s - O $.O               .                                   +   D c h g c c q s c K a g c a g l f v.>.@ 3   t 2 h 0 r s r 3 a ",
"g N 1   ~ 7 7 3 0 a 4 r e r e r r r r 3 a 4 r r r e e 4 r e a ;   W c g s j Z c l c # c a c s a l k v.+.@ 4   k r N s g c h r m ",
"    O   9.s k g # ; ; 2 2 5 2 5 2 5 2 # 5 # 2 5 ; 2 2 r c k N 3   W c h g k r J E r   Z t c a g c k v.>.O e             O       ",
"+ +   ; 7   O + N.q.J &.| $.O.&.$.<.O.S 9.W &.<.| $.w.k       O   / c h s c r k c + ; c s c a a c c v.>.O r   O # O X + . + O + ",
"r ; ; 3 ; O   O / f.D 1.O.0.| <.:.1.$.E q.E 1.$.| r.i O     O +   K c s s c t + ; 0 ; c a c a a c b v.>.O r   O ; 7 2 1 7 : @ t ",
"2 i.X.9.t.9.q.9.r j 0 a r a u r a a r 3 g 8 a t q c   1 8 9.` ; ; S c h t K   ; # @   G t v a a Y z.c.:.O r   a.E f.&.9.q.O.&.l ",
"3 l # 2 3 2 5 + k c a k g c h l c l k 8 S r c k V K O q   8 + # 3 c c g s h _ l F J W a a c a a a ( ( c + r   l # e 2 3 3 : 3 + ",
"7 Z 3 t s t r : c J i Z c l l c c c l Z l c l K x.;.+ 3   a 0   ; K | K V S ] l K K / N c ] S c K E D :.O r   G 2 h r r s i t ; ",
"+ h . ; ; ; # O 1.$.a f V f k k k k k k k k V B v.7.  3   a 3   3 D   O   + O     @ O     @         O   4 r   G 3 2 # ; 2 # 2   ",
"@.X.) 0.9.:.&.8.J 9.m z.v.v.v.v.v.v.v.v.v.v.v.v.c.4.O 3 . t 3   t   e 3 3 4 t 0 q 3 q 0 3 w 3 3 0 q q q q g   G   V.9.O.9.&.D a.",
"<.$.{ 8.9.$.:.:.9.K q ;.K ;.Y Y ' T ;.k >.K ( ' V D + 3   a 3   8 A           $   ;       .         .   o     W . ) i.O.9.$.E q.",
"i t r s s r w r r g s j h l g l j g c r S a j l a K + 3   a @     h # # ; 2 % z.$ h # @ @ : + # @ # ; @ e O   :.O S g i a i q s ",
"k k g c c l k a l c a c a c l h c h c t Z s c c t K + 3   + Z.w.X.{ $.:.O.1.a.1.1.<.q.{ | r.) $.{ 9.0.&.l.W   | . / c k c j a c ",
"k c g c c k l s g K a c l k g l c h c s c g l c t K + 4   * _ *.O.&.| $.| O.q.D &.:.9.| W w.~ O.| 1.<.q.j O   _ . ~ Z l c l g v ",
"k c g k c k h Z c @ c c h c l k c h c t v g h c a ) O 3 % z.I a r a i r r r a r r a s r r K 4 i r i a k   r $ z.& ~ c l c l s c ",
"k k l k c h c t q.  c c h c l k c h c a J h k c a / O 3   6 U c h h k k l h c s l k k Z K z.V g g c c K @ r   K + W Z h k l a c ",
"l l h c c h S q   ; v c h c s k c h c a S s k c a Y O 3 . 1 J c a c k k g k c s l k F p C v.I g g k c J @ r   E # W c l c l s c ",
"K W J / | K 1.O q   c c h c g k c h c a S s k N a ( O 3   3 J c g l l k h k c a l l >.x.v.c.K g g c c J @ r   E o ..:.W ) K v | ",
"O   O O @ O   ; 3 O.s c h c g k c h c g Z s k c a ( O 3   3 J c a l l l g k c a l k c I B 4.a j a c z J @ r   E 2 { + O + O   + ",
"q 3 0 q r 0 4 e   r k c h c g k c h c i ] s h c g ( O 3 + r ! ) S W K W Z c c a l k c a t ~ c K F / ! :.+ r   E 8   7 q q q 3 t ",
"  O         .   0 s h c h c g k c h l ' x.V g c a (   r     :.+ + O +   + c Z a l k c s l a         @   q r   E 5 k +     .     ",
"7 c 3 r t r w : c S a c h c g k c h k K v.Y l Z a (   r   . 1 3 r 3 q q . q K a l k c s J   1 r r r a r a g   G 2 l r r r q r - ",
"r G 8 t h r a 3 c W a c h c g k c h c s v.Y a S a ( O q   3 -     :     0 p J a l k c s J @ r                 G 2 l s a s r a ; ",
"8 Z 7 r s r t 3 l K a c h c g k c k c k v.I a S a ( O ; 0 %.u.J [ l 3 3 c S c a l k c s N - q     # . . O   O O.# l t r t r a ; ",
"# h o ; 2 ; 3 3 K S a c h c g k c k c f v.I a J a ( O 3   1 8 2 3 r t 8 c c c a l k c s F - 3   5 3 # @ 3 # + Z O 3 ; ; : # 2   ",
"0.X.| <.q.0.r.O D S a c h c g k c h c c v.I s S a ( O 3   q s r r r r 7 c c c a l k c s N ; 1 5 W 1.n.4.w.<.X.5.Z r.1.<.9.&.W a.",
"<.0...1.N.i     ! S a c a c a k c a g ,.v.Y a J a ( O 3   q s r r r r 7 c c c a h k c s V - 3   : # A 9.q.&.{ r.Z g.0.<.9.$.{ q.",
"i i l g #   r   D K a c ] ] K K I ] +.;.v.I a J a / + 3   q s r r r r 7 Z :._ N J W | v +.@ 3   7 r c a s i 8 K 2 k r a a r 8 g ",
"k c t c # 3 q   W J t +.x.v.v.v.v.v.v.v.c.V g J a / + 3   q s r r r r r S O #   X   #     r 3   7 r Z k c z J z.k S k k c l s c ",
"K 1.  ; q : q   W J a c I >.V ' +.I B 9 n 5 5 r 5 r + # . : 7 ; > > > 7   ; 5 : # ; > ; # r q   e r Z c J p R v.V Z Z _ ) K v | ",
"O   2 3 3 3 q   K J a c g c a l c a r S.A.A.A.A.A.A.A.A.A.A.A.A.A.A.A.A.A.A.A.A.A.A.A.A.S.7   # 7 r Z l ,.x.v.c.c ~ a   + O   + ",
"q 3 0 q q 0 w   c W a c h c g k c h e T.U.U.U.U.U.Y.Y.Y.U.U.U.U.U.U.U.U.Y.Y.Y.U.U.U.U.U.R.r 8 r r 7 F c c ' K :.r <.  3 t q 3 t ",
"  =           O c W a c h c g k c g r Y.L.L.L.J.J.I.I.I.L.L.L.L.L.L.J.J.I.I.I.L.J.L.L.J.T.7 2 t r 7 F c c l a Z r &.O t     O   ",
"7 c 3 r t r w ; x K a c h c g k c h r Y.J.J.L.J.J.I.I.I.J.J.L.J.L.L.J.J.I.I.I.L.J.J.L.J.T.7 X r r 7 Z c c k a Z r $.O q O e r ; ",
"r G 8 a h r a 3 c K a c h c g k c g r Y.J.J.J.J.J.P.P.P.J.J.L.J.J.J.J.J.P.P.P.L.J.J.J.J.T.7   r r 7 Z c c k a Z r $.O q   r h ; ",
"8 Z 7 r s r t 3 c K a c g c g k V a r Y.J.J.J.J.J.L.L.L.J.J.J.J.J.J.J.J.P.L.L.J.J.J.J.J.T.r   e r 7 Z c c k a Z r &.O q   r a ; ",
"8 Z 7 t s r a 3 c K a c g c a l z l r Y.J.J.J.G.J.J.J.L.G.J.J.J.J.J.J.G.L.J.K.J.J.J.J.G.T.7   e r 3 F c c k a Z r O.O q   r a ; ",
"7 c 7 i s e r 5 c K a c h c g k r _ 7 Y.J.J.J.G.J.J.J.J.G.G.J.J.J.J.J.G.L.J.J.J.G.J.J.G.T.r   0 r 7 V c v k g c r @.+ q   r s - ",
"8 ~ p c N g h r c Z a c h c g c q h r Y.L.J.J.G.G.J.J.J.G.G.J.J.J.J.G.G.J.J.J.G.G.J.J.J.T.7   a l y S ..| J v O.l a.O q + a N 3 ",
"y ;   O         _ J a c h c a Z r c r Y.L.J.J.G.G.J.J.J.F.G.G.J.J.J.G.F.J.J.J.G.G.J.J.J.T.7   O     +.+ + O   @   + 7 a       O ",
"5 r ; . +     + W Z a c h c a c r c r Y.L.G.J.F.G.J.G.J.F.G.J.L.J.J.G.F.J.G.J.G.F.G.J.J.T.7       + @ ; 4 3 1 0 ; 3 3 r         ",
"w.k : @ C.1.q.u.r Z a z g c g c r J 7 Y.I.J.J.G.G.J.J.L.G.G.J.P.L.K.J.F.L.H.J.G.G.J.P.J.T.8 3 | q.h.M X O     O   O O   r %.q.f.",
"7   @ 8 Z # 2 # c S t c l c g S t @ 7 L.G.F.F.D.D.F.F.F.D.F.F.G.G.F.F.D.F.F.F.F.D.F.G.F.I.3   1 1 + p.w.a.1.$.a.W k.8.y.1.4 + 4 ",
"s ;   3 [ 5 t 2 c c a c h c g (   # a > < > > , , < > , > , > , > > > , < > < > , > > > > a   0 i 2 W *.9.| W q.Z r.&.s.d   + y ",
"s ;   3 ~ 4 r 2 c Z s l h c a l ` J K g Z i c k a E @ 3   3 h r r a s k a h c a g h c c   q   r r 7 k s a r r s 3 h t c   0   a ",
"s 1   3 ~ 2 r ; c S a c g c s l z l l r J t c k g ( + 3 . 2 h ; ; h S W N W ` N K W ( X.  q   r i 5 Z l v s s c a c k J + 3   s ",
"s ;   3 [ 3 r 2 c c a c g c s k k k l t c a c k g / + 3   3 g ; ; ;   +   O @     O   O 1 q   r r 7 c z c s g c r c c J + 3   a ",
"s ;   5 ~ 7 r 7 k S t k g c a l k c l r c t c k s W O 3 o t ; ; ; 3 0 4 0 4 q 3 3 4 q 3 3 t   r i 5 S W | V F ..c @.K 1.O 3   a ",
"g ;   3 ^ 4 r > v O.c ( S _ F W / K K c ) N ) W S 5.O 3   e r ; ; 2         .               ; r r r c   + O   +   @ O   3 3   a ",
"s ;   3 ~ 2 r 7 v   O + X O O X O +     + O   + X   4 3   e r ; ; g 3 r 3 r t 3 4 r e 3 3 r 4 t q t 3 3 q 3 3 q 1 r 0 4 3 q   t ",
"g ; . 3 W 3 r y   0 4 0 3 q 3 3 q q 4 3 0 3 q q 3 q 3 q   3 i ; ; z 7 a r i g r r a s t r g + # # 2 #         .   + .       ; s ",
"s ; . 3 ~ 3 r r t #                           .         ; r r ; ; l 3 r e r y 7 r r t r 3 2 l.5.D =.9.5.m.K # q 3 q q 0 e 3 3 p ",
"s ; O 3 h O ; # # # + ; # # @ # ; # # # # @ ; - # ; # + ; # r ; ; h 2 t r r a 7 r r r e 4 7 j -.{ | $.0.m   O ; + 2 ; ; # # ; i ",
"s ;   + M.<.| { O.:.*.r.q.w.$.q.r.q.w.~ r.{ g.r.h.&.1.~ 9.q.t ; ; l 3 r r r a e r r t r 3 e a a 8 r r k   4   3 3 r e 3 7 3 7 t ",
"s ; . ; W t.$.) O.0.m K m N V V N N V K V K c C c.k.o.W d.i ; ; ; l 3 r r r y 3 r r r r 4 r l c a l h K @ 3   t r s a r t r r i ",
"N - . 3 S a r r r V z.v.v.v.v.v.v.v.v.v.v.v.v.v.z.c r 4 c   0 ; ; c s h s s N s s h h s t s s c s h j K + 3   s a N k s s a g l ",
"  O X : W k s a h l I ' I I K I Y R Y k ( V ' Y V l j a _   q 2 ; r                         S c a k g K + 0   O                 ",
"+   ; 2 W l l a g k a h g l t g g k l t l a j g g l j a Y   3 ; : 3 2   O + # & O + O + X   J c a l j K + q   + O # + O + O O + ",
"t e r 3 v l h a l h g k h k a l j l k a k a c h g k h a K   r     e r r r q f z.p q t r 3 r h c a l h K + 3   r r t a r r e t t "
};
