/* XPM */
static char *_c41b904b21341f0b7bfa9a788dccfcbCIPvGqRHz4VvjXi9[] = {
/* columns rows colors chars-per-pixel */
"64 64 169 2 ",
"   c #030304",
".  c #090405",
"X  c #040806",
"o  c #090905",
"O  c #04050A",
"+  c #09060A",
"@  c #050A0B",
"#  c #0A0B0C",
"$  c #031105",
"%  c #0C150C",
"&  c #0B1A0F",
"*  c #050511",
"=  c #060D12",
"-  c #0B0D13",
";  c #0D0F19",
":  c #150D15",
">  c #170D18",
",  c #190E1A",
"<  c #071015",
"1  c #0D1215",
"2  c #0C1A15",
"3  c #0D151C",
"4  c #0E181E",
"5  c #111215",
"6  c #11151C",
"7  c #12191E",
"8  c #0D1621",
"9  c #0E1922",
"0  c #0F1C28",
"q  c #121622",
"w  c #131B23",
"e  c #141D2A",
"r  c #191F2B",
"t  c #0F2027",
"y  c #142125",
"u  c #192126",
"i  c #122925",
"p  c #15222C",
"a  c #19232D",
"s  c #16292D",
"d  c #1A292E",
"f  c #162431",
"g  c #192533",
"h  c #172932",
"j  c #1A2936",
"k  c #172739",
"l  c #1A2639",
"z  c #162A3A",
"x  c #1C2C3B",
"c  c #193136",
"v  c #1C323D",
"b  c #1E3A3C",
"n  c #212C37",
"m  c #20223D",
"M  c #212D3D",
"N  c #20313E",
"B  c #1C2740",
"V  c #1D2E42",
"C  c #1F2B48",
"Z  c #1E3342",
"A  c #1E3943",
"S  c #1E354A",
"D  c #1E364B",
"F  c #212E43",
"G  c #212F43",
"H  c #212F49",
"J  c #203442",
"K  c #203044",
"L  c #223246",
"P  c #223745",
"I  c #203746",
"U  c #203844",
"Y  c #223A45",
"T  c #203149",
"R  c #203449",
"E  c #22354A",
"W  c #24354A",
"Q  c #22374D",
"!  c #29324D",
"~  c #233849",
"^  c #223A49",
"/  c #233A4B",
"(  c #233B4D",
")  c #22384F",
"_  c #243A4E",
"`  c #253C4F",
"'  c #283D4E",
"]  c #243551",
"[  c #233951",
"{  c #223952",
"}  c #253850",
"|  c #263851",
" . c #233D52",
".. c #243C53",
"X. c #253D53",
"o. c #223857",
"O. c #243C56",
"+. c #293C55",
"@. c #253E59",
"#. c #263E58",
"$. c #263E5A",
"%. c #2A3B59",
"&. c #2A3E5A",
"*. c #2D3E5F",
"=. c #2A3E60",
"-. c #303F62",
";. c #1F4046",
":. c #26424D",
">. c #2A434F",
",. c #264253",
"<. c #294255",
"1. c #2C4054",
"2. c #2B4854",
"3. c #26425C",
"4. c #2A415D",
"5. c #2A435C",
"6. c #2B405E",
"7. c #2F435E",
"8. c #2C485F",
"9. c #274562",
"0. c #2B4463",
"q. c #294264",
"w. c #2C4965",
"e. c #2C466A",
"r. c #2E476A",
"t. c #2D4B6B",
"y. c #314365",
"u. c #324860",
"i. c #314668",
"p. c #314B6C",
"a. c #2C506D",
"s. c #33516F",
"d. c #2E4E72",
"f. c #2F4D74",
"g. c #364B70",
"h. c #2E5471",
"j. c #325274",
"k. c #345474",
"l. c #34547B",
"z. c #02ED04",
"x. c #04ED09",
"c. c #01F702",
"v. c #01F803",
"b. c #01F903",
"n. c #04F20B",
"m. c #365C86",
"M. c #385A88",
"N. c #3D608D",
"B. c #3D6292",
"V. c #426B99",
"C. c #436A9E",
"Z. c #486B9C",
"A. c #486DA7",
"S. c #03878C",
"D. c #049195",
"F. c #00ADAD",
"G. c #00B4B4",
"H. c #00BCBC",
"J. c #00C0BF",
"K. c #00C4C4",
"L. c #00C8C7",
"P. c #00C7C8",
"I. c #00CACA",
"U. c #00D1D1",
"Y. c #00DCDB",
"T. c #00E3E3",
"R. c #00EAEA",
"E. c #00F3F3",
"W. c #D5D6D6",
/* pixels */
"1 1 6 w x x f p f j p j g j p k k k h e x e j g k p h p Z   q     w y w w w y c.% *.Q M x %.4 x f g g v o < - R k &.x T +.L k } ",
"} e.p - x x f p f j p j g j f g g k k w x p h g k p g f Z O 9   + + # # # - & z.% e O .   + O.S p g g N @ 8   w # w - 1 q 1 - 3 ",
"1 w     _ X.J x A R x I F ~ V I I Y L j ` x R J L Z L Z 1.  9   + V.4.) [ @.@.~ [  .4.R S j.x 4.w f v F o 3   y 6 a q w a w 3 e ",
"w a =    .+ +     O   O   O O O     +   +   O   +   O   O 3 w     Q 7.X.[ &.3.T O.&.q.R W d.@.x e ) z.A O 3   e 6 h q w g q 7 y ",
"w a = #   9 8 3 4 9 3 4 3 9 3 9 4 4 3 3 9 3 3 3 4 4 9 4 3 3 e     J p w w e y w w w a 6 7 p 6 w j A v.>.O 3   e 3 a 6 w p w 3 p ",
"w a = O @.O               .                                   o   S x g f x x 9 a x I p f x p f k s v.,.@ 3   e 3 g 8 w a w 3 p ",
"f M <   Q 6 6 3 8 p 4 w q w q w w w w 3 p 4 w w w q q 4 w q p -   R x f a h V x h x # x p x a p k h v.X.@ 4   j w M a f x g w n ",
"    O   0.a j f # - - 1 1 5 1 5 1 5 1 # 5 # 1 5 - 1 1 w x j M 3   R x g f j w L T w   V e x p f x h v.>.O q             O       ",
"+ o   - 6   O + B.w.L &.} @.O.&.@.3.O.Z 0.R &.3.} @.e.j       O   ~ x g a x w j x o - x a x p p x x v.<.O w   O # O X + . o O + ",
"w - - 3 - +   O ~ g.S 4.O.q.} 3.<.4.@.T w.T 4.@.} t.y O     O +   J x a a x e o - 8 - x p x p p x i v.<.O w   O - 6 1 < 6 ; @ e ",
"1 p.X.0.0.0.w.0.w h 8 p w p t w p p w 3 f 7 p e w x   < 7 0.` - - Z x k e I   - # =   F e v p p Y z.x.,.O w   s.T g.&.0.w.O.&.k ",
"3 k # 1 3 1 5 + j x p j f x g k x k j 7 Z w x j v L O 9   7 + # 3 x x f a g ) k F L R p p x p p f Y ~ x o w   k # q 1 3 3 ; 3 o ",
"6 V 3 e a e w ; x L y F B k k x x x k V k x l I z.:.+ 3   p 8   - I } I N Z ' k J I ~ M x ' Z x J T I <.O w   F 1 g w w a y e - ",
"+ g . - - - # O 4.@.p s v s h h h h h h h h v c v.2.  3   p 3   3 S   O   o O     @ O     @         O   4 w   F 3 1 # - 1 # 1   ",
"+.X.) q.0.<.&.9.L w.j z.v.c.v.c.c.c.c.c.c.c.v.c.x.4.O 3 . e 3   e   q 3 3 4 e q 9 3 9 8 3 0 3 3 8 9 9 9 9 f   F   C.0.O.0.&.S s.",
"3.@.[ 9.0.@.<.<.0.J 9 :.A :.Y Y ~ Y :.h <.v Y ~ v I O 3   p 3   7 C           $   -       .             o     R . ) p.@.0.@.T w.",
"y e w a a w 0 w w f f x g l g k x g x w Z p j l a I + 3   p @     g # # - 1 $ z.$ g # @ @ 1 + # @ # - @ q O   <.O A f y p y 9 a ",
"j j f x x k j p k x p x p x h g x g x e V a x x e I + 3   o A.e.X.[ @.,.O.4.s.3.4.3.w.[ } t.) @.[ 0.q.&.l.R   } . ~ x j x h p x ",
"j x f x x j k a f I p x k j f k x g x a x f k x e I + 4   & _ *.O.&.X.@.X.O.w.T &.<.0.} R p.Q O.} 4.3.e.h O   ] . W V k x k f v ",
"j x f j x j g V x @ x x g x k j x g x e v f g x p ) O 3 $ z.A p w p y w w w p w w p a w 7 v 4 y w y p j   w # W.5 R x k x k a x ",
"j j k j x g x e w.  x x g x k j x g x p L g j x p ~ O 3   2 Y x g g j j h g x a h j j C S z.v f f x x J @ w   W + R V g x k p x ",
"k k g x x g Z 9   - v x g x a j x g x p Z a j x p ~ O 3 . 3 L x f x j j f j x a k j V y b v.J f f j x L @ w   T # R x k x k a x ",
"I R L ~ X.J 4.O 9   x x g x f j x g x p Z a j M p ~ O 3   3 L x f k k j g j x p k k ,.z.c.z.J f f x x L @ w   T o  .<.R [ I v } ",
"O   O O @ O   - 3 O.a x g x f j x g x f V a j x p ~ O 3   3 L x p k k k f j x p k j x A v 4.p h p x l L @ w   T 1 [ + O + O   o ",
"9 3 8 9 w 8 4 q   w j x g x f j x g x y ` a g x f ~ O 3 + w W ) Z R I R V x x p k j x p e Q x I F ~ W <.+ w   T 7   6 9 9 9 3 e ",
"  O         .   8 a g x g x f j x g k ~ z.v g x p ~   w     <.+ o O +   o x V p k j x a k p         @   9 w   T 5 j o     .     ",
"6 x 3 w e w 0 ; x Z p x g x f j x g x Z v.Y k V p ~   w   . < 3 w 3 9 9 . 9 I p k j x a L   < w w w p w p f   F 1 k w w w 9 w = ",
"w F 7 e g w p 3 x R p x g x f j x g M a c.Y a Z p ~ O 9   3 =     ;     8 a L p k j x a L @ w                 H 1 k a p a w p - ",
"7 B 6 w a w e 3 k I p x g x f j x j x s c.Y a Z p ~ O - 8 %.i.L ] k 3 3 x Z x p k j x a M = 9     # . . O   O O.# k e w e w p - ",
"# g o - 1 - 3 3 I Z p x g x f j x j M a c.Y p L p ~ O 3   < 7 1 3 w e 7 x x x p k j x a F = 3   5 3 # @ 3 # + V O 3 - - ; # 1   ",
"q.X.X.3.w.q.t.O S Z p x g x f j x g x j v.A a Z p ~ O 3   9 a w w w w 6 x x x p k j x a M - < 5 R 4.m.7.e.3.X.8.V t.4.3.0.&.R s.",
"3.q. .4.B.y     W Z p x a x p j x a g <.v.Y p L p ~ O 3   9 a w w w w 6 x x x p g j x a N = 3   ; # C 0.e.&.[ t.B h.q.3.0.@.[ w.",
"y y k f #   w   S I p x ) ) Z Z A ) X.;.v.J f L p ~ + 3   9 a w w w w 6 V ,._ M L R } v +.@ 3   6 w x p a y 7 Z 1 j w p p w 7 f ",
"j x e x # 3 9   R L e ' z.v.v.v.v.c.v.c.x.N f L p ~ + 3   9 a w w w w w Z O #   X   #     w 3   6 w V j x B Z z.h Z j j x k a x ",
"I 4.  - 9 ; 9   R L p x Y ,.v ~  .v c 7 d 5 5 w 5 w + # . ; 6 - : : : 6   - 5 ; # - : - # w 9   q w V x F y b v.c V V _ ) I v } ",
"O   1 3 3 3 9   J L p x f x f g x p w D.S.S.S.S.S.S.S.S.S.S.S.S.S.S.S.S.S.S.S.S.S.S.S.S.D.6   # 6 w V x ,.z.c.z.c Q p   + O   o ",
"9 3 8 9 9 8 0   x R p x g x f j x g q R.Y.Y.Y.Y.Y.T.T.T.Y.Y.Y.Y.Y.Y.Y.Y.T.T.T.Y.Y.Y.Y.Y.E.w 7 w w 6 F x x Y v 3.w 3.  3 e 9 3 e ",
"  *           O x R p x g x f j x f w T.P.P.P.K.K.U.U.U.P.P.P.P.P.P.K.K.U.U.U.P.K.P.P.K.R.6 1 e w 6 F x x k p V w &.O e     O   ",
"6 x 3 w e w 0 - z I p x g x f j x g w T.K.K.P.K.K.U.U.U.K.K.P.K.P.P.K.K.U.U.U.P.K.K.P.K.R.6 X w w 6 V x x j p V w @.O 9 O q w - ",
"w F 7 p g w p 3 x I p x g x f j x f w T.K.K.K.K.K.I.I.I.K.K.P.K.K.K.K.K.I.I.I.P.K.K.K.K.R.6   w w 6 V x x j p V w @.O 9   w g - ",
"7 B 6 w a w e 3 x I p x f x f j N p w T.K.K.K.K.K.P.P.P.K.K.K.K.K.K.K.K.I.P.P.K.K.K.K.K.R.w   q w 6 V x x k p V w &.O 9   w p - ",
"7 B 6 e a w e 3 x I p x f x p k l k w T.K.K.K.H.K.K.K.P.H.K.K.K.K.K.K.H.P.K.L.K.K.K.K.H.R.6   q w 6 F x x j p V w O.O 9   w p - ",
"6 x 6 y a q w 5 x J p x g x f j w _ 6 T.K.K.K.H.K.K.K.K.H.H.K.K.K.K.K.H.P.K.K.K.H.K.K.H.R.w   8 w 6 N x v j f x w +.+ 9   w a = ",
"7 Q u x M f g w x V p x g x f x 9 g w T.P.K.K.H.H.K.K.K.H.H.K.K.K.K.H.H.K.K.K.H.H.K.K.K.R.6   p k r A  .} L v O.k s.O 9 + p n 3 ",
"r -   O         _ L p x g x p V w x w T.P.K.K.H.H.K.K.K.G.H.H.K.K.K.H.G.K.K.K.H.H.K.K.K.R.6   O     } + + O   #   O 6 p       O ",
"5 w - + o     + R V p x g x p x w x w T.P.H.K.G.H.K.H.K.G.H.K.P.K.K.H.G.K.H.K.H.G.H.K.K.R.6       + @ - 4 3 < 8 - 3 3 w         ",
"e.j 1 @ Z.4.w.i.w V p l f x f x w L 6 T.U.K.K.H.H.K.K.P.H.H.K.I.P.L.K.G.P.J.K.H.H.K.I.K.R.7 3 X.w.k.m X O     O   O O   w %.w.g.",
"6   @ 7 V # 1 # x Z e x k x f Z e @ 6 P.H.G.G.F.F.G.G.G.F.G.G.H.H.G.G.F.G.G.G.G.F.G.H.G.U.3   < < o a.e.s.4.@.s.R k.9.u.4.8 + 4 ",
"a -   3 ] 5 e 1 x x p x g x f ~   # p : , : : > > , : > : > : > : : : > , : , : > : : : : p   8 y 1 R *.0.X.R w.V t.&.d.s   + r ",
"a -   3 Q 4 w 1 x V a k g x p k ` L I f V y x j p T @ 3   3 g w w p a j p g x p f g x x   9   w w 6 j a p w w a 3 g e x   8   p ",
"a <   3 Q 1 w - x Z p x f x a k l k k w L e x j f ~ + 3 . 1 g - - g A R M R ` M J R ~ X.  9   w y 5 V k v a a x p x j L o 3   a ",
"a -   3 ] 3 w 1 x x p x f x a j j j k e x p x j f ~ + 3   3 f - - -   +   O @     O   O < 9   w w 6 x l x a f x w x x L o 3   p ",
"a -   5 Q 6 w 6 j Z e j f x p k j x h w x e x j a R O 3 o e - - - 3 8 4 8 4 9 3 3 4 9 3 3 e   w y 5 A R } N F  .x +.I 4.O 3   p ",
"f -   3 ! 4 w : v O.x ~ Z _ F R ~ I I x ) M ) R Z 8.O 3   q w - - 1         .               - w w w x   o O   +   @ O   3 3   p ",
"a -   3 Q 1 w 6 v   O + X O O X O +     o O   + X   4 3   q w - - f 3 w 3 w e 3 4 w q 3 3 w 4 e 9 e 3 3 9 3 3 9 < w 8 4 3 9   e ",
"f - . 3 R 3 w r   8 4 8 3 9 3 3 9 9 4 3 8 3 9 9 3 9 3 9   3 y - - l 6 p w y f w w p a e w f + # # 1 #         .   o .       - a ",
"a - . 3 Q 3 w w e #                           .         - w w - - k 3 w q w r 6 w w e w 3 1 l.8.S =.0.8.M.I # 9 3 9 9 8 q 3 3 u ",
"a - O 3 g O - # # # o - # # @ # - # # # # @ - = # - # o - # w - - g 1 e w w p 6 w w w q 4 6 h -.[ } @.q.n   O - o 1 - - # # - y ",
"a -   o N.3.X.[ O.<.*.p.w.t.&.e.t.w.e.Q t.[ g.p.h.&.4.Q 0.w.e - - k 3 w w w p q w w e w 3 q p p 7 w w j   4   3 3 w q 3 6 3 6 e ",
"a - . - I y.@.) O.q.j A j c v x c c c A c v x b n.k.o.R f.y - - - k 3 w w w r 3 w w w w 4 w k x p k g I @ 3   e w a p w e w w y ",
"M = . 3 Z p w w w c z.v.c.c.c.c.c.c.c.c.c.c.c.c.z.j w 4 x   8 - - x a g a a n a a g g a e a a x a g h I + 3   a p n j a a p f k ",
"  O X ; R j a p g h A ~ L Y A Y Y Y Y j ~ c ~ Y v h h p _   9 1 - w                         A x p j f I + 8   O                 ",
"+   - 1 R k k p f j p g f k e g f j h e h f h g f k h p ~   3 - ; 3 1   O + # $ O + O + X   L x p k h I + 9   + O # + O + O O + ",
"e q w 3 Z k g p h k f j g j p k h h j p x p x g f j g p I   w     q w w w w d z.y w e w 3 w g x p k g I + 3   w w e p w w q e e "
};
