/* XPM */
static char *_6730a5127c547b2ca8704e25fc9c3a3CefgP4m554q8MZhV[] = {
/* columns rows colors chars-per-pixel */
"64 64 169 2 ",
"   c #030304",
".  c #0A0405",
"X  c #040806",
"o  c #090905",
"O  c #04050A",
"+  c #09060A",
"@  c #050A0B",
"#  c #0A0B0C",
"$  c #110506",
"%  c #110609",
"&  c #140D0D",
"*  c #050511",
"=  c #060D12",
"-  c #0B0D13",
";  c #0D0F19",
":  c #120E14",
">  c #1A0E17",
",  c #140F18",
"<  c #1C0E1B",
"1  c #071015",
"2  c #0D1215",
"3  c #0D141C",
"4  c #0E181E",
"5  c #121215",
"6  c #11151C",
"7  c #1D111D",
"8  c #12191E",
"9  c #0D1621",
"0  c #0E1922",
"q  c #0F1C28",
"w  c #121622",
"e  c #1E1220",
"r  c #131B24",
"t  c #191C25",
"y  c #141D2A",
"u  c #191E2A",
"i  c #201222",
"p  c #221825",
"a  c #0F2027",
"s  c #142025",
"d  c #192126",
"f  c #15222C",
"g  c #19232D",
"h  c #15292B",
"j  c #162432",
"k  c #192533",
"l  c #162933",
"z  c #1A2936",
"x  c #172739",
"c  c #1A2739",
"v  c #162A39",
"b  c #1C2C3B",
"n  c #1D313E",
"m  c #24232E",
"M  c #222636",
"N  c #212B37",
"B  c #20223D",
"V  c #222D3C",
"C  c #2B2D3C",
"Z  c #22303E",
"A  c #1D2E42",
"S  c #1F2B48",
"D  c #1E3242",
"F  c #1F3847",
"G  c #1E354A",
"H  c #202F42",
"J  c #222E42",
"K  c #282F40",
"L  c #212F49",
"P  c #203043",
"I  c #233142",
"U  c #203442",
"Y  c #223246",
"T  c #203746",
"R  c #253644",
"E  c #293445",
"W  c #203844",
"Q  c #243847",
"!  c #203149",
"~  c #203449",
"^  c #22354A",
"/  c #25364A",
"(  c #22374D",
")  c #29354B",
"_  c #29354D",
"`  c #233849",
"'  c #22384F",
"]  c #243A4E",
"[  c #253C4F",
"{  c #2A3B4D",
"}  c #2F3D4F",
"|  c #243551",
" . c #233951",
".. c #223952",
"X. c #253850",
"o. c #243B53",
"O. c #233D52",
"+. c #253D53",
"@. c #233C56",
"#. c #2B3C53",
"$. c #2B3F56",
"%. c #253E59",
"&. c #263E58",
"*. c #2A3B59",
"=. c #2A3E5A",
"-. c #2A3E60",
";. c #303F62",
":. c #264157",
">. c #294257",
",. c #2C4054",
"<. c #25415C",
"1. c #2A415D",
"2. c #2B435C",
"3. c #2F435E",
"4. c #2C485F",
"5. c #314154",
"6. c #274562",
"7. c #2B4463",
"8. c #294264",
"9. c #2C4965",
"0. c #2E4768",
"q. c #2C466A",
"w. c #2D4B6B",
"e. c #314365",
"r. c #324860",
"t. c #314668",
"y. c #344A6D",
"u. c #2C506D",
"i. c #33516F",
"p. c #2E4E72",
"a. c #2F4D74",
"s. c #364B70",
"d. c #2F5273",
"f. c #345473",
"g. c #325274",
"h. c #395075",
"j. c #34547B",
"k. c #D40304",
"l. c #DE0101",
"z. c #DC0203",
"x. c #D80404",
"c. c #D90406",
"v. c #DC0709",
"b. c #E00102",
"n. c #365C86",
"m. c #385A88",
"M. c #3D608D",
"N. c #3D6292",
"B. c #426B99",
"V. c #436A9E",
"C. c #486B9C",
"Z. c #486DA7",
"A. c #119CA1",
"S. c #14A5A9",
"D. c #19A4AA",
"F. c #01C0BF",
"G. c #01C4C4",
"H. c #01CBCB",
"J. c #00D5D5",
"K. c #00DADA",
"L. c #00E0DF",
"P. c #00E2E2",
"I. c #00E8E7",
"U. c #01ECEB",
"Y. c #07F0EF",
"T. c #08F0EF",
"R. c #03F2F2",
"E. c #09F5F6",
"W. c #09FAFA",
/* pixels */
"2 2 6 r b b j f j z f z k z f x x x l y b y z k x f l f D   w     r s r r r t l.& 1.( V b *.4 b j k k n o 1 - ~ c =.b ! $.Y x X.",
"X.q.f - b b j f j z f z k z j k k x x r b f l k x f g j D O 0   + + # # # - & x.% y O .   + @.F f k j V @ 9   r # r - 2 w 1 - 3 ",
"2 r     ] +.U b D ~ b T J ` A T ~ W Y z [ b ~ U Y D Y D ,.  9   + B.1.'  .%.%./  .O.1.~ G g.b 1.r j b I o 3   s 6 g w r g r 3 y ",
"r g =   O.+ +     O   O   O O O     +   +   O   +   O   O 3 r     ( 3.X. .=.<.F @.=.8.~ / p.%.b y ) x.R O 3   y 6 l w r k w 4 s ",
"r g = #   9 9 3 4 9 3 4 3 9 3 9 4 4 3 3 9 3 3 3 4 4 9 4 3 3 y     U f r r y s r r r g 6 8 f 6 t z I b.} O 3   y 3 g 6 t f r 3 f ",
"r g = O %.O               .                                   o   F b k j b b 0 g b T f j b f j c g l.#.@ 3   y 2 k 9 r g r 3 f ",
"j V 1   ( 6 6 3 9 f 4 r w t w r r r r 3 f 4 r r r w w 4 r w f -   ~ b j g l A b l b # b f b g f b k l.#.@ 4   z t V g j b k t N ",
"    O   7.g z j # - - 2 2 5 1 5 2 5 2 # 5 # 2 5 - 2 2 t b z V 3   ~ b k j l t Y ! t   A y b f j b k l.} O w             O       ",
"+ o   - 6   O + N.9.Y =.X.%.@.=.%.<.@.D 7.~ =.<.X.%.q.z       O   ` b k g b r z b o - b g b f f b b l.$.O r   O # O X + . o O + ",
"r - - 3 - O   O ` s.F 1.@.8.X.<.>.1.%.! 9.! 1.%.X.w.s O     O +   U b g g b y o - 9 - b f b f f b p l.$.O r   O - 6 1 1 6 ; @ y ",
"2 y.+.7.7.7.9.7.r l 9 f t f a t f f r 3 j 8 f y q b   1 8 7.[ - - D b x y T   - # @   L y n f g R x.v.$.O r   i.! s.=.7.9.@.=.x ",
"3 x # 2 3 2 5 + z b f z j b z x b x z 8 D r b z b Y O 9   8 + # 3 b b j g k ] x J Y ~ f f b f f j ) / b o r   c # w 1 3 3 ; 3 o ",
"6 A 3 y g y t ; b Y s A A x b b b b b A b b v E x.{ o 3   f 9   - T X.T Z D { c U T ` V b { D b U ~ F >.O r   L 2 k t r g s y - ",
"+ k . - - - # O 1.%.f g V g k k k k k k k k V M l.5.  3   f 3   3 G   O   o O     @ O     @         O   4 r   L 3 2 # & 2 # 2   ",
"$.+.' 8.7.>.=.6.Y 7.z x.l.l.l.l.l.l.l.l.l.l.l.l.v.1.O 3 . y 3   y   w 3 3 4 y 9 9 3 0 9 3 q 3 3 9 9 9 9 9 j   L   V.7.@.7.=.G i.",
"<.%. .6.7.%.>.>.7.U 9 { J { E I ) R { k $.J Y ) Z T + 3   f 3   8 S           .   -       .             o     ~ . ] y.%.7.%.! 9.",
"s y r g g r q r r j j x k c j x x j b r D f l c f T + 3   f @     k # # - 2 $ k.+ k # @ @ ; + # @ # - @ w O   >.O D j s f s 9 g ",
"z z j b b x z f x b f b f b l k b k b y A g b b y T + 3   o Z.q.+. .%.:.@.1.i.=.1.<.9. .X.w.' %. .7.8.=.j.~   X.. ` b z b l f b ",
"z b j b b z x g j T f b x z j x b k b g b j x b y T + 4   & ] =.@.=.X.%.X.@.9.F =.>.7.X.~ q.( @.X.1.<.9.l O   Y . ( A x b x j n ",
"z b j z b z k A b @ b b k b x z b k b y n j k b f ' O 3 $ k.I f r f s t t r f r t f g r r I 4 s r s f z   y . k.% ' b x b x g b ",
"z z x z b k b y 9.  b b k b x z b k b f I k z b f ` + 3   5 Q b k k z z l k b g l z z S ~ x.V j j b b U @ r   E + ~ A k z x f b ",
"x x k b b k D 0   - n b k b g z b k b f D g z b f Q O 3 . 3 Y b j b z z j z b g x z J t C b.K l j z b I @ r   ! # ~ b x b x g b ",
"R ~ I ` X.U 1.O 9   b b k b j z b k b f D g z V f Q O 3   3 Y b j x x z k z b f x l X.x.b.v.I l j b b I @ r   ! o O.>.~ ' T n X.",
"O   O O @ O   - 3 @.g b k b j z b k b j D g z b f Q O 3   3 Y b f x x x j z b f x z b I N 1.f l f b c I @ r   ! 2  .+ O + O   o ",
"9 3 9 9 r 9 4 w   r z b k b j z b k b s { g k b j Q O 3 + r / ' D ~ T ~ A b b f x z b g f ' b T J ` / >.+ r   ! 8   6 9 9 9 3 y ",
"  O         .   9 g k b k b j z b k x ) x.V l b f Q   r     >.+ o O +   o b A f x z b g x f         @   9 r   ! 5 z @     .     ",
"6 b 3 t y r q ; b D f b k b j z b k b J l.) l A f Q   r   . 1 3 r 3 9 0 . 9 T f x z b g I   1 t r r f r f j   L 2 x r r t 9 t = ",
"r L 8 y k t f 3 b ~ f b k b j z b k b g l.E f D f Q O 9   3 =     ;     9 g I f x z b g I @ r                 L 2 x g f g t f - ",
"8 A 6 y g r y 2 x T f b k b j z b z b g l.I f D f Q O - 9 *.t.Y | x 3 3 b D b f x z b g V = 9     # . . O   O @.# x y t y r f - ",
"# k o ; 2 - 3 3 T D f b k b j z b z b g l.E f I f Q O 3   1 8 2 3 r y 8 b b b f x z b g J = 3   5 3 # @ 3 # + A O 3 - - ; # 2   ",
"8.+.X.<.9.8.w.O F D f b k b j z b k b M l.I g D f Q O 3   0 g r r r r 6 b b b f x z b g V - 1 5 ~ 1.n.3.q.<.+.4.A w.1.<.7.=.~ i.",
"<.8.O.1.N.s     / D f b g b f z b g l $.l.E f I f Q O 3   9 g r r r t 6 b b b f k z b g Z = 3   ; # S 7.9.=. .w.A d.8.<.7.%. .9.",
"s s x j #   r   G T f b ) ) J J J _ #.E l.J j Y f ` + 3   9 g r t r t 6 A @.] V Y ~ X.n #.@ 3   w r b f g s 8 Y 2 z t f f t 8 j ",
"z b y b # 3 9   ~ Y f { x.l.l.l.l.l.l.l.v.V j I f ` + 3   9 g r t r r r D   #   X   #     r 3   w r A z b b L x.k D z z b x g b ",
"R 1.  - 9 ; 9   ~ Y f b I #.V ) #.Z N 7 m , 6 t 5 t + # . : 6 - : : : 6 . : : ; : - : - # r 9   w r A b Y t C b.N D A ] ' T n X.",
"O   2 3 3 3 9   U Y f b j b j z b f g S.A.A.A.A.A.A.A.A.A.A.A.A.A.A.A.A.A.A.A.A.A.A.A.A.D.r   # 6 r A v #.x.b.x.b ' f   + O   o ",
"9 3 9 9 0 9 q   b ~ f b k b j z b k t E.I.U.I.I.I.R.R.R.I.I.I.U.U.I.I.I.R.R.R.U.I.I.U.I.W.t 8 r r 6 J b b ) V =.r <.  3 y 9 3 y ",
"  *           O b ~ f b k b j z b j u R.K.K.K.K.K.P.P.P.K.K.K.K.K.K.K.K.P.P.P.K.K.K.K.K.W.r 2 y r 6 J b b l f A r =.O y     O   ",
"6 b 3 t y r q - v T f b k b j z b j u R.K.K.K.K.K.P.P.P.K.J.K.K.K.K.K.J.P.P.P.K.J.K.K.J.W.r X r r 6 A b b z f A r %.O 9 O w t - ",
"r L 8 f k t f 3 b T f b k b j z b j u R.J.K.K.J.K.K.P.P.K.K.K.K.K.K.K.J.P.P.P.K.J.K.K.J.E.r   r t 6 A b b z f A r %.O 9   r k - ",
"8 A 6 t g r y 3 b T f b j b j z Z f u T.J.J.K.J.K.K.K.K.J.K.K.J.K.K.K.J.K.K.K.K.J.K.K.J.E.t   w t 6 A b b z f A r =.O 9   r f - ",
"8 A 6 y g r y 3 b T f b j b f c c x u R.J.J.K.J.J.K.K.K.J.J.K.J.J.K.K.J.K.K.K.J.J.K.J.J.E.t   w t 3 A b b z f A r @.O 9   r f - ",
"6 b 6 s g w r 5 b U f b k b j z t ] t Y.J.J.K.J.J.K.J.K.J.J.J.J.J.J.J.H.K.J.K.J.J.J.J.J.E.t   9 r 6 Z b n z j b r $.+ 9   r g = ",
"8 ( d b V j z t b A f b k b j b 9 k y U.K.J.J.J.J.J.J.J.J.J.J.K.K.J.J.H.K.J.J.J.H.J.J.J.E.r   f x u D O.X.Y n @.c i.O 9 + f N 3 ",
"u -   O         ] I f b k b f A r b u U.K.J.J.H.J.J.J.J.H.J.J.K.K.J.J.H.J.J.J.J.H.J.K.J.E.t   O     #.+ + O   @   O 6 f       O ",
"5 r - . o     + ~ A f b k b f b r b u U.K.J.J.H.H.J.J.K.H.J.J.K.K.J.J.G.K.J.J.H.H.J.K.J.E.t       + @ - 4 3 1 9 - 3 3 t         ",
"q.z ; @ C.1.9.t.r A f c j b j b t Y t R.P.J.K.H.J.K.J.K.H.J.J.L.K.K.J.H.K.J.K.J.H.J.K.K.E.t 3 X.9.f.B X O     O   O O   r *.9.s.",
"6   @ 8 A # 2 # b D y b x b j D y @ t K.H.H.H.G.G.H.H.H.G.G.H.H.H.H.G.F.H.H.H.G.G.H.H.H.P.r   1 1 o u.q.i.1.%.i.~ j.6.r.1.9 + 4 ",
"g -   3 | 5 y 2 b b f b k b j Q   # k < 7 < 7 7 7 e < < 7 7 < < < < 7 7 i 7 i < 7 < < < > z   9 s 2 ~ =.7.X.~ 9.A w.=.p.h   + u ",
"g -   3 ( 4 t 2 b A g x k b f x [ Y T j A s b z f ! @ 3   3 x y y g g z f k b f j k b b   0   r r 6 z g f r r g 3 k y b   9   f ",
"g 1   3 ( 2 t - b D f b j b g c c x x r I y b z j Q + 3 . 2 x 2 - x D ~ V ~ [ V U ~ W +.  0   r s 5 A x n g g b f b z Y o 3   g ",
"g -   3 | 3 t 2 b b f b j b g z z z x y b f b z j ` + 3   3 k 3 3 -   +   O @     O   O 1 9   r r 6 b c b g j b t b b I o 3   f ",
"g -   5 ( 6 r 3 z D y z j b f x z b l r b y b z g ~ O 3 o y - 3 3 3 9 4 9 4 0 3 3 4 9 3 3 y   r s 5 D ~ X.Z J O.b $.T 1.O 3   f ",
"j -   3 _ 4 r ; n @.b W D ] J ~ ` T T b ' V ' ~ D 4.O 3   w y 3 3 3         .               - r t r b   o O   +   @ O   3 3   f ",
"g -   3 ( 2 r 6 n   O + X O O X O +     o O   + X   4 3   w y 3 3 x 3 r 3 r y 3 4 r w 3 3 r 4 y 9 y 3 3 0 3 3 9 1 r 9 4 3 0   y ",
"j - . 3 ~ 3 r u   9 4 9 3 9 3 3 9 9 4 3 9 3 9 9 3 9 3 0   3 f 3 3 b 6 f t s j r r f g y 8 j + - # 2 #         .   o .       = g ",
"g - . 3 ( 3 r t y #                           .         - r y 3 3 z 3 r w r u 6 r r y r 3 2 j.4.G -.7.4.m.T # 0 3 9 0 9 w 3 3 d ",
"g - O 3 z O - # # # o - # # @ # - # # # # @ - = # - # o - # y 3 3 x 2 r r r f 6 r r r w 4 6 l ;. .X.%.8.N   O - o 2 - - # # - s ",
"g =   o M.<.X. .@.>.<.w.9.w.<.9.w.9.w.( w.O.d.w.g.=.1.( 7.9.f 3 2 c 2 r r r f w r r y r 3 w f f 8 t r z   4   3 3 r w 3 6 3 6 y ",
"g - . - ~ e.%.' @.8.z I M N V N N N N J V V b C v.h.%.~ a.s ; 3 2 x 3 r r r u 3 r r t r 4 r x b f x k T @ 3   y r g f t y r t s ",
"V = . 3 D f r r r N x.l.l.l.l.l.l.l.l.l.l.l.l.l.x.z s 4 V   r 3 3 b g k g g N g g k z g y g g b g k l T + 3   g f N z g g f j x ",
"  O X ; ~ z g f k j Z ) J I J I E E R z E N ) E V l l f ]   r 3 3 t                         D b f z j T + 9   O                 ",
"+   - 2 ~ x x f j z f x j z f l j z l f l j l l j l l f Q   3 2 2 3 2   O O o $ O + O + X   Y b f x l T + 9   + O # + O + O O + ",
"y w r 3 D x k f l x k z k z f x l l z f b f b k j z k f T   r     w t t r 0 g l.t 0 t r 3 r k b f x k T + 3   r r y f r r w y y "
};
