/* XPM */
static char *_f5f482c2d3647bd94d9715de40baf59v21ADZESJ08uzLW3[] = {
/* columns rows colors chars-per-pixel */
"64 64 63 1 ",
"  c #0F151C",
". c #10161E",
"X c #131B24",
"o c #151E28",
"O c #16202A",
"+ c #19222E",
"@ c #1B2532",
"# c #1D2936",
"$ c #1E2B3A",
"% c #212E3D",
"& c #22303F",
"* c #222F40",
"= c #233344",
"- c #243344",
"; c #243345",
": c #233445",
"> c #253547",
", c #273847",
"< c #263448",
"1 c #273748",
"2 c #28374A",
"3 c #273849",
"4 c #28384A",
"5 c #28394C",
"6 c #29384D",
"7 c #2B3C4F",
"8 c #2C3C4F",
"9 c #2B3B51",
"0 c #2C3B52",
"q c #2B3D52",
"w c #2D3F52",
"e c #2C3F54",
"r c #2D3F54",
"t c #2E4054",
"y c #2F4257",
"u c #2E4258",
"i c #2E4459",
"p c #304459",
"a c #30445B",
"s c #31455C",
"d c #33475E",
"f c #32485F",
"g c #344760",
"h c #334963",
"j c #354A63",
"k c #354A64",
"l c #374D66",
"z c #384D66",
"x c #374E68",
"c c #384E69",
"v c #384F69",
"b c #3A526D",
"n c #3D5672",
"m c #3F5975",
"M c #3F5A78",
"N c #405A77",
"B c #425D7B",
"V c #466282",
"C c #496586",
"Z c #496788",
"A c #4C6A8D",
"S c #4F6E92",
"D c #527297",
/* pixels */
"X&$+++++&=--=+++++%-$$$>@++++--%%1$+++++>5433+++++$-##$-@++++%%$",
".#-@+++#-@++$%++++>#+++->+++$4@@@$5@+++%1@+@%-++++-#+++%*+++#-@+",
" +&%@@@-#+++@=#@@-&++++@51--5$++++1-#@#5$+++@>$@@*%++++@-%%%-#++",
" +#11>1-+++++$q89r$+++++4ryyr+++++#pyyp5+++++$yw5w$+++++->->:+++",
" +$-$$$-@++++--%%3w@+++%5@++1-++++-5**-9#++++--%%>5@+++$-+++%$++",
" @-@+++%-+++%-+++@y5#@#w$+++#r@++$y#+++-5+++%1+++@w>#@#>#+++@-@+",
"X=$++++@----1@++++*hspsw+++++3u13u1++++@r511q#++++%pwqq>+++++$=$",
"X-$+++++>5555@++++%5*->r#++++q3*-q>+++++wsupy@++++%1%%%>@++++*$#",
" +-@+++%>@++%-+++@q#+++10@++-5+++@u#+++-r@++-1+++@5#+++*>+++$*++",
" +$&###1$+++@4%##3>++++@uq57p#++++1r%$%s&+++@9&##1-+++++3-**>@++",
" +#,=-33+++++-y97p&+++++yklvf+++++%jiuss+++++>sw5y%+++++>555>+++",
" +=$++@>$+++@5$++%y@+++>u@@@57++++s>@@@y%+++@r$++%q@+++%1@@@%%++",
"X*-++++$4+++=1++++w5$#%j%+++@s5->us@+++&p@+@35++++51##$5$+++@-%$",
"X>%+++++15>4p@++++%lvvbs+++++pj45l5+++++pswyl@++++$ssps4+++++->$",
" @-++++#5-%*9%++++5y448j%+++%l#++$h@+++#h5->p-++++39-->5#+++#1@+",
" +%%@+@1-+++#w@++%j#+++ws+++jw++++yw@@@py+++$i@++$s#+++-5+++>%++",
" +$5>>4y@++++1y5qj1++++@lsysb#++++>mhfln@++++5sw9s>++++@91--5@++",
" +>$@@#5#++++-jjvb>+++++jnNNn3+++@z5##$k$++++2vvvz-+++++5yrr9$++",
"X->++++%2+++@y#@@-j@+++7l#@#1nw25kv@+++3s@++#f#@@-p@+++-5@@+$5%$",
"X2%+++++q1--y-++++ps55wn-++++blqwnr+++++vu54h1++++yu>->p$++++1>%",
" #>++++#r3>3j$++++>vwwsb+++++44++%b@+++$buqyn%++++-s115y+++++$$+",
" +--++@51+++3y++++s%++@s3+++@y%+++pp@@#zp+++wf++++i$+++5%++++&#+",
" +$q25wp@+++@h>@@4p++++$b$@@pr++++2VbvbB#+++#b4@@4r++++#q#+@-*++",
" +3%@@#q#++++yvpsn5++++@nnbvCy+++@nw##$b%++++snssb2+++++ur54y%++",
"X-2++++%5@++#p$@@>v@+++wb$##5B4--kn@+++5l@++#l$@@>j@+++>w@@@$5$#",
"O9%+++++y5>>s>++++jvqwuN>++++nVvbZw+++++nfwwv4++++ps1>4s$++++45>",
" $1++++#p5>5v%++++2byrsM@++++iu@+5n@+++%NsypB%++++>j435p+++++*%+",
" +3%++@q4+++4p+++@k&+++l5+++$l%+++ny@+@bs+++yl@+++s%+++0-+++@-@+",
" +#r25qp@+++@j4@@ws++++%n%##ku++++>ZnbnB#+++#n5@@5y++++#y#@@>*++",
" +-3%%-y@++++ubshN8++++@NNnnA1++++lnw9ym#++++jNjhn5+++++py55u$++",
" $9#+++>5+++#f$@@>b#+++un###yM@++3Z%+++sj+++%b$@@>l#+++3r@@@&5@+",
"X1-++++@r$##91++++jy##%m>++++nvypNf++++#n=##s5++++pq##$p$++++3>%",
"X1%+++++yhgjj#++++5j115n%++++bbusNy+++++nBNNn#++++>p---p#++++>1%",
".$5@+++*y#@@5w+++@b%+++fb@++4B%@#qV#+++wm#@@ys+++@k%+++5r+++%5@@",
" +21###i-+++@s-#$uu++++#NbzvV5+++@nb%$-B5+++@b1$$yy++++@pw31q$++",
" +#ppsjy+++++>BNNV1+++++nZCAZ@++++-DSSSN+++++5CBNB>+++++yfssy+++",
" +-5*->y$++++yy55zN#+++wn#+@bu++++gNpupN*++++fp55kn#+++-y@++1*++",
" #5#+++>r+++-p+++#Bb%$-N>+++$B$++-V%+++sb@++1l@++#nh##%s%+++#5@+",
"o5-++++@uwqwj$++++7AVVZn+++++kVjkVj++++@mbjjn%++++4Bbbvu+++++>9-",
"X>*+++++yjhll@++++4x8wyn%+++@bjqwnp+++++nVBNm#++++>s1>1u#++++1-$",
" @5@+++*r@++1q+++@x%+++pv@++qv@++$m$+++7b@+@wp+++@h$+++30+++%>++",
" +%1##%y%+++@p>%$uy++++#nlhjm$++++yv-*>m1+++@j1%%y8++++@y5115@++",
" +$955ww+++++4bssb>+++++vBVCM@++++>Bnbnn@++++wnjsb>+++++qppp0+++",
" +3%@@@5$+++@p%@@>l@+++7v#@@us+++@b7@@#v-+++@j&@@-s@+++-w@@@--++",
"X->++++$q++@3w++++sy$$-n>+++@bi45zb@+++-v@+@wu++++uq$#%p$++++1*$",
"X2%+++++5w5wj@++++%nMNBx+++++knwynr+++++jlpsb#++++%vzkkw+++++>1%",
" #>++++#q>--r%++++qp5qrv%+++*b$++%l@+++$v833f-++++5y1>1r#+++#4@+",
" +-%@+@3>+++#r@++%j#+++wh+++zr++++yy@@@sy+++$f@++%s#+++>5+++3%++",
" +$5>>4y@++++1y59j3++++@lsysn#++++>mhfln#++++5sw9s>++++@71--5@++",
" +>$@@#4#++++-hhkl-+++++snnnn1++++j4##$j$++++>ljkh-+++++4ywq5$++",
"X--++++%>+++@q#@@&p@+++3s@@@>v511sj@+++>y+++#p#@@%r@+++*4@@@$3%$",
"X>$+++++5-**5*++++ru>>4l%++++sp35z5+++++sw>>u-++++58-%-q$++++>-$",
" @=++++#5---y$++++-s13qs+++++--++$s@+++#s515j$++++%y-->5+++++$$+",
" +%%@+@--+++-4++++q$++@w-++++4$+++55@@@y5+++1w++++5$+++>$++++%@+",
" +#3-->5@+++@9%++-5++++#y#+@41++++-lyypk@+++@y-++->++++#>@+@%$++",
" +-$@+@>@++++>r45p-+++++purrl>+++@i-@@#y#++++4p55y&+++++3>--4$++",
".%-++++$-+++@2#@@%q@+++-q@@@*p*$%5y++++*5+++@9#@@$5@+++%>@+@$-#@",
"X>#+++++>-%%1%++++45-->p$++++ws5qs-+++++q3--5%++++11%%&4#++++--%",
" #&++++@-%%*5#++++%9--1r+++++--++%9++++#y>--y#++++$4%%->+++++$$+",
" +*$+++-%+++%>++++1#+++1%+++@1#+++5-++@5>+++-2++++>#+++-$+++@%@+",
" +@-%%->++++@1$@+%-++++#5#+@>-++++$y225y@++++5%@@%-++++@-@++$#++",
" +$%##$-@++++-4>>5%+++++9541r$++++-3%%%5@++++-5>>5%+++++>-*%>#++",
" #=@+++$%+++@-@++$1@+++*1@+@%4@++$9#+++->+++@>@+@$>@+++$-+++$&++",
"X&$+++++&@++%$++++-*@@#2#++++>-%%3*++++@>#@@-$++++-%+@@-#++++%%$"
};
