/* XPM */
static char *_b3ef77bc2034958dc9667237f57d195wF7d4r84s9buw1bu[] = {
/* columns rows colors chars-per-pixel */
"64 64 57 1 ",
"  c #0F151D",
". c #10161D",
"X c #11181F",
"o c #121720",
"O c #141B23",
"+ c #171F28",
"@ c #181F29",
"# c #17202A",
"$ c #1A232D",
"% c #1C2631",
"& c #1E2934",
"* c #1F2B38",
"= c #202B37",
"- c #212E3C",
"; c #23313E",
": c #253240",
"> c #253443",
", c #273543",
"< c #273545",
"1 c #283647",
"2 c #293847",
"3 c #293748",
"4 c #2A394A",
"5 c #2C3A4B",
"6 c #2B3B4D",
"7 c #2C3B4E",
"8 c #2B3C4E",
"9 c #2E3C4E",
"0 c #2D3D50",
"q c #313F51",
"w c #2F4052",
"e c #324052",
"r c #334355",
"t c #334356",
"y c #344355",
"u c #354456",
"i c #354558",
"p c #35465A",
"a c #37475A",
"s c #37485B",
"d c #37485C",
"f c #38485B",
"g c #38495C",
"h c #374960",
"j c #394B60",
"k c #3B4C61",
"l c #3B4D62",
"z c #3C4E63",
"x c #3C4F64",
"c c #3D5066",
"v c #3F5269",
"b c #415368",
"n c #44576D",
"m c #E9EBED",
"M c #EBECED",
"N c #F5F6F6",
"B c #F6F7F8",
/* pixels */
"O##O##$$=----$$$$$&-&&&;%$$$$--==;&$$$$$;::;;$$$$$&=&&&=$$##O$$O",
"o#=&&--;<---:<---;4;---<4---:6;-;:8----:4;--<<----4;---<<--&&&+o",
"o#:eerrgreeeedreeafeeeeekgggkyeeeeggeeekaeeeegreeaueeeeegdgue-#o",
"O%5mBNNNNNNNNNNNNNNNNNNNNNNNNNNNNNNNNNNNNNNNNNNNNNNNNNNNNNNBm5%O",
"#&uBnxkgreeeegsuugzeeeeukqqqgaqqeqgkssszreeeegguugzeeeergsjbNr&#",
"#;gNj01<<---:4---;07;;:0>---;0;--:0;---19---:4---;06;;;4;<0jNg-#",
"&3aNa<-$--=-;%$$$$=9444<$$$$$;1-;1;$$$$$1:;;<%$$$$=4>>>-$-<aNa3&",
"&<yNe-$.$&&&%.....O&##$=o....&%#$=$.....&;-;-O....O%OO+$o$-eNs:%",
"$-gNe-$O$...+$   .&o...%&...#&...o-o...#&...#%   X%o...#$$-qNs-$",
"$-rNe;&%O.. .%Ooo%$... o-&&&-o....$&OO+-+.  .&+oo%$.....%-<sNe-$",
"$-eNf4;%.... $-&&-@.....=><1;. ...+>--;-.....$;&&-O.....$;0kNe-$",
"$-fNe-$$O....%O..+-o...$-Ooo%%....;$X.o-O...X&O..+&X...#%$-eNu-$",
"&<gNe-$O$...$%....=%OoO;+...o;&$$-;....+-o..%%....&%ooO%O$-qNg<&",
"&4aNe-$.%&$%-o... O1117;.....->%&1% ....-;=->o....O;;;-%.$-eNg4&",
"$;gNq-$o&#+#&O....&=%%&>O. .#>O..O;. ..o;%$$-$....%&$#$%o$-eNg;$",
"$-uNe-$%$...o&...+;o...&;...>&....=&X.O;&...O-o..O-o...$%$-qNu-$",
"$-rNg4;=o....$-&&;%... o>;-;7O .. $9;;>6O....&-&&;$.....&;4gNe-$",
"$-gNe-%%o ...#>>11$.....:9009%....1&OoO>O....%111<$.....&1rcNu-$",
"&3gNe-$@%...O-o.X$>O...&>OOO%7=%&>1X...%;...O;oXX#;O...#&$-eNk<&",
"=7aNe-$.&%#$-$.. .;;%%=4# . .1>&&6* ....1-&%;%.  .=-$$$-O$-qNg3=",
"$;gNq-$o=%$%>O .. $1&&;6.....%%..O1O...O4-&=4O... $;%%&-.$-eNa:$",
"$-sNe;$&%...%-....;+...;%....-O.  ;-OoO<;...&;. ..-O...&+$-eNa;$",
"$-rNk7>-o.. O;$oO%-... O1OoO-&... %r117rO.. O1%OO%&... o&%-qNs-$",
"$-kNe-%&o ...=1-;6% ...X9611a-...X9&OoO4O.. .;7;;4% ....-19kNu-$",
"%<kNe-$+%...O;OoO$1o...=1OoO%0%##<9X...&:...O>Ooo$>O...$&$-eNz:%",
"-0aNe-$.=%$$-$....;1&&-0$.. .7r14a&.....6;&&1% ...;;%$%;O$-qNk8-",
"$>gNq-$o-%%&1O....%6==;0.....--..%4.  .O0;&-0+ .. $>%%&-.$-eNs<$",
"$-gNe-$&%...%-. ..>+...>& ..O1O. .4=..X1:...=>. ..;+...&$$-eNg;$",
"$-rNk7<-o.. o>%OO&;... O6OoO<-... $a746rO.. o6&OO&-... o&%-qNs-$",
"$-gNu<=&o....-4;:9& ...Xe046d%.  .<7&&-0o ...:0>;9% ....-19kNr-$",
"$:zNe-$%&...O;Ooo$4o...-6OoO-9o..%aO...;>.. O1Ooo$1O...%&$-eNk-$",
"=4sNe-$O&Ooo&%.. .;-oo+0$.. .61-;0;... o4$OO;%....-&ooO-O$-qNk4=",
"=4aNe-$.=;;>>O....%>%%&9+.  .14-;0= ....7r009O ...$-##$-o$-eNg4&",
"$>zNe-$#-o..&=...o1+...;4. .%rOoo&rO   &9OXo&;. .O:O...&&$-qNz-$",
"$-gNr;&-#.. X;$OO--... o0211r%.. .91+O#r&   O1$OO-&... o-<6gNu-$",
"$-rNvr9-.... $00ea$.....7aahd.... $ckkke.....%a0wr$.....=6rbNe-$",
"$-aNa<--O....-=%&<0O  .=6O.o1-.  .:0-=-0$.  .;-&&:4o...$&$-eNs-$",
"$;zNe-$$&...$-...or1OO$0$   OrO .$r+...;6...%>...o6:OoO;O$-qNz;$",
"=9gNe-$.-=&&;O....&jura7.... <a:>a:. . o01::4O....%r411-.$-eNg0=",
"&4sNe-$.=:;>>O ...%1&&-6+.  .1:&&7- ....4req9o ...$;%$$-o$-eNg<&",
"$;kNe-$#&...%=...o1O...-1. .&1. .O9O...&5O..&-...O;O...%&$-qNg-$",
"$-uNr;&-+.  X;$OO-&... o4<;:9O....=1$#$9%   .>$OO-&... o-:6gNe-$",
"$-rNk91=.....%1;:6$.....1raa0o .. $r6446.....&9;;1$.....&4rvNe-$",
"$-gNe-$&O...X-+.X$>O  .&1OOo-;....6&XXO1#. .O>#.X#;O...#&$-eNg-$",
"&3gNe-$O&...%&....;=OO#4# . o4-%&<4..  #1o..=-....-&OoO-O$-qNk<%",
"=7aNe-$.&&&&;o... +900r<.....>7&&9= ....<>-;6O... O1<>>&.$-eNg4&",
"$;gNq-$o&###&+....&;&&-1O. .$4O..O1O ..O1&%%;$....&=$$$&o$-eNk;$",
"$-sNe-$%$...o=X..+>o...&;...1&.. .-&X.O:-...O;O..+;o...$%$-qNu-$",
"$-rNg4;=o....$-&&;%... o>;-;7O .. $9;;>6O....&-&&;$.....&;3gNe-$",
"$-gNe-%%o ...$::>>$.....;7696%....>%Ooo;O....$<>>:$.....%>0xNr-$",
"&<gNe-$O%...O&o.X#-O...%;Ooo$1&$%;;....$-...O-o.X+-....#%$-eNk:&",
"&4uNe-$.&$##&#.. .=-$$%>+ ...;-%&>% ....;&$$-$.. .%&###&O$-qNg<&",
"$;gNq-$o&##$-o... $;%%&;.... $$..O;O ..o:&%&>O .. +&##$%.$-eNy:$",
"$-uNe-$$#...#&....&O...&#....%O...%%X.O=%...%=....%O...$O$-eNu;$",
"$-rNg<-&... o&+.X#%... o-O..%%... $>-&->o.. o-$.X#%... o%$-qNu-$",
"$-gNe-$$o ...$&%&-#.....--&=>$....-#ooo-o ...%-&%-@.....%;<fNr-$",
"%<gNe-$O#...O%oOo+&X...$=ooo$-@OO&&....#&...O&oooO%....O$$;eNg;%",
"=4aNs<-$;=&=;&$$$$:;=--4&$$$$>4;>6=$$$$$>;==<=$$$$;;=&=;%-<sNg3=",
"#;gNg0<-4<<19;----<0<160-----1<--<7----:06<3r;----<6<<14-<0jNd:#",
"#&aNbjsgaeeeugeeeegyeeegueeeegeeeezseeejgeeegjeeeegreeesysgbBa-#",
"O%5mBNNNNNNNNNNNNNNNNNNNNNNNNNNNNNNNNNNNNNNNNNNNNNNNNNNNNNNNm9%O",
"o#;eruufeeeeqskggzueeeeqkzkkcreeeegguuakeqeeqgkggzueeeeegggur-#o",
"o+-&&--:<----1;-->4----<4;-;16--->0;---<3---;4;-->4----:1;--*&Oo",
"O##O##$$=%$$=&$$$$-=$$%:&$$$$;-==;=$$$$$;&$$=&$$$$==$$%-%$##O$#O"
};
