/* XPM */
static char *_1b34b367bcc486690abfa1079124a29CGHXGxyCFnB8RBeD[] = {
/* columns rows colors chars-per-pixel */
"64 64 86 1 ",
"  c #0A161B",
". c #0B191E",
"X c #0B1F25",
"o c #2A0F2B",
"O c #2C102D",
"+ c #301131",
"@ c #3F153F",
"# c #18222E",
"$ c #1C2633",
"% c #1C2936",
"& c #1E2B39",
"* c #1D323E",
"= c #212E3C",
"- c #3F1440",
"; c #1D3743",
": c #222F40",
"> c #243343",
", c #273648",
"< c #283648",
"1 c #27384A",
"2 c #2A3A4D",
"3 c #2C3D52",
"4 c #431743",
"5 c #4E1B4F",
"6 c #541C55",
"7 c #571C58",
"8 c #5A1E5A",
"9 c #5F205F",
"0 c #5F2060",
"q c #612062",
"w c #682167",
"e c #6B236B",
"r c #722672",
"t c #7C297C",
"y c #2E4056",
"u c #2F4259",
"i c #31445A",
"p c #7F2C81",
"a c #802B81",
"s c #882D87",
"d c #8B2D8A",
"f c #902F8F",
"g c #90308F",
"h c #922F92",
"j c #933093",
"k c #9A329A",
"l c #A235A2",
"z c #A339A3",
"x c #AE37AD",
"c c #AE38AD",
"v c #B63CB6",
"b c #B83BB7",
"n c #BA3DB9",
"m c #BD3EBD",
"M c #BB41BB",
"N c #BF42BF",
"B c #C043C0",
"V c #C147C1",
"C c #C24AC2",
"Z c #C24DC2",
"A c #C451C4",
"S c #C757C7",
"D c #C758C7",
"F c #C85AC8",
"G c #CA60CA",
"H c #CB65CB",
"J c #CC64CC",
"K c #CE69CE",
"L c #CE6DCE",
"P c #CF6ECF",
"I c #CF72CF",
"U c #D072D0",
"Y c #D176D1",
"T c #D279D2",
"R c #D480D4",
"E c #D686D6",
"W c #DA91DA",
"Q c #DD9ADD",
"! c #F7E9F7",
"~ c #F8E8F8",
"^ c #FAF0FA",
"/ c #FBF1FB",
"( c #FBF2FB",
") c #FBF3FB",
"_ c #FDF7FD",
"` c #FDF8FD",
/* pixels */
"################################################################",
"###$$&*;;;;;;;;;;;;;;;;;;;;;;;;;;;;;;;;;;;;;;;;;;;;;;;;;;*&$$###",
"##$450ertpaaaaaaaaaaaaaaaaaaaaaaaaaaaaaaaaaaaaaaaaaaaaatre954$##",
"#$46edlcvnvvvvvvvnnnnnnnnnnnnnnnnnnnnnnnnnnnbnnnbvvvvvnvclde64$#",
"#$5ehMSJKLJJJJJJJJKKKKKKKKKKKKKKKKKKKKKKKKKKKKKJJKJJJJLLJSMje5$#",
"#&9dM~^^^^^^^^^^^^^^^^^^^^^^^^^^^^^^^^^^^^^^^^^^^^^^^^^^^^~Md0&#",
"#*elS^_^^^^^^^^^^^^^^^^^^^^^^^^^^^^^^^^^^^^^^^^^^^^^^^^^^`^Sle*#",
"#;rcJ^^QWEIJKKKKLLLUUYUUUUYYYYYYYYYYYYYYUUUUUULLLLKKKUEWQ^^Hcr;#",
"#;tvK^^WRLZnnnmmmNNVVVVCCCCCCCCCCCCCCCCCCCCVVVNNmmmnnZKRW^^Lvt;#",
"#;abL^^YFctwwwwwweeeeerrrrrrrrrrrrrrrrrrrrrreeeeewwwwtvDT^^Lna;#",
"#;avJ^^Gvt4oooooooooOOO++++++++++++++++++++OOoooooooo4tvG^^Jva;#",
"#;avJ^^Jns5$$$$$$$%%%%&%&&&&&&&&&&&&&&&&&&%&%%%$$$$$$5snK^^Jva;#",
"#;avJ^^Knd5$$$$%$%&&&&&&&&=============&&&&&&&&%%%$$$5dmK^^Jva;#",
"#;avJ^^Knd5$$$$$%%&&&&=====================&&&&&&%$$$5dmL^^Kba;#",
"#;avJ^^Knd5$$$%%&&&&====::>>>>>>>>>>>>>::=====&&&&%$$6dmL^^Jba;#",
"#;avJ^^Kmd5$$$%&&&&==::>>>>>>>>>>>>>>>>>>>>:===&&&&%$6dNL^^Kba;#",
"#;avJ^^Kmd5$$%%&&====>>>>>>>>>>>>>>>>>>>>>>>>:==&&&&%6fBL^^Kba;#",
"#;avJ^^Lmd6$$%&&&===>>>>>>,,,,11111,,,,,>>>>>>:==&&&%6jVU^^Kba;#",
"#;abJ^^Lmd6$%&&&===>>>>,,,112222222222111,,>>>>:==&&&6hVU^^Kna;#",
"#;abJ^^LNd6$%&&===>>>>,11222222222222222211,>>>>:==&&6hCU^^Kna;#",
"#;abJ^^LNg6%%&&==>>>>,1222223333333333222221,>>>>==&=8jCY^^Lna;#",
"#;abK^^LVj6%&&==>>>>,122223333333333333322221,>>>:=&=8kCY^^Lna;#",
"#;abK^^LVh6%&&==>>>>,22233333333yy33333333222,>>>>===8kCY^^Lna;#",
"#;abK^^IVh6&&&=:>>>,1223333yyyy3yyy3yy33333221,>>>===8kCY^^Lna;#",
"#;abK^^IVh6&&&=:>>,,223333yyyyyyyyyyyyyy333222,>>>:==8kZT^^Lna;#",
"#;abK^^IVh6&&==>>>,1223333yyyyuuuuuyyyyyy333221>>>:==8kZT^^Lna;#",
"#;abK^^IVh7&&==>>>,22233yyyyuuuuuuuuuuyyy333221,>>:==8kZT^^Lna;#",
"#;abK^^UVh7&&==>>>122333yyyuuuuuuuuuuuyyyy33221,>>>==8kAT^^Lna;#",
"#;abK^^UVh7&&=:>>>122333yyyuuuuuuuuuuuuyyy33322,>>>==8kAT^^Lna;#",
"#;abK^^UVh7&&=:>>>12233yyyuuuuuiiiiuuuuyyy33322,>>>==8kAT^^Lna;#",
"#;abK^^UVh7&&=:>>>12233yyyuuuuiiiiiiuuuuyy33322,>>>==8kAT^^Lna;#",
"#;abK^^UVh7&&=:>>>12233yyyuuuuiiiiiiuuuuyy33322,>>>==8kAT^^Lna;#",
"#;abK^^UVh7&&=:>>>12233yyyuuuuiiiiiiuuuuyy33322,>>>==8kAT^^Lna;#",
"#;abK^^UVh7&&=:>>>12233yyyuuuuiiiiiiuuuuyy33322,>>>==8kAT^^Lna;#",
"#;abK^^UVh7&&=:>>>12233yyyuuuuuiiiiiuuuyyy33322,>>>==8kAT^^Lna;#",
"#;abK^^UVh7&&=:>>>122333yyyuuuuuuuuuuuuyyy33322,>>>==8kAT^^Lna;#",
"#;abK^^UVh7&&=:>>>122333yyyuuuuuuuuuuuyyyy33221,>>>==8kAT^^Lna;#",
"#;abK^^IVh7&&==>>>,22233yyyyuuuuuuuuuuyyy333221,>>:==8kZT^^Lna;#",
"#;abK^^IVh6&&==>>>,122333yyyyyuuuuuyyyyyy333221>>>:==8kZT^^Lna;#",
"#;abK^^IVh6&&&=:>>,1223333yyyyyyyyyyyyyy333222,>>>:==8kZY^^Lna;#",
"#;abK^^IVh6&&&=:>>>,1223333yyyyyyyyyyy33333221>>>>===8kCY^^Lna;#",
"#;abK^^IVj6%&&=:>>>,122233333333yy33333333222,>>>>===8kCY^^Lna;#",
"#;abK^^LVj6%&&==>>>>,122223333333333333322222,>>>>=&=7kCY^^Kna;#",
"#;abJ^^LNh6%&&&=:>>>>,1222223333333333222222,>>>>==&=7jCY^^Kna;#",
"#;abJ^^LNd6$%&&==:>>>>,11222222222222222212,>>>>:==&&6hCU^^Kna;#",
"#;abJ^^Lmd6$%&&&==:>>>>,,1112222222222112,,>>>>>==&&&6hVU^^Kna;#",
"#;avJ^^Lmd6$$&&&&==:>>>>>>,,,<111111,<,,>>>>>>:===&&%6hVU^^Kba;#",
"#;avJ^^Kmd5$$%&&&===:>>>>>>>>>>>>>>>>>>>>>>>>:===&&&%6jBL^^Kba;#",
"#;avJ^^Kmd5$$$%&&&&==::>>>>>>>>>>>>>>>>>>>>>===&&&&%$6dBI^^Kba;#",
"#;avJ^^Knd5$$$%%&&&&======>>>>>>>>>>>>>>::====&&&&%$$6dmL^^Kba;#",
"#;avJ^^Knd5$$$$$%&&&&&=====================&&&&&&%%$$5dmL^^Jba;#",
"#;avJ^^Knd5$$$$$$%&&&&&&&&=============&&&&&&&&%%$$$$5dmK^^Jva;#",
"#;avJ^^Jns5$$$$$$$%%%&&&=================&&&&%%$$$$$$5dnK^^Jva;#",
"#;avJ^^IZkw555556666666677888888788778888866666666555wkZU^^Jva;#",
"#;avL^^ELCkdddddddfhhjjjjjjkkkkkkkkkkkjjjjjjjhhdddddskCKE^^Lna;#",
"#;tvK^^WRLZnnnmmmNNVVVVCCCCCCCCCCZCCCCCCCCCCCVNNmmmnnZLRW^^Lvt;#",
"#;rxG^^QWEUJKKKKLLLUUUUUUUYYYYYYYYYUYYYYUUUUUILLLLKKKUEWQ^^Jcr;#",
"#*elD^`^^^^^^^^^^^^^^^^^^^^^^^^^^^^^^^^^^^^^^^^^^^^^^^^^^`^Sle*#",
"#&9dM!^^^^^^^^^^^^^^^^^^^^^^^^^^^^^^^^^^^^^^^^^^^^^^^^^^^^!Md9&#",
"#$5ejzNJKLJJJJJJJJKKKKKKKKKKKKKKKKKKKKKKKKKKKKKJJJJJJJLLJNzje5$#",
"#$46eescvvvvvvvvvvvvvvnnnnnnnnnnnnnnnnnnnnnnvvvvvvvvvvnvcaee64$#",
"##$45-468qqqqqqqqqqqqqqqqqqqqqqqqqqqqqqqqqqqqqqqqqqqqqq864@54$##",
"###$$ .XXXXXXXXXXXXXXXXXXXXXXXXXXXXXXXXXXXXXXXXXXXXXXXXXX. $$###",
"################################################################"
};
