/* XPM */
static char *a4add93d005146d3a5825d41f355f631y57vRn1kHHH4BqJe[] = {
/* columns rows colors chars-per-pixel */
"64 64 20 1 ",
"  c black",
". c black",
"X c black",
"o c black",
"O c black",
"+ c black",
"@ c black",
"# c black",
"$ c black",
"% c black",
"& c black",
"* c black",
"= c black",
"- c black",
"; c black",
": c black",
"> c black",
", c black",
"< c black",
"1 c black",
/* pixels */
"    ;.   X    o  . .       .O       @.   .    o O               ",
"      .     O=X   #@             XX  X   ..    .X       o.      ",
"     X@       X@  +  O          .X:           O$   o   o.    +O.",
"   O        #     O  &-X   O.$              . *  .o  X  #X     X",
"     *      o   .o .o  .   -  O       @             %     #X    ",
";           *    .    O.       X+ o   oo        .o  +o.%X       ",
"  XX @       o     %    o.oo @. X  .                X   .  +.O  ",
"   &   +         $XO      ;  X.    #X              . .    .*    ",
"    $    %  .                :     X            .    #          ",
"    O           O.      o.  . .@   -         X          +.     .",
"            Xoo*X       X       ;       o$ .  X     #X   @     $",
"  ;     %o  .    # o    #    X .o   .      . X$.         o    X ",
"     . o          ,        . .  X. oX  o OX    +.    O   &    . ",
"     @@.   o.       <      O            o*   .   X              ",
"   . ;   .X      @      o&          @           $.    +     .X X",
"          *          .     ..&  @    %      .   O     .%     &  ",
" .                    @   =  @  o   #+X&                  .     ",
"      . X                  .     X    . X#o.      .    .  $     ",
"      O.              o X *  X             #  o   .             ",
"                  X       @        .  @ +         #             ",
"      X.+XX@           .:.      .   +: @. . o      &       X    ",
"     X.X-.    o.+      .  X@       o  @. .#    +.   @       &   ",
"$o& .          .X  X      .o       X  X.     @  *+.  .    .     ",
"  X.@         X  O                 -    .     o  .X &  &   X    ",
"              *       .o.o   =        @o  X&.   .   +   .  .    ",
"$         .  #  .        X     X         @;.    . X&       X@  O",
"O              X      o. &     %     . X OX        @       .o  X",
"    o.     o#  &         X$     O   .O .          X *     +   . ",
"     Xo    #                    X &X              * o &  .@$ .o ",
"   @X@  %          @      $       .=.%      o     . $   + oo#   ",
"     o  +         $.%           o..        XX        &  X  X  o ",
"O            @X   O    .        X  .         .        .XX.. +   ",
"    X          O                   %      $ .@        $   . *   ",
"    . o       &o   X@   *       @X  o. @#@XX                ,X  ",
"oO. ,.                       o&       +.     X     @X   *      .",
"      O= .O  $            X   .@       $    .  %         +X     ",
"-          .Xo      %X        .      o O  .#X  @ O.       o     ",
"        $  X X      O     ;    .  .o  .O  o *             #     ",
"           =    >              O    O.          o   o    X      ",
"     .   =   X   $   #X    X     $ @. .o.   .o.    > OO  $      ",
" $        @  O=  %>               .X   .    .     . = %   O     ",
" o.              . @      o        .                  O   o=&@ o",
"               @    *        O         X     o X  #+O   .   X #.",
"  $X   X    o     1O$.    +            .       .   # ...O  oO X ",
"       =   ..+    . X-    X.  X .O .       %          ,.   X    ",
"   oO   .        X   ;    X%X .     .    + @ $     +. @.+       ",
"   .   X&;.    o =       .O .   o    O*  o    O.$oO   X  *  o.  ",
"       XX    .       *         X. .  . O.O  . #  =O   &%   O.   ",
"        -= =                   X      #     %     X    @   .    ",
"                               ;   X    O   +     .   X@     #  ",
"  %     *    o*o X    .   %X .X  ,@..           .        .  .  .",
"   *$X      - X  &    .       $X  .   .+     o  +.       @   @.+",
"     =              X$        *              .          @%      ",
"o       X                     #X              #      .  +..     ",
"        ;    O              .    &         =  O      o    =.    ",
"             X .    O.      $ X@       .       #   ; . . < $= o ",
"           &. .@ X  O         .o  +    # o&      -     . ..X    ",
" X$      $       .  X       .X @<    $      $.  .   . $  ..  O  ",
".#           O  X++ +  #X            O   +   *oo& . +.O    .    ",
"o   .       +o .o     O      #*o .  X        -    X  @  O X    X",
"..  .    X% o             o% .    + .     O$  =     X#   .+  X  ",
" +             .  .      @ .O  &  #   .#     =   O.    O.   %  @",
"     X         .  $X     o      O O X$ +    # X   . XO % @      ",
"    +    o.                                  +@    .O  X o  O   "
};
