/* XPM */
static char *_54d5af8bb7a4378cfd9d0333d5f02b0Hs628yrvwSTKGZPD[] = {
/* columns rows colors chars-per-pixel */
"64 64 120 2 ",
"   c #030405",
".  c #010C03",
"X  c #05070A",
"o  c #0D040D",
"O  c #06090C",
"+  c #090B0E",
"@  c #011304",
"#  c #070C11",
"$  c #0A0D12",
"%  c #110C15",
"&  c #071112",
"*  c #0C1116",
"=  c #0D141A",
"-  c #081D1E",
";  c #101215",
":  c #11161C",
">  c #13181E",
",  c #07241E",
"<  c #09231D",
"1  c #0F1620",
"2  c #0E1921",
"3  c #121723",
"4  c #131B24",
"5  c #131E29",
"6  c #221C2C",
"7  c #072622",
"8  c #0C2224",
"9  c #072923",
"0  c #082924",
"q  c #0E262A",
"w  c #0F2A2E",
"e  c #102826",
"r  c #15222C",
"t  c #18222D",
"y  c #12292E",
"u  c #172431",
"i  c #192634",
"p  c #132C33",
"a  c #1A2936",
"s  c #1C2738",
"d  c #1C2C3B",
"f  c #123036",
"g  c #14323B",
"h  c #1D303E",
"j  c #222536",
"k  c #21263A",
"l  c #28263B",
"z  c #24293E",
"x  c #1E2E41",
"c  c #1E3242",
"v  c #1D3E52",
"b  c #232D42",
"n  c #2C2C44",
"m  c #312B49",
"M  c #213245",
"N  c #223346",
"B  c #293047",
"V  c #22364A",
"C  c #23384C",
"Z  c #26384C",
"A  c #223650",
"S  c #263B53",
"D  c #253C55",
"F  c #253F54",
"G  c #283B52",
"H  c #253E58",
"J  c #2B3D5B",
"K  c #283F5D",
"L  c #4B0A49",
"P  c #4D0F54",
"I  c #4F1453",
"U  c #47255D",
"Y  c #4D2E69",
"T  c #532565",
"R  c #58256B",
"E  c #572C6F",
"W  c #5B2E74",
"Q  c #5F2F7C",
"!  c #563575",
"~  c #5A3176",
"^  c #602874",
"/  c #652F7F",
"(  c #1D4050",
")  c #1D4252",
"_  c #27405E",
"`  c #28425E",
"'  c #294261",
"]  c #2A4462",
"[  c #2C4663",
"{  c #2B4664",
"}  c #2D4767",
"|  c #2C4864",
" . c #2D4968",
".. c #344162",
"X. c #304B6E",
"o. c #314E70",
"O. c #345172",
"+. c #38567C",
"@. c #643382",
"#. c #633985",
"$. c #7449A7",
"%. c #90178E",
"&. c #8E279C",
"*. c #91269E",
"=. c #91299F",
"-. c #932BA2",
";. c #932BA4",
":. c #932CA5",
">. c #952EA7",
",. c #9C27A9",
"<. c #9D28AA",
"1. c #9D29AB",
"2. c #9731AB",
"3. c #9E2EB2",
"4. c #A625B2",
"5. c #A02EB1",
"6. c #A12DB2",
"7. c #A331B6",
"8. c #AB34BF",
"9. c #E822E8",
/* pixels */
"d : c u a i d i d u a a i d 5 + X * . %.6 3 1 c r p # = i r i 5 d : c u a i d i d u a a i d 5 + X * . %.6 3 1 c r p # = i r i 5 ",
"5   c 3 5 4 5 5 r 4 5 5 4 r 4   d } K v H S ] S u ~ . $ 5 : 5 > 5   c 3 5 4 5 5 r 4 5 5 4 r 4   d } K v H S ] S u ~ . $ 5 : 5 > ",
"u + =   O O + + O + O O + O X   2 u r 4 r t 5 4 z 7.. * t 4 r 4 u + =   O O + + O + O O + O X   2 u r 4 r t 5 4 z 7.. * t 4 r 4 ",
":   Z 5 $ * ; * * $ * * $ : i 4 2 d u x d = d u k 2.. + : = = * :   Z 5 $ * ; * * $ * * $ : i 4 2 d u x d = d u k 2.. + : = = * ",
"+ $ +   +.S ' ` [ F ` ` { d     4 d d 3 & 4 a r l 7.@   $ # $ $ + $ +   +.S ' ` [ F ` ` { d     4 d d 3 & 4 a r l 7.@   $ # $ $ ",
"d h N b 4 r r r t 4 r r y   i 3 5 d d 5 r i d q / #.. r N N N u d h N b 4 r r r t 4 r r y   i 3 5 d d 5 r i d q / #.. r N N N u ",
"3 + *   F u b k k z k m 8.. * X u r 4 r r 5 5 4 - 8 = 3 : $ ; O 3 + *   F u b k k z k m 8.. * X u r 4 r r 5 5 4 - 8 = 3 : + ; O ",
"_ _ | { ( T 5.-.>.=.:.<.! . = X 4     o X           + = x o.] ` _ _ | { ( T 5.-.>.=.:.<.! . = X 4     o X           + = x o.] ` ",
"r r u 4 u q 9 9 0 , 0 0 p $ O A d i y Q b i d u d d d - 4 i r r r r u 4 u q 9 9 0 , 0 9 p $ O A d i y Q b a d u d d d - 4 i r r ",
"d a d d i a a i a u a a d O L J c N N g N N c d N F & P i c d a d a d d i a a i a u a a d O L J c N N g N N c d N F & P i c d a ",
"d d c d $ d a a d i a a h # % c r u u u u e 4.z r d $ 4 r N d d d d c d $ d a a d i a a h # % c r u u u u e 4.z r d $ 4 r N d d ",
"5 5 u = = d a i d u w d d # + N a d a i q W 5.p a N + 3 a u 5 r 5 5 u = = d a i d u w d d # + N a d a i q W 5.p a N + 3 a u 5 r ",
"O O X X = d a i a d E y h $ O V 3 5 u a i q 0 3 5 t = 5 > O X + O O X X = d a i a d E y h $ O V 3 5 u a i q 0 3 5 t = 5 > O X + ",
"i 5 t = c u d i a z <.0 d $ X + $ X * d i d 3 + + + $ 3 r r r 1 i 5 t = c u d i a z <.0 d $ X + $ X * d i d 3 + + + $ 3 r r r 1 ",
"3 $ : : c u d i d j =.0 h X 5 b i = c u i d r   $ X   4 * ; = + 3 $ : : c u d i d j =.0 h X 5 b i = c u i d r   $ X   4 * ; = + ",
"' ] O.$ N u 0 9 9 a ;.0 d # # 5 3 : c d d d r + i o.X.( `  .] ] ' ] O.$ N u 0 9 9 a ;.0 d # # 5 3 : c d d d r + i o.X.( `  .] ] ",
"u a   + V y 3.;.;.5.*.0 h # $ r 3 > d 5 5 r 4 + ; a < U u u u r u a   + V y 3.;.;.5.*.0 h # $ r 3 > d 4 5 r 4 + ; a < U u u u r ",
"u # 4 + V r B b B b p i h # $ 3 : 5 X o X   X O : f Y 9.c u r r u # 4 + V r B b B b p i h # $ 3 : 5 X o X   X O : f Y 9.c u r r ",
"O $ $   N u i u a u a d h $ + Z u s w @.b d d 3 : d b d d + $ O O $ $   N u i u a u a d h $ + Z u s w @.b d d 3 : d b d d + $ O ",
"u 3 r : c u d i d a a a h $ X G c c N g p J # $ 3 x a u x $ $ 3 u 3 r : c u d i d a a a h $ X G c c N g p J # $ 3 x a u x $ $ 3 ",
"u 3 r = c u d i d u d i h # # c i b z n ^ p $ $ 3 d i u d $ $ 3 u 3 r = c u d i d u d i h # + c i b z n ^ p $ $ 3 d i u d $ $ 3 ",
"i t a 5 d i a a d O c a c # O g E 3.;.<.W f $ = t V N d S # = r i t a 5 d i a a d O c a c # O g E 3.;.<.W f $ = t V N d S # = r ",
"3       Z t a i i O c i d *   C 8 9 9 9 q b *     * X O   2     3       Z t a i i O c i d *   C 8 9 9 9 q b *     * O O   2     ",
"i $ ' d a u a d 4 O d a h X 4 d i a u a i h O 5 V V a i d i N N i $ ' d a u a d 4 O d a h X 4 d i a u a i h + 5 V V a i d i N N ",
"= + i $ x t a d 5 4 d a d #   N a d a d a N # + * V V N c ` + # = + i $ x u a d 5 4 d a d #   N a d a d a N # + * V V N c ` + # ",
"3 + d = d r i r d u u a d # + d 4 5 5 r 5 r = $ 3 d a i i N + = 3 + d = d r i r d u u a d # + d 4 5 5 r 5 r = $ 3 d a i i N + = ",
"3 O d $ V d c d c d d c C + : $ + X X O X   + * 5 d 5 5 5 u * * 3 O d $ V d c d c d d c C + : $ + X X O X   + * 5 d 5 5 5 u * * ",
"3 + d 4 = # $ + $ + # $ # 2 # 3 3 5 3 5 3 4 4 $ *   # + + O $ = 3 + d 4 = # $ + $ + # $ # 2 # 3 3 5 3 5 3 4 4 $ *   # + + O $ = ",
"3 + 5 $ +   X   X     X     * 3 4 4 4 4 3 5 * } H X.V + * = # 3 3 + 5 $ +   X   X     X     * 3 4 4 4 4 3 5 * } H X.V + * = # 3 ",
"3   O.F ] J J J ' J J ..$.( | X 5 5 5 5 4 5 3 r 3 i   $ r 5 3 5 3   O.F ] J J J ' J J ..$.( | X 5 5 5 5 4 5 3 r 3 i   $ r 5 3 5 ",
"$ O d 3 8 ,.*.*.*.&.*.,.R < 3   : = = & * = $ h t x # + = = * = $ O d 3 8 ,.*.*.*.&.*.,.R < 3   : = = & * = $ h t x # + = = * = ",
"$ = c u i 7 7 7 0 , 7 0 q a 5 X + = . I % * + c r d $ X = * $ * $ = c u i 7 7 7 0 , 7 0 q a 5 X + = . I % * + c r d $ X = * $ * ",
"d : c u a i d i d u a a i d 5 + X * . %.6 3 1 c r p # = i r i 5 d : c u a i d i d u a a i d 5 + X * . %.6 3 1 c r p # = i r i 5 ",
"5   c 3 5 4 5 5 r 4 5 5 4 r 4   d } K v H S ] S u ~ . $ 5 : 5 > 5   c 3 5 4 5 5 r 4 5 5 4 r 4   d } K v H S ] S u ~ . $ 5 : 5 > ",
"u + =   O O + + O + O O + O X   2 u r 4 r t 5 4 z 7.. * t 4 r 4 u + =   O O + + O + O O + O X   2 u r 4 r t 5 4 z 7.. * t 4 r 4 ",
":   Z 5 $ * ; * * $ * * $ : i 4 2 d u x d = d u k 2.. + : = = * :   Z 5 $ * ; * * $ * * $ : i 4 2 d u x d = d u k 2.. + : = = * ",
"+ $ +   +.S ' ` [ F ` ` { d     4 d d 3 & 4 a r l 7.@   $ # $ $ + $ +   +.S ' ` [ F ` ` { d     4 d d 3 & 4 a r l 7.@   $ # $ $ ",
"d h N b 4 r r r t 4 r r y   i 3 5 d d 5 r i d q / #.. r N N N u d h N b 4 r r r t 4 r r y   i 3 5 d d 5 r i d q / #.. r N N N u ",
"3 + *   F u b k k z k m 8.. * X u r 4 r r 5 5 4 - 8 = 3 : $ ; O 3 + *   F u b k k z k m 8.. * X u r 4 r r 5 5 4 - 8 = 3 : $ ; O ",
"_ _ | { ( T 5.-.>.=.:.<.! . = X 4     o X           + = x o.] ` _ _ | { ( T 5.-.>.=.:.<.! . = X 4     o X           + = x o.] ` ",
"r r u 4 u q 9 9 0 , 0 9 p $ O A d i y Q b i d u d d d - 4 i r r r r u 4 u q 9 9 0 , 0 9 p $ O A d i y Q b i d u d d d - 4 i r r ",
"d a d d i a a i a u a a d O L J c N N g N N c d N F & P i c d a d a d d i a a i a u a a d O L J c N N g N N c d N F & P i c d a ",
"d d c d $ d a a d i a a h # % c r u u u u e 4.z r d $ 4 r N d d d d c d $ d a a d i a a h # % c r u u u u e 4.z r d $ 4 r N d d ",
"5 5 u = = d a i d u w d d # + N a d a i q W 5.p a N + 3 a u 5 r 5 5 u = = d a i d u w d d # + N a d a i q W 5.p a N + 3 a u 5 r ",
"O O X X = d a i a d E y h $ O V 3 5 u a i q 0 3 5 t = 5 > O X + O O X X = d a i a d E y h $ O V 3 5 u a i q 0 3 5 t = 5 > O X + ",
"i 5 t = c u d i a z <.0 d $ X + $ X * d i d 3 + + + $ 3 r r r 1 i 5 t = c u d i a z <.0 d $ X + $ X * d i d 3 + + + $ 3 r r r 1 ",
"3 $ : : c u d i d j =.0 h X 5 b i = c u i d r   $ X   4 * ; = + 3 $ : : c u d i d j =.0 h X 5 b i = c u i d r   $ X   4 * ; = + ",
"' ] O.$ N u 0 9 9 a ;.0 d # # 5 3 > c d d d r + i o.X.( `  .] ] ' ] O.$ N u 0 9 9 a ;.0 d # # 5 3 > c d d d r + i o.X.( `  .] ] ",
"u a   + V y 3.;.;.5.*.0 h # $ r 3 > d 5 5 r 4 + : a < U u u u r u a   + V y 3.;.;.5.*.0 h # $ r 3 > d 5 5 r 4 + : a < U u u u r ",
"u # 4 + V r B b B b p i h # $ 3 : 5 X o X   X O : f Y 9.c u r r u # 4 + V r B b B b p i h # $ 3 : 5 X o X   X O : f Y 9.c u r r ",
"O $ $   N u i u a u a d h $ + Z u s w @.b d d 3 : d b d d + $ O O $ $   N u i u a u a d h $ + Z u s w @.b d d 3 : d b d d + $ O ",
"u 3 r : c u d i d a a a h $ X G c c N g p J # $ 3 x a u x $ $ 3 u 3 r : c u d i d a a a h $ X G c c N g p J # $ 3 x a u x $ $ 3 ",
"u 3 r = c u d i d u d i h $ + c i b z n ^ p $ $ 3 d i u d $ $ 3 u 3 r = c u d i d u d i h $ + c i b z n ^ p $ $ 3 d i u d $ $ 3 ",
"i t a 5 d i a a d O c a c $ O g E 3.;.<.W f $ = t V N d S # = r i t a 5 d i a a d O c a c $ O g E 3.;.<.W f $ = t V N d S # = r ",
"3       Z t a i i O c i d *   C 8 9 9 9 q b *     * X O   2     3       Z t a i i O c i d *   C 8 9 9 9 q b *     * X O   2     ",
"i $ ' d a u a d 4 O d a h X 4 d i a u a i h O 5 V V a i d i N N i $ ' d a u a d 4 O d a h X 4 d i a u a i h O 5 V V a i d i N N ",
"= + i $ x u a d 5 4 d a d #   N a d a d a N # + * V V N c ` + # = + i $ x u a d 5 4 d a d #   N a d a d a N # + * V V N c ` + # ",
"3 + d = d r i r d u u a d # + d 4 5 5 r 5 r = $ 3 d a i i N + = 3 + d = d r i r d u u a d # + d 4 5 5 r 5 r = $ 3 d a i i N + = ",
"3 O d $ V d c d c d d c C + : $ + X X O X   + * 5 d 5 5 5 u * * 3 O d $ V d c d c d d c C + : $ + X X O X   + * 5 d 5 5 5 u * * ",
"3 + d 4 = # $ + $ + # $ # 2 # 3 3 5 3 5 3 4 4 $ *   # + + O $ = 3 + d 4 = # $ + $ + # $ # 2 # 3 3 5 3 5 3 4 4 $ *   # + + O $ = ",
"3 + 5 $ +   X   X     X     * 3 4 4 4 4 3 5 * } H X.V + * = # 3 3 + 5 $ +   X   X     X     * 3 4 4 4 4 3 5 * } H X.V + * = # 3 ",
"3   O.F ] J J J ' J J ..$.( | X 5 5 5 5 4 5 3 r 3 i   $ r 5 3 5 3   O.F ] J J J ' J J ..$.( | X 5 5 5 5 4 5 3 r 3 i   $ r 5 3 5 ",
"$ O d 3 8 ,.*.*.*.&.*.,.R < 3   : = = & * = $ h t x # + = = * = $ O d 3 8 ,.*.*.*.&.*.,.R < 3   : = = & * = $ h t x # + = = * = ",
"$ = c u i 7 7 7 0 , 7 0 q a 5 X + = . I % * + c r d $ X = * $ * $ = c u i 7 7 7 0 , 7 0 q a 5 X + = . I % * + c r d $ X = * $ * "
};
