/* XPM */
static char *_b5975deb853439bccfa81f5e8597a3dwZIodeJ3B3WABEzj[] = {
/* columns rows colors chars-per-pixel */
"64 64 82 1 ",
"  c #030103",
". c #0A030A",
"X c #130613",
"o c #180718",
"O c #1B081B",
"+ c #260C26",
"@ c #2B0E2B",
"# c #2E102E",
"$ c #300F30",
"% c #341134",
"& c #3D143D",
"* c #421542",
"= c #4A174A",
"- c #4D194D",
"; c #521A52",
": c #5C1E5C",
"> c #5D215D",
", c #611F61",
"< c #642064",
"1 c #6C246C",
"2 c #722572",
"3 c #762976",
"4 c #7A277A",
"5 c #7C2A7C",
"6 c #842C84",
"7 c #8A2E8A",
"8 c #863086",
"9 c #8C318C",
"0 c #942F94",
"q c #953295",
"w c #9A349A",
"e c #9E389E",
"r c #A236A2",
"t c #A439A4",
"y c #AA37AA",
"u c #AC3BAC",
"i c #B23DB2",
"p c #B83FB8",
"a c #BA3EBA",
"s c #B540B5",
"d c #BB40BB",
"f c #BC42BC",
"g c #BF45BF",
"h c #C145C1",
"j c #C247C2",
"k c #C14AC1",
"l c #C34DC3",
"z c #C451C4",
"x c #C452C4",
"c c #C655C6",
"v c #C759C7",
"b c #CA5FCA",
"n c #CA62CA",
"m c #CD69CD",
"M c #D173D1",
"N c #D484D4",
"B c #D78AD7",
"V c #D88DD8",
"C c #DA93DA",
"Z c #DC97DC",
"A c #DD9CDD",
"S c #DEA1DE",
"D c #DFA3DF",
"F c #E0A1E0",
"G c #E2A7E2",
"H c #E2ABE2",
"J c #E3ABE3",
"K c #E3AFE3",
"L c #E4AEE4",
"P c #E5B1E5",
"I c #E6B1E6",
"U c #E7B7E7",
"Y c #E7B8E7",
"T c #E8BAE8",
"R c #E8BDE8",
"E c #E9BEE9",
"W c #EBC0EB",
"Q c #EBC4EB",
"! c #EDCAED",
"~ c #EFD1EF",
"^ c #F0CEF0",
"/ c #F0D3F0",
/* pixels */
"IILLLLLLKLLLEBq:+X O++@@@@@@@@@@@@@@@@@@@@@++o  +:qVWUILLLLIIIII",
"upteeeqqqtpcHUj3%O .O+@@@@@@@@@@@@@@@@@@@@@++o o%5dIKmkuewtudffi",
"::;;;--;;:4inTZ7=+o o++@@@@@@@@@@@@@@@@@@@++O .O-qCTcw1:===;:::;",
"+++++++OOO%2pFEt1%O. O+@@@@@@@@@@@@@@@@@@@++X o@2dEGt*++OOOO++++",
"          o*5uUS7-+O X+++@@@@@@@@@@@@@@@@++O X+*qSTf2++X        ",
"OOOOOOOOo  +;0jTu1%+. O++@@@@@@@@@@@@@@@++O. O=6jYx0=+O  XOOOOOO",
"++++++++O. .%5pLK9-+O .O+@@@@@@@@@@@@@@@++o o@1fLLu:@O. .O++++++",
"@@@@@@@++O  +;qxWB1@+X O++@@@@@@@@@@@@@@+O  O=eCWl6&+X .O++@@@@@",
"@@@@@@@@@+o  +1tGU9=@O  O+++++++++++++++Oo o+<gTHu:@O  o++@@@@@@",
"@@@@@@@@++O. .*2uTC3&+o XoOOOOOOOOOOOOOOo .O-rCTd6&O. XO++@@@@@@",
"@@@@@@@@@++O  @&2CTi<@O.                  O%5xTCw:+X .O++@@@@@@@",
"@@@@@@@@@+++X  O-tYHw:++oXXXXXXXXXXXXXXXXo&1fGUu2*O. o++@@@@@@@@",
"@@@@@@@@@@++O. X%4lEb7&@@++++++@+++++++++@:unEft,+. .O++@@@@@@@@",
"@@@@@@@@@@@++O  +:eKUj6462343356521211<235tbUHpq=X  O++@@@@@@@@@",
"@@@@@@@@@@@+++X .&1uEHdjdiuiiudjitttrrrtupcHEff7%  X++@@@@@@@@@@",
"@@@@@@@@@@@@++O. *2qSQWWWWWWWWWWWWWWWWWWWWWQAte1O .O++@@@@@@@@@@",
"@@@@@@@@@@@@++O..;6wGQUHHGGGGGGGHHHHHHHHHHL!Gt7-X .O++@@@@@@@@@@",
"@@@@@@@@@@@@++O.+3reEHxq222222222111111119pGEgt:. .O++@@@@@@@@@@",
"@@@@@@@@@@@@++o.*wuKLdq,--------==&&&&&&*:6uKIx7%  O++@@@@@@@@@@",
"@@@@@@@@@@@++O.O1uCEt,*+OOOOOOOOOOOOOOOOO@;7sWAg<O .O+@@@@@@@@@@",
"@@@@@@@@@@+++X *qfTA4%+X                  @:eGEnw:. X++@@@@@@@@@",
"@@@@@@@@@@++o o1iFUt:+O .oOOOOOOOOOOOOOoX X&,uUFf5+  O+@@@@@@@@@",
"@@@@@@@@@++O..*wjEV6&O. OO++++++++++++++O. O%1BTxq=. .O+@@@@@@@@",
"@@@@@@@@+++X +1uHUt,@o X+++++++++++++++++O .+&9ULk3@. o++@@@@@@@",
"@@@@@@@@++O X:7NEN4*O. O++@@@@@@@@@@@@@@@+X o@<NWVt=o .O+@@@@@@@",
"@@@@@@@@+O..&7pIG9=+o o++@@@@@@@@@@@@@@@++O .O&6HIg1@. XO+@@@@@@",
"++++++++Oo +<iZEd,@O .O++@@@@@@@@@@@@@@@@++o o+*wTZw;O  XO++++++",
"OOOOOOOOo .-7sEGw*+X o++@@@@@@@@@@@@@@@@@++O. O@2AEv6%o  oOOOOOO",
"#@@++++@@#-qgGTd2@o .O++@@@@@@@@@@@@@@@@@@++O X+*tTHd1%.        ",
";<<====;,,3uVEC7=O. O++@@@@@@@@@@@@@@@@@@@++O. o+5CWCkq<*@@@@+oX",
"9w9<>>>145qsIUd2%O X++@@@@@@@@@@@@@@@@@@@@@++O .+:uUUMmkt9799754",
"QQQQQQQQQQQQQGf,+. O++@@@@@@@@@@@@@@@@@@@@@++O. O;wAQQ!Q!!!!!!!!",
"UIKKHHLLLKK!!Ul<+X O++@@@@@@@@@@@@@@@@@@@@@++O  +;qK!!KLKHHHHHKI",
"twwqeerippfHWWZ1%O .O+@@@@@@@@@@@@@@@@@@@@@++o o%2B!!Htrq6434369",
"::::::,27ujfU!Y6=+o o++@@@@@@@@@@@@@@@@@@@++O .+:uT!Ytw62,::::,1",
"+++++++@=4qytW!C1%O. O+@@@@@@@@@@@@@@@@@@@++X o%6A!Q9q4&@+++++++",
"         .&1qI!Ww:@o X+++@@@@@@@@@@@@@@@@++O X@:iW!I74=o        ",
"OOOOOOOOo .%<wE!G6*+. O++@@@@@@@@@@@@@@@++O. +=6S!Eq6;@  XOOOOOO",
"++++++++O. .-7HQQu1#O .O+@@@@@@@@@@@@@@@++o o-7fQ!Sq:@. .O++++++",
"@@@@@@@++O  @4qE!U9=+X O++@@@@@@@@@@@@@@+O  @<iI!Ew<%X .O++@@@@@",
"@@@@@@@@@+o X:qS!!u1%O  O+++@@@@++++++++Oo O*0f!!S5=O  o++@@@@@@",
"@@@@@@@@++O. @3wU!Yq;+o XoOOOOOOOOOOOOOOo .@<tU!Ur1+. XO++@@@@@@",
"@@@@@@@@@++O  =49W^A3%O.                  O=6A!Wr0,o .O++@@@@@@@",
"@@@@@@@@@+++X o=5H!Qt2=+OoXXXXXXXXXXXXXXXO;5dQ!H62&. o++@@@@@@@@",
"@@@@@@@@@@++O. +19E~Hr1;-;==%%@@@+@@+++@@=4iH/E61-X .O++@@@@@@@@",
"@@@@@@@@@@@++O  &3S!!r61<142111,111,,:<136rs!!S1:%  O++@@@@@@@@@",
"@@@@@@@@@@@+++X +;3Y!Qq649qqqwqquurwqqwwtueQ/Y61-o X++@@@@@@@@@@",
"@@@@@@@@@@@@++o. %<G!/!QQWWWWWWWWWWWWWWWWQ!/!G71% .O++@@@@@@@@@@",
"@@@@@@@@@@@@++O. =5S~/TTIHHHHHHHHHHHHHHHITE~/S9,O .O++@@@@@@@@@@",
"@@@@@@@@@@@@++O..:rT/Tfuq4111111111111157iME/Y7;. .O++@@@@@@@@@@",
"@@@@@@@@@@@@++o O4f!Ei62:=&&&&&&&&&&&&&=-3pbE!w,O  O++@@@@@@@@@@",
"@@@@@@@@@@@++O. &9W!s<%+OOOOOOOOOOOOOOOOO@:7d!W6%. .O+@@@@@@@@@@",
"@@@@@@@@@@+++X @1u^Y4%+X                  @;wY!t;+  X++@@@@@@@@@",
"@@@@@@@@@@++o  =wQQq=+O .oOOOOOOOOOOOOOoX X%:dQQ6&X  O+@@@@@@@@@",
"@@@@@@@@@++O. O3I^S<+O. OO++++++++++++++O. O&wK!I>+. .O+@@@@@@@@",
"@@@@@@@@+++X .$9!W8*+o X+++++++++++++++++O .@4vQ!8%O. o++@@@@@@@",
"@@@@@@@@++O  +:Y/A;+O. O++@@@@@@@@@@@@@@@+X O-tH!E<%o .O+@@@@@@@",
"@@@@@@@@+O. .-8!Y6%+o o++@@@@@@@@@@@@@@@++O .@1sT!r-O. XO+@@@@@@",
"++++++++Oo .*5W!u,+O .O++@@@@@@@@@@@@@@@@++o o@1f!W8*o  XO++++++",
"OOOOOOOOo .&4S/Kq=+X o++@@@@@@@@@@@@@@@@@++O. O%qI/S3%o  oOOOOOO",
"....oOOOO+;7s!Ww1%O .O++@@@@@@@@@@@@@@@@@@++O X+>dW!u1%.        ",
"@&&**==-;1rjI/A5;O. O++@@@@@@@@@@@@@@@@@@@++O. o@7K!Ui6:&*;-==*$",
"133456999rjk~E64*O X++@@@@@@@@@@@@@@@@@@@@@++O .+,fW!ki959erqeu8",
"!!!!!!!!!!!T/Gq5%. O++@@@@@@@@@@@@@@@@@@@@@++O. O=qH!EQ!!!!!!!!!"
};
