/* XPM */
static char *b7482d2174f94467af8460517755d7dcfKe3RGnDv13fEc3z[] = {
/* columns rows colors chars-per-pixel */
"64 64 204 2 ",
"   c #030405",
".  c #0F0105",
"X  c #010C03",
"o  c #05070A",
"O  c #0D040C",
"+  c #06090C",
"@  c #090B0E",
"#  c #110206",
"$  c #13050B",
"%  c #1B070B",
"&  c #1B040C",
"*  c #14080E",
"=  c #011304",
"-  c #070C11",
";  c #0A0D12",
":  c #160710",
">  c #1C0711",
",  c #150A12",
"<  c #1B0B14",
"1  c #1C0E19",
"2  c #061111",
"3  c #0C1116",
"4  c #0D131A",
"5  c #081D1E",
"6  c #101215",
"7  c #1E1017",
"8  c #11161D",
"9  c #1E111B",
"0  c #13191E",
"q  c #23020C",
"w  c #21080E",
"e  c #240514",
"r  c #230A15",
"t  c #290815",
"y  c #25071A",
"u  c #240A1B",
"i  c #2B0C1C",
"p  c #24141D",
"a  c #29151E",
"s  c #28181F",
"d  c #32101E",
"f  c #07241E",
"g  c #09231D",
"h  c #0F1620",
"j  c #0E1921",
"k  c #111723",
"l  c #131B24",
"z  c #131E29",
"x  c #191F2B",
"c  c #2C0A23",
"v  c #2F0A28",
"b  c #330829",
"n  c #221624",
"m  c #2A1A24",
"M  c #251A28",
"N  c #351826",
"B  c #3F1A2B",
"V  c #072522",
"C  c #0C2224",
"Z  c #072923",
"A  c #082924",
"S  c #0E262A",
"D  c #0F2A2E",
"F  c #122427",
"G  c #102826",
"H  c #15222C",
"J  c #18222D",
"K  c #12292E",
"L  c #172431",
"P  c #192634",
"I  c #132C33",
"U  c #1A2936",
"Y  c #1C2738",
"T  c #1C2C3B",
"R  c #123036",
"E  c #14323B",
"W  c #1D303E",
"Q  c #26252C",
"!  c #39222C",
"~  c #21263A",
"^  c #262538",
"/  c #24293E",
"(  c #322835",
")  c #372C39",
"_  c #392C3B",
"`  c #24383E",
"'  c #401A2C",
"]  c #440E34",
"[  c #471B36",
"{  c #492A37",
"}  c #572B3E",
"|  c #50343F",
" . c #1E2E41",
".. c #1E3242",
"X. c #1D3E52",
"o. c #232D42",
"O. c #2B2C44",
"+. c #312B49",
"@. c #223145",
"#. c #213245",
"$. c #22364A",
"%. c #2B3248",
"&. c #23384C",
"*. c #34334E",
"=. c #383A48",
"-. c #223650",
";. c #253B53",
":. c #283B52",
">. c #253D58",
",. c #2B3E5B",
"<. c #373952",
"1. c #4B0A49",
"2. c #4D0F54",
"3. c #4F1453",
"4. c #6A1A51",
"5. c #5C2E42",
"6. c #433546",
"7. c #423D4B",
"8. c #573746",
"9. c #47255D",
"0. c #553359",
"q. c #623345",
"w. c #6C3D4F",
"e. c #6C3853",
"r. c #4D2E69",
"t. c #552668",
"y. c #59256C",
"u. c #572C6F",
"i. c #5B2E74",
"p. c #5F2F7C",
"a. c #583375",
"s. c #632C7A",
"d. c #1D4252",
"f. c #37404E",
"g. c #27415D",
"h. c #28425D",
"j. c #2A4562",
"k. c #2C4965",
"l. c #2D4968",
"z. c #344162",
"x. c #304B6E",
"c. c #314E71",
"v. c #345172",
"b. c #38567C",
"n. c #4A4958",
"m. c #51525F",
"M. c #6A4253",
"N. c #734356",
"B. c #7A4B5B",
"V. c #78525E",
"C. c #475367",
"Z. c #585969",
"A. c #7D5364",
"S. c #57606E",
"D. c #616C7B",
"F. c #63717F",
"G. c #855264",
"H. c #845569",
"J. c #88576A",
"K. c #8A596B",
"L. c #875A71",
"P. c #99667A",
"I. c #C8516C",
"U. c #643683",
"Y. c #677684",
"T. c #7449A7",
"R. c #90178E",
"E. c #842984",
"W. c #893188",
"Q. c #8E279C",
"!. c #91269E",
"~. c #91299F",
"^. c #932BA4",
"/. c #9C27A9",
"(. c #9D29AB",
"). c #9731AB",
"_. c #9E2EB2",
"`. c #A625B2",
"'. c #A12DB2",
"]. c #A231B7",
"[. c #AB34BF",
"{. c #9E5181",
"}. c #A15485",
"|. c #A87183",
" X c #E822E8",
".X c #74929B",
"XX c #7B9DA9",
"oX c #AA8395",
"OX c #BB8597",
"+X c #85AEBA",
"@X c #85B3BC",
"#X c #CC94A7",
"$X c #88AFC1",
"%X c #89B6C1",
"&X c #8BBBC5",
"*X c #8EBDCA",
"=X c #A5BEE0",
"-X c #8EC5CD",
";X c #8FC9CF",
":X c #8FC7D0",
">X c #91CAD3",
",X c #93CAD6",
"<X c #95D2DC",
"1X c #AECFF1",
/* pixels */
"T 8 ..L U P T P T L U U P T z @ o 3 X R.M k h ..H I - 4 P H P z T 8 ..L U P T P T L U U P T z @ o 3 X R.M k h ..H I - 4 P H P z ",
"z   ..k z l z z H l z z l H l   T l.,.X.>.;.j.;.L a.X ; z 8 z 0 z   ..k z l z z H l z z l H l   T l.,.X.>.;.j.;.P a.X ; z 8 z 0 ",
"L @ 4   + + @ @ + @ + + @ + o   j L H l H J z l / ].X 3 J l H l L @ 4   + + @ @ + @ + + @ + o   j L H l H J z l / ].X 3 J l H l ",
"8   &.z ; 3 6 3 3 ; 3 3 ; 8 P l j T L  .T 4 T L ~ ).X @ 8 4 4 3 8   &.z ; 3 6 3 3 ; 3 3 ; 8 P l j T L  .T 4 T L ~ ).X @ 8 4 4 3 ",
"@ ; @   b.;.j.h.j.;.h.h.j.T     l T T k 2 l U H ^ ].=   ; - ; ; @ ; @   b.;.j.h.j.;.h.h.j.T     l T T k 2 l U H ^ ].=   ; - ; ; ",
"T W #.o.l H H H J l H H K   P k z T T z H P T S s.U.X H #.#.#.L T W #.o.l H H H J l H H K   P k z T T z H P T S s.U.X H #.#.#.L ",
"k @ 3   ;.L o.~ ~ / ~ +.[.X 3 o L H l H H z z l 5 C 4 k 8 ; 6 + k @ 3   ;.L o.~ ~ / ~ +.[.X 3 o L H l H H z z l 5 C 4 k 8 @ 6 + ",
"g.g.k.j.d.t.'.^.^.~.^.(.a.X 4 o l     O o           @ 4  .c.j.h.g.g.k.j.d.t.'.^.^.~.^.(.a.X 4 o l     O o           @ 4  .c.j.h.",
"H H L l L S Z Z A f A A I ; + -.T P K p.o.P T L T T T 5 l P H H H H L l L S Z Z A f A Z I ; + -.T P K p.o.U T L T T T 5 l P H H ",
"T U T T P U U P U L U U T + 1.,...#.#.E #.#...T #.;.2 2.P ..T U T U T T P U U P U L U U T + 1.,...#.#.E #.#...T #.;.2 2.P ..T U ",
"T T ..T ; T U U T P U U W - , ..H L L L L G `./ H T ; l H #.T T T T ..T ; T U U T P U U W - , ..H L L L L G `./ H T ; l H #.T T ",
"z z L 4 4 T U P T L D T T - @ #.U T U P S i.'.I U #.@ k U L z H z z L 4 4 T U P T L D T T - @ #.U T U P S i.'.I U #.@ k U L z H ",
"+ + o o 4 T U P U T u.K W ; + $.k z L U P S A k z J 4 z 0 + o @ + + o o 4 T U P U T u.K W ; + $.k z L U P S A k z J 4 z 0 + o @ ",
"P z J 4 ..L T P U / (.A T ; o @ ; o 3 T P T k @ @ @ ; k H H H h P z J 4 ..L T P U / (.A T ; o @ ; o 3 T P T k @ @ @ ; k H H H h ",
"k ; 8 8 ..L T P T ~ ~.A W o z o.P 4 ..L P T H   ; o   l 3 6 4 @ k ; 8 8 ..L T P T ~ ~.A W o z o.P 4 ..L P T H   ; o   l 3 6 4 @ ",
"j.j.v.; #.L A Z Z I ^.A T - - z k 8 ..T T T H @ P c.x.d.h.l.j.j.j.j.v.; #.L A Z Z I ^.A T - - z k 8 ..T T T H @ P c.x.d.h.l.j.j.",
"L U   @ $.K _.^.^.'.!.A W - ; H k 0 T z l 6.( m N _ ( 0._ ) _ ) ) _ a m =.) W.E.W.E.!.A W - ; H k 0 T z z H l + 6 U g 9.L L L H ",
"L - l @ $.H %.o.%.o.I P W - ; l 8 z o O O |.d B B B [ 4.' ' ' B ' B B B ' B [ [ w.M.I P W - ; l 8 z o O o   o + 8 R r. X..L H H ",
"+ ; ;   #.L P L U L U T W ; @ &.L Y D U.O.G.* $ $ , , * * # # . . # # # , > r > i A.U T W ; @ &.L Y D U.o.T T 0 8 T o.T T @ ; + ",
"L k H 8 ..L T P T U U U W ; o :.....#.E I L.# # $ , * * * # # $ * $ * # u y u , i H.U U W ; o :.....#.E I ,.- ; k  .U L  .; ; k ",
"L k H 4 ..L T P T L T P W - - ..P o./ O.y.J.# # $ * * * * # # $ * $ > e i e , * i A.T P W - @ ..P o./ O.s.I ; ; l T P L T ; ; k ",
"P J U z T P U U T + ..U ..- + E u._.^.(.u.J.# # * , , * , # $ * * > y y < * * * i B...U ..- + E u._.^.(.i.R ; 4 J &.#.T ;.- 4 H ",
"k       &.J U P P + ..P T 3   &.C Z Z Z F K.# # . # . . . $ . # e e & $ , * * * i B...P T 3   &.C Z Z Z S o.3     3 o +   j     ",
"P ; j.T U L U T l + T U W o l T P U L U L K.. $ , , * : * * r i e & < , * * * * y B.T U W o l T P U L U P ..@ z $.$.U P T P #.#.",
"4 @ P ;  .J U T z l T U T -   #.U T U T P K.. # # < , , S.+X;X;X-X.X=.# , * * * y A.T U T -   #.U T U T U #.- @ 3 $.$.#...h.@ - ",
"k @ T 4 T H P H T L L U T - @ T k z z H z J.# # * , ) ,XXX7.r & 7 n.*X+X< * * $ i A.L U T - @ T l z z H z H 4 ; k T U P P #.@ 4 ",
"k + T ; &.T ..T ..T T ..&.@ 8 ; @ o o + @ G.. # $ n.>XN q > # # $ # * m.<X7 , , c A.T ..&.@ 8 ; @ o o + o   @ 3 z T z z z L 3 3 ",
"k @ T l 4 - ; @ ; @ - ; - j - k k z k z l H.$ # n -Xe q & # # $ $ # , $ 7.&X# # t B.- ; - j - k k z k z k l l ; 3   - @ @ + ; 4 ",
"k @ z ; @   o   o     o     3 k l l l l l H.# 1 -Xn.r & # # # $ $ # * $ # XXZ.# y B.  o     3 k l l l l k z 3 l.>.x.$.@ 3 4 - k ",
"k   v.;.j.,.,.,.j.,.,.z.T.d.k.o z z z z l J.$ ! :Xw $ $ : * * * * # 9 1 1 M <X< v L.,.z.T.d.k.o z z z z l z k H k U   ; H z k z ",
"; + T k C /.!.!.!.Q.!./.y.g k   8 4 4 2 Q 5.& F.Y.p ;X-X&X* >X-X%X$ ,X>X&Xv =X[ ] {.!.(.y.g k   8 4 4 2 3 4 ; W J  .- @ 4 4 3 4 ",
"; 4 ..L P V V V A f V A S U z o @ 4 X 3.( } # @X7.n ;X;X%X* >X>X%X* <X,X&X% @X7.i V.V A S U z o @ 4 X 3., 3 @ ..H T ; o 4 3 ; 3 ",
"T 8 ..L U P T P T L U U P T z @ o 3 X R.6.} $ +X7.9 ;X:X*X, ,X>X*X* <X>X-Xt %X7.i A.U U P T z @ o 3 X R.M k h ..H I - 4 P H P z ",
"z   ..k z l z z H l z z l H l   T l.,.X.C.5., D.Y.u $ $ * * $ $ $ # 1 e r % *Xp y A.z z l H l   T l.,.X.>.;.j.;.L a.X ; z 8 z 0 ",
"L @ 4   + + @ @ + @ + + @ + o   j L H l =.} $ m >Xv # # $ p ,X>X*X& y q & 1 -X# y B.+ + @ + o   j L H l H J z l / ].X 3 J l H l ",
"8   &.z ; 3 6 3 3 ; 3 3 ; 8 P l j T L  .%.w.* * *X0.. # $ p >X>X&Xq u > # XXZ.# t B.3 3 ; 8 P l j T L  .T 4 T L ~ ).X @ 8 4 4 3 ",
"@ ; @   b.;.j.h.j.;.h.h.j.T     l T T k ; K.* * m 1X$ # # 7 ;X-X&X& $ . n.,X, , N L.h.h.j.T     l T T k 2 l U H ^ ].=   ; - ; ; ",
"T W #.o.l H H H J l H H K   P k z T T z x J.* * u Z.-XM , r i r r , , m.>X< * * i A.H H K   P k z T T z H P T S s.U.X H #.#.#.L ",
"k @ 3   ;.L o.~ ~ / ~ +.[.X 3 o L H l H x J.$ $ * $ ( >X.X6.r & 1 n.&X+X9 * , * i H.~ +.[.X 3 o L H l H H z z l 5 C 4 k 8 ; 6 + ",
"g.g.k.j.d.t.'.^.^.~.^.(.a.X 4 o l     O O G.. # . # $ q D.$X<X<X,XXX=., , u v v ] }.^.(.a.X 4 o l     O o           @ 4  .c.j.h.",
"H H L l L S Z Z A f A Z I ; + -.T P K p.O.J.* * * r y e % * * : * * * * * $ O O i A.A Z I ; + -.T P K p.o.P T L T T T 5 l P H H ",
"T U T T P U U P U L U U T + 1.,...#.#.E #.K., , u c y N a 7 * 1 a a s a * * * * i A.U U T + 1.,...#.#.E #.#...T #.;.2 2.P ..T U ",
"T T ..T ; T U U T P U U W - , ..H L L L J K.v y y r ! | | M.{ 8.8.8.{ 8.> * * * i A.U U W - , ..H L L L L G `./ H T ; l H #.T T ",
"z z L 4 4 T U P T L D T T - @ #.U T U P ` e.b r > , m ! * N a ! ! N a p < * * * i A.D T T - @ #.U T U P S i.'.I U #.@ k U L z H ",
"+ + o o 4 T U P U T u.K W ; + $.k z L U <.} * & $ * $ $ $ . . . . . . # $ * * * i H.u.K W ; + $.k z L U P S A k z J 4 z 0 + o @ ",
"P z J 4 ..L T P U / (.A T ; o @ ; o 3 T f.M.$ & $ $ $ * * * * $ * $ * & < > , r a L.(.A T ; o @ ; o 3 T P T k @ @ @ ; k H H H h ",
"k ; 8 8 ..L T P T ~ ~.A W o z o.P 4 ..L <.P.oXI.OXOXOX|.{ q.q.q.q.q.N.#XOXOX#XN.OX5.~.A W o z o.P 4 ..L P T H   ; o   l 3 6 4 @ ",
"j.j.v.; #.L A Z Z I ^.A T - - z k 8 ..T T ( n & M *.*./ *.<.*.*.*.*.<., ^ n l 0 0 Q ^.A T - - z k 0 ..T T T H @ P c.x.d.h.l.j.j.",
"L U   @ $.K _.^.^.'.!.A W - ; H k 0 T z z H l @ 6 T g 9.L L L H L U   @ $.K _.^.^.'.!.A W - ; H k 0 T z z H l @ 6 T g 9.L L L H ",
"L - l @ $.H %.o.%.o.I P W - ; l 8 z o O o   o + 8 R r. X..L H H L - l @ $.H %.o.%.o.I P W - ; l 8 z o O o   o + 8 R r. X..L H H ",
"+ ; ;   #.L P L U L U T W ; @ &.L Y D U.o.T T k 8 T o.T T @ ; + + ; ;   #.L P L U L U T W ; @ &.L Y D U.o.T T k 8 T o.T T @ ; + ",
"L k H 8 ..L T P T U U U W ; o :.....#.E I ,.- ; k  .U L  .; ; k L k H 8 ..L T P T U U U W ; o :.....#.E I ,.- ; k  .U L  .; ; k ",
"L k H 4 ..L T P T L T P W ; @ ..P o./ O.s.I ; ; l T P L T ; ; k L k H 4 ..L T P T L T P W ; @ ..P o./ O.s.I ; ; l T P L T ; ; k ",
"P J U z T P U U T + ..U ..; + E u._.^.(.i.R ; 4 J &.#.T ;.- 4 H P J U z T P U U T + ..U ..; + E u._.^.(.i.R ; 4 J &.#.T ;.- 4 H ",
"k       &.J U P P + ..P T 3   &.C Z Z Z S  .3     3 o +   j     k       &.J U P P + ..P T 3   &.C Z Z Z S  .3     3 o +   j     ",
"P ; j.T U L U T l + T U W o l T P U L U P W + z $.$.U P T P #.#.P ; j.T U L U T l + T U W o l T P U L U P W + z $.$.U P T P #.#.",
"4 @ P ;  .L U T z l T U T -   #.U T U T U #.- @ 3 $.$.#...h.@ - 4 @ P ;  .L U T z l T U T -   #.U T U T U #.- @ 3 $.$.#...h.@ - ",
"k @ T 4 T H P H T L L U T - @ T l z z H z H 4 ; k T U P P #.@ 4 k @ T 4 T H P H T L L U T - @ T l z z H z H 4 ; k T U P P #.@ 4 ",
"k + T ; &.T ..T ..T T ..&.@ 8 ; @ o o + o   @ 3 z T z z z L 3 3 k + T ; &.T ..T ..T T ..&.@ 8 ; @ o o + o   @ 3 z T z z z L 3 3 ",
"k @ T l 4 - ; @ ; @ - ; - j - k k z k z k l l ; 3   - @ @ + ; 4 k @ T l 4 - ; @ ; @ - ; - j - k k z k z k l l ; 3   - @ @ + ; 4 ",
"k @ z ; @   o   o     o     3 k l l l l k z 3 l.>.x.$.@ 3 4 - k k @ z ; @   o   o     o     3 k l l l l k z 3 l.>.x.$.@ 3 4 - k ",
"k   v.;.j.,.,.,.j.,.,.z.T.d.k.o z z z z l z k H k U   ; H z k z k   v.;.j.,.,.,.j.,.,.z.T.d.k.o z z z z l z k H k U   ; H z k z ",
"; + T k C /.!.!.!.Q.!./.y.g k   8 4 4 2 3 4 ; W J  .- @ 4 4 3 4 ; + T k C /.!.!.!.Q.!./.y.g k   8 4 4 2 3 4 ; W J  .- @ 4 4 3 4 ",
"; 4 ..L P V V V A f V A S U z o @ 4 X 3., 3 @ ..H T ; o 4 3 ; 3 ; 4 ..L P V V V A f V A S U z o @ 4 X 3., 3 @ ..H T ; o 4 3 ; 3 "
};
