/* XPM */
static char *white_wall[] = {
/* columns rows colors chars-per-pixel */
"64 64 101 2 ",
"   c #030304",
".  c #080405",
"X  c #040806",
"o  c #090905",
"O  c #09060A",
"+  c #0A0B0C",
"@  c #100F0F",
"#  c #050511",
"$  c #060D12",
"%  c #0A0D13",
"&  c #0D0F19",
"*  c #100F11",
"=  c #071015",
"-  c #0D1215",
";  c #0D151C",
":  c #0E181E",
">  c #121214",
",  c #11151C",
"<  c #0D1621",
"1  c #0E1922",
"2  c #0F1C28",
"3  c #121622",
"4  c #131B24",
"5  c #141E2A",
"6  c #191F2B",
"7  c #142026",
"8  c #192126",
"9  c #15222C",
"0  c #19232D",
"q  c #15292B",
"w  c #1A2A2F",
"e  c #162432",
"r  c #172935",
"t  c #1A2935",
"y  c #172739",
"u  c #1A2739",
"i  c #162A3A",
"p  c #1C2C3B",
"a  c #1D313E",
"s  c #222631",
"d  c #212C37",
"f  c #20223D",
"g  c #212D3D",
"h  c #21313E",
"j  c #1D2E42",
"k  c #1F2B48",
"l  c #1E3242",
"z  c #1E364B",
"x  c #202F42",
"c  c #212F49",
"v  c #203442",
"b  c #283546",
"n  c #203844",
"m  c #293A45",
"M  c #22374D",
"N  c #29324D",
"B  c #243A4E",
"V  c #293A4C",
"C  c #283750",
"Z  c #233951",
"A  c #253850",
"S  c #293D54",
"D  c #253E5A",
"F  c #2A3E5A",
"G  c #2A3E60",
"H  c #303F62",
"J  c #264156",
"K  c #2C4054",
"L  c #26415C",
"P  c #2C485F",
"I  c #32455C",
"U  c #274562",
"Y  c #2B4463",
"T  c #2C4965",
"R  c #2C466A",
"E  c #2D4B6B",
"W  c #314365",
"Q  c #324860",
"!  c #314668",
"~  c #344A6D",
"^  c #2C506D",
"/  c #33516E",
"(  c #2F4D74",
")  c #364B70",
"_  c #2F5172",
"`  c #325274",
"'  c #34547B",
"]  c #39577A",
"[  c #365C86",
"{  c #385A88",
"}  c #3D608D",
"|  c #3D6292",
" . c #426B99",
".. c #486B9C",
"X. c #486DA7",
"o. c #D5D6D6",
"O. c #D6D6D8",
"+. c #D9D9DA",
"@. c #DEDFE0",
"#. c #DFE0E1",
"$. c #E1E1E1",
/* pixels */
"- - , 4 p p e 9 e t 9 t e t 9 e e e r 5 p 5 t e e 9 r 9 l   3     4 7 4 4 4 0 +.> F M g p F : p e e e a O - % M u F p M S v e A ",
"A R 9 % p p e 9 e t 9 t e t e e e e e 4 p 9 r e e 9 e e l . 1   . . + % % % , +.> 5       . A z 9 e e h O <   4 + 4 % - 3 - % ; ",
"- 4     B A v p l M p v x B j v M n M t B p M v v l v l K   1   .  .J B A D D B A A J M z ` p J 4 e l x O ;   7 , 0 3 4 0 4 ; 5 ",
"4 0 $   A . .             .   .     O   .       .   .   . ; 4     M J A A F L l A F Y M M ( D p 4 S +.B . ;   5 , t 3 4 e 3 : 7 ",
"4 0 $ +   1 1 ; : 1 ; : ; 1 ; 1 , , ; ; 1 ; ; ; : : 1 : ; ; 5     v 9 4 4 5 9 4 4 4 9 4 , 9 , 4 r v $.K . ;   5 ; 0 , 4 9 4 ; 9 ",
"4 0 $   D                                                     O   z p e e p p 1 9 p M 9 e p 9 e e t @.J O ;   5 ; e < 4 0 4 ; 9 ",
"e g ;   M , , < < 9 : 4 3 4 3 4 4 4 4 ; 9 : 4 4 4 3 3 : 4 3 9 %   M p e 9 t j p e p + p 9 p 9 9 e p @.S O :   t 4 g 0 e p e 4 d ",
"    .   Y 0 t e + % % - - > - > - > - + , + - > % - - 4 p t g ;   M p e e t 4 v M 4   j 5 p 9 e p p +.K . 3             .       ",
". O   % ,   . . | T v F A D A F D L A l Y M F L A D E t           B p e 0 p 7 t p O % p 9 p 9 9 t p @.J . 4   . + . X . . O   . ",
"4 % % ; % . . . B ) z J A Y A L J J D M T M J D A E 7 .       .   v p 0 0 p 5 O % < % p 9 p 9 9 p s $.J . 4   . % ; - ; , % O 5 ",
"- ~ A Y W Y Y Y 1 r < 9 4 0 7 4 9 9 4 ; e , 9 4 1 p   ; , Y B $ & l p e 5 v   % + O   x 5 a 9 9 B +.#.J . 4   / M ) F Y T A F e ",
"; e + - ; - , . t p 9 p e p e e p e t , l 4 p t l v . 1   4 . + ; p p e 9 e B e x v M 9 9 p 9 9 e V B p O 4   u + 3 - ; ; % ; O ",
", j ; 5 0 5 4 % p M 7 j p e p p p p e p u p p M +.S . ;   9 <   % M A v h l B y v v B g p V l p v M l K . 4   x - e 4 5 0 7 5 % ",
"O e . % % % + . J D 9 e v t p t p p t p p t v v $.I   ;   9 ;   ; l   .   O .     O .     O     .   .   : 4   x ; - + * - + -   ",
"S A B Y Y J F U M Y p +.#.+.+.+.+.+.+.+.@.+.@.$.@.J   ;   5 ;   5   3 ; ; : 5 ; 1 ; 1 < ; 2 ; ; 1 1 1 1 1 e   x    .Y D Y F z / ",
"L D A U Y D J J Y v 1 K M K B B S B K t J v B V v v . ;   9 ;   , k           +   $       .         .   o     M   B ~ D Y D M T ",
"7 5 4 0 0 4 1 4 4 e e r e e e e r e t 4 a 9 r u 9 v . <   9 O .   e + + % - > o.@ e + O O % O + O + % O 3 .   J . l e 7 9 7 1 9 ",
"t t e p p e t 9 e p 9 p 9 p e e p e p 5 j 9 p p 5 v . ;   O X.E A A D J A J / Y J L Y A A E B D A Y Y F ' M   A O B p t p r 9 p ",
"t p e p p t t 0 e v 9 p e t e e p t p 0 p e e p 5 v . :   , B F D F A D A A T z F J Y A M E M S A J L E t .   A + B j e p e e a ",
"t p e p p t e j p O p p e p e t p e p 5 a e e p 9 B   ; @ O.M 9 4 9 9 9 4 4 e 4 4 9 9 4 4 v : 7 4 7 9 t   4 + o.> M p e p e 9 p ",
"t t e t p t p 5 Y   p p e p e t p e p 9 v e t p 9 B . ;   , B p e e t t e e p 0 e p t j M +.v e e p p v O 4   M O M j e p e 9 p ",
"e e e p p e l 1   % a p e p 0 t p e p 9 l 0 t p 9 B . ; . - v p e p t t e t p 0 e t x 0 V $.b e e t p v O 4   M + M p e p e 9 p ",
"v M v B A v J   1 . l p e p e t p e p 9 l 0 t g 9 B . ;   ; v p e e e t e t p 9 e e A +.$.#.v 9 e p p v O 4   M o A J M A v a A ",
".   .   O .   % ; A 9 p e p e t p e p 9 p 0 t p 9 B . ;   ; v p 9 e e e e t p 9 e t p v v J 9 t 9 p u v O 4   M - B   . . .   O ",
"1 ; < 1 4 < : 3   4 t p e p e t p e p 7 S e e h e B   ; O 4 M B l M v M j p p 9 e t p 9 4 M p v x B M J . 4   M ,   3 1 1 1 ; 5 ",
"  #         .   < 0 e p e p e t p e e S +.v e g 9 B   4     K . O . .   O p j 9 e t p 9 e 9         O   1 4   M > t O     .     ",
", p ; 4 5 4 2 % p l 9 p e p e t p e t M @.V e j 9 B   4   . - ; 4 ; 1 1   1 l 9 e p p 0 v   - 4 4 4 9 4 9 e   x - e 4 4 4 1 4 $ ",
"4 x , 5 e 4 9 ; p M 9 p e p e t p e p e +.B 9 l 9 B . 1   ; $     &     < 0 v 9 e p p 0 v O 4                 c - e 0 9 0 4 9 % ",
", j , 5 0 4 5 ; u v 9 p e p e t p t p t +.n 9 l 9 B . % < S ! v A i ; ; p l p 9 e p p e g $ 1     + O + .     A + e 5 4 5 4 9 % ",
"+ e o % - % ; ; v l 9 p e p e t p t p e +.m 9 v 9 B . ;   - , - ; 4 5 , p p p 9 e p p e x $ ;   > ; + O ; O . j   ; % % % + ; . ",
"Y A A L T Y E   z l 9 p e p e t p e t g +.v 0 l 9 B . ;   1 0 4 4 4 4 , p p p 9 e t p 0 g % = > M J [ J E L A J j E J L Y F M ` ",
"L Y A J | 7     M l 9 p 9 p 9 t p 9 e J @.B 9 l 9 B . ;   1 0 4 4 4 4 , p p p 9 e t p 9 h $ ;   % + k Y E F A E j _ Y L Y D A T ",
"9 7 e e + . 4   z v 9 p S S M M v S S S #.v 9 v 9 B . ;   1 0 4 4 4 4 , p A B g v M A a S O ;   3 4 p 9 0 7 , M - t 4 9 9 4 , e ",
"t p 5 p + ; 1   M v 4 S +.#.+.+.+.@.@.#.@.v 9 v 9 B . ;   1 0 4 4 4 4 4 l   +   X   +     4 ;   3 4 j t p p M +.p l t t p e 9 p ",
"v J   % 1 & 1   M l 9 p B K v V S v K g T 5 e v 9 B . ;   1 0 4 4 4 4 0   ; 5 < ; < 4 , ; 5 1   3 4 j p v 0 V $.h j j B B v a A ",
".   ; ; ; ; 1   v v 9 p 9 p 9 e p 9 p 4 l 5 e x 9 B . ;   1 0 4 4 4 4 5 5 +   + %             + , 4 j r S +.$.+.p M 9   . .   O ",
"1 ; < 1 1 < 2   p M 9 p e p e t p e p 9 v 9 e j 9 B . ;   5 % + % % + - % - > O.g O - O + 5 , 4 4 , x p p V v J 4 L   ; 5 1 ; 5 ",
"  #             p M 9 p e p e t p e p 9 v 5 e j 9 B . ;   O | L A F D F A D ` Y A Y E S Y p > 5 4 , x p p e 9 p 4 F   5         ",
", p ; 4 5 4 1 % i v 9 p e p e t p e p 9 v 9 e p 9 B . ;   % M I A D L L S L R z D F T Y 7 . X 4 4 , j p p t 9 j 4 D   1   3 5 % ",
"4 x , 9 e 4 9 ; p v 9 p e p e t p e p 9 v 9 e p 9 B . ;   ; l 9 4 9 7 5 4 7 9 4 4 7 9 t   5   4 4 , j p p t 9 j 4 D   1   4 e % ",
", j , 4 0 4 9 ; p v 9 p e p e t h 9 a t v 9 e p 9 B . ;   ; v p e e e t 9 r p 9 v e p l   5   3 4 , l p p t 9 j 4 F   1   4 9 % ",
", j , 5 0 4 9 ; p v 9 p e p 9 u p i p O B 9 e p 0 B . ;   ; v p 0 S S M B M M K +.n p v   5   3 4 : j p p t 9 j 4 A   1   4 9 % ",
", p , 4 0 3 4 , p v 9 p e p e t 4 A 4   S 9 p p e M   ; . 4 v e B +.#.+.+.+.@.$.+.V p l   5   < 4 ; h p a t e p 4 S . 1   4 0 $ ",
", M 8 p g e e 4 p j 9 p e p e p 1 e O O J 7 p p e v   4     K p 9 V V S v B K h M e p l   4   9 e 6 l A A v a A u /   1 . 9 g ; ",
"6 %   .         B v 9 p e p 9 j 4 p $ O A 4 t p 9 B   4     K u 0 p e r 9 r p 9 e t p l   9         S . O .   +   . , 9       . ",
"> 4 % O .     . M j 9 p e p 9 p 4 p $ O A 7 p p e B . 1   O v p 5 t e e 9 e p 5 t u p x   5     . . O % : ; - < % ; ; 5         ",
"R t - O ..J T W 4 j 9 u e p e p 4 M $ O V 9 p p e B . % 4 F r e 9 t e p 9 e j 9 e p p l   ; ; A Y ` f X           .     4 F Y ) ",
",   O , j + - + p l 5 p e p e l 5 O : O B 5 p p 9 B   <   O M u e p e p 9 e p 9 e p t x   1   - - O ^ E / J D ` M ` U Q J : . : ",
"0 %   ; A > 5 - p p 9 p e p e B   + O   A 9 p p e n . ;   ; v y 0 t e p 9 e p 9 9 t p l   1   < 7 - M F Y A M Y j E F ( q   . 6 ",
"0 %   ; M : 4 - p j 9 e e p 9 e B v M e v 9 p t e M O ;   ; v e 0 t 9 t 9 e p 9 e e p a   1   4 4 , t 9 9 4 4 0 ; e 5 p   <   9 ",
"0 -   ; M - 4 % p l 9 p e p 9 u u e e 4 v 5 a t e B . ; . - B M l M l M g M B g v M B A   1   4 7 , j e a 0 0 p 9 p t v O ;   0 ",
"0 %   : A ; 4 - p p 9 p e p 0 t t t e 5 p 9 p t e B . ;   ; v   .     .   . O     .   . - 1   4 4 , p u p 9 e p 4 p p v O ;   9 ",
"0 %   , M , 4 , t l 5 p e p 9 e t p e 4 p 5 p t 9 M   ; o 5   1 4 ; < : < : 1 ; ; : 1 ; ; 5   4 7 > l B A h x A p S v J   ;   9 ",
"e %   ; N : 4 * a A p B l B x M B v v p B g B M l P   ;   3 0     %                         % 4 4 4 p   O .   .   O .   ; ;   9 ",
"0 %   ; M - 4 , a   . . X . . X . .     O .   . X   : ;   3 e +   j ; 4 ; 4 5 ; : 4 3 ; ; 4 : 5 1 5 ; ; 1 ; ; 1 ; 4 < : ; 1   5 ",
"0 %   ; M ; 4 6   < : < ; 1 ; ; 1 1 : ; < ; 1 1 ; 1 ; 1   < w %   C , 9 4 7 e 4 4 9 0 5 4 e . % + - +             O .       % 0 ",
"0 %   - M ; 4 4 5 +                                     % 4 9 %   M ; 4 3 4 6 , 4 4 5 4 ; - ' J z G Y J { v O 1 ; 1 1 < 3 ; ; 8 ",
"0 %   ; e   % + + + O % + + O + % + + + + O % $ + % + O % + 0 %   M - 5 4 4 9 , 4 4 4 3 : , r H A A D Y d   . % O - % % O + % 7 ",
"0 %   O } L A A A J F E T E D T E T R M E A _ E ` F J M Y T e .   M ; 4 4 4 9 3 4 4 5 4 ; 3 9 9 , 4 4 t   :   ; ; 4 4 : , ; , 5 ",
"0 %   % M W D B A Y g M g g v v g x a v h v p m @.] D M ( 7 .     M ; 4 4 4 6 ; 4 4 4 4 1 4 e p 9 e e v O ;   5 4 0 9 4 5 4 4 7 ",
"g %   ; l 9 4 4 4 h +.$.+.+.#.+.+.+.@.+.@.+.+.$.+.p 4 : g   1     S 0 e 0 0 g 0 0 e e 0 5 0 9 p e e t v . ;   9 9 g t 0 0 9 e e ",
"    X % M t 0 9 e e v S v V v n V V B p V h S V v e t 9 B   1     ,                         l p 9 t e v . <   .                 ",
"O   % - M e e 9 e t 9 e e t 9 e e t e 4 e 9 t e e e t 9 n   1   O ; -     . + >   .   . X   v p 9 e t v . 1   O   + O . .     O ",
"5 3 4 ; l e e 9 e e e t e t 0 e t e t 9 p 9 p e e t e 9 v   4     3 4 4 4 1 e +.6 1 5 4 ; 4 e p 9 e e v . ;   4 4 5 9 4 4 3 5 5 "
};
