/* XPM */
static const char *frame_05[] = {
/* columns rows colors chars-per-pixel */
"64 64 8 1 ",
"  c #160612",
". c #271121",
"X c #3D1A30",
"o c #562745",
"O c #6C3050",
"+ c #933F74",
"@ c #BA4C9D",
"# c None",
/* pixels */
"################################################################",
"################################################################",
"################################################################",
"################################################################",
"################################################################",
"################################################################",
"################################################################",
"################################################################",
"################################################################",
"###########################++++++++++###########################",
"########################++++++++++++++++########################",
"######################++++++++++++++++++++######################",
"####################+++++++@@@@+++++++++++++####################",
"###################+++++@@@@@@@@@OOO+++++++++###################",
"#################+++++@@@@@@OOOOOOOOOOO++++++++#################",
"################++++@@@@@OOOOOOOOOOOOOOOO+++++++################",
"###############++++@@@@OOOOOOOOOOOOOOOOOOOO++++++###############",
"##############++++@@@OOOOOOOooooooooOOOOOOOO++++++##############",
"##############+++@@@OOOOOOooooooooooooOOOOOOO+++++##############",
"#############+++@@@OOOOOooooooooooooooooOOOOO@+++++#############",
"############++++@@OOOOOooooooXXXXXXooooooOOOOO@+++++############",
"############+++@@@OOOOooooXXXXXXXXXXXXooooOOOO@@++++############",
"###########+++@@@OOOOooooXXXXXXXXXXXXXXooooOOO@@+++++###########",
"###########+++@@OOOOooooXXXXXXXXXXXXXXXXooooOOO@@++++###########",
"##########+++@@@OOOooooXXXXXX......XXXXXXooooOO@@+++++##########",
"##########+++@@OOOOoooXXXXXX........XXXXXXoooOOO@@++++##########",
"##########++@@@OOOoooXXXXXX..........XXXXXXoooOO@@++++##########",
"#########+++@@OOOOoooXXXXX............XXXXXoooOO@@+++++#########",
"#########+++@@OOOooooXXXX.....    .....XXXXooooO@@@++++#########",
"#########+++@@OOOoooXXXX.....      .....XXXXoooOO@@++++#########",
"#########++++@OOOoooXXXX....        ....XXXXoooOO@@++++#########",
"#########++++@OOOoooXXXX....        ....XXXXoooOO@@++++#########",
"#########++++@OOOoooXXXX....        ....XXXXoooOO@@++++#########",
"#########+++++OOOoooXXXX....        ....XXXXoooOO@@++++#########",
"#########+++++OOOoooXXXX.....      .....XXXXoooOO@@++++#########",
"#########+++++OOOooooXXXX.....    .....XXXXooooOO@@++++#########",
"#########++++++OOOoooXXXXX............XXXXXoooOOO@@++++#########",
"##########+++++OOOoooXXXXXX..........XXXXXXoooOO@@++++##########",
"##########+++++OOOOoooXXXXXX........XXXXXXoooOOO@@++++##########",
"##########+++++OOOOooooXXXXXX......XXXXXXooooOOO@@++++##########",
"###########+++++OOOOooooXXXXXXXXXXXXXXXXooooOOOO@++++###########",
"###########+++++@OOOOooooXXXXXXXXXXXXXXooooOOOO@@++++###########",
"############++++@@OOOOooooXXXXXXXXXXXXooooOOOOO@++++############",
"############+++++@@OOOOooooooXXXXXXooooooOOOOOO@++++############",
"#############++++@@@OOOOooooooooooooooooOOOOOOO++++#############",
"##############++++@@@OOOOOooooooooooooOOOOOOOO++++##############",
"##############+++++@@@@OOOOOooooooooOOOOOOOOO+++++##############",
"###############+++++@@@@@OOOOOOOOOOOOOOOOOOO+++++###############",
"################++++++@@@@@OOOOOOOOOOOOOOOO+++++################",
"#################++++++@@@@@@OOOOOOOOO@@OO+++++#################",
"###################+++++++@@@@@@@@@@@@@++++++###################",
"####################++++++++@@@@@@++++++++++####################",
"######################++++++++++++++++++++######################",
"########################++++++++++++++++########################",
"###########################++++++++++###########################",
"################################################################",
"################################################################",
"################################################################",
"################################################################",
"################################################################",
"################################################################",
"################################################################",
"################################################################",
"################################################################"
};
