/* XPM */
static const char *frame_01[] = {
/* columns rows colors chars-per-pixel */
"64 64 8 1 ",
"  c #090C16",
". c #111627",
"X c #1A223D",
"o c #273256",
"O c #303E6C",
"+ c #3F5393",
"@ c #4C66BA",
"# c None",
/* pixels */
"################################################################",
"################################################################",
"################################################################",
"################################################################",
"################################################################",
"################################################################",
"################################################################",
"################################################################",
"################################################################",
"###########################++++++++++###########################",
"########################++++++++++++++++########################",
"######################++++++++++++++++++++######################",
"####################++++++++++++++++++++++++####################",
"###################+++++++++OOOOOOOO@@@@+++++###################",
"#################++++++++OOOOOOOOOOOOO@@@@@++++#################",
"################+++++++OOOOOOOOOOOOOOOOOO@@@++++################",
"###############++++++OOOOOOOOOOOOOOOOOOOOO@@@++++###############",
"##############++++++OOOOOOOOooooooooOOOOOOO@@@++++##############",
"##############+++++OOOOOOOooooooooooooOOOOOO@@@+++##############",
"#############+++++OOOOOOooooooooooooooooOOOOO@@++++#############",
"############+++++@OOOOOooooooXXXXXXooooooOOOOO@@++++############",
"############++++@OOOOOooooXXXXXXXXXXXXooooOOOO@@++++############",
"###########++++@OOOOOooooXXXXXXXXXXXXXXooooOOOO@@++++###########",
"###########+++@@OOOOooooXXXXXXXXXXXXXXXXooooOOO@@++++###########",
"##########+++@@OOOOooooXXXXXX......XXXXXXooooOOO@@++++##########",
"##########+++@@OOOOoooXXXXXX........XXXXXXoooOOO@@++++##########",
"##########++@@OOOOoooXXXXXX..........XXXXXXoooOOO@++++##########",
"#########+++@@OOOOoooXXXXX............XXXXXoooOOO@@++++#########",
"#########++@@@OOOooooXXXX.....    .....XXXXooooOO@@++++#########",
"#########++@@OOOOoooXXXX.....      .....XXXXoooOOO@++++#########",
"#########++@@OOOOoooXXXX....        ....XXXXoooOOO@++++#########",
"#########++@@OOOOoooXXXX....        ....XXXXoooOOOO++++#########",
"#########++@@OOOOoooXXXX....        ....XXXXoooOOOO++++#########",
"#########++@@OOOOoooXXXX....        ....XXXXoooOOOO++++#########",
"#########++@@OOOOoooXXXX.....      .....XXXXoooOOOO++++#########",
"#########++@@OOOOooooXXXX.....    .....XXXXooooOOOO++++#########",
"#########+++@@OOOOoooXXXXX............XXXXXoooOOOO+++++#########",
"##########++@@OOOOoooXXXXXX..........XXXXXXoooOOOO++++##########",
"##########+++@@OOOOoooXXXXXX........XXXXXXoooOOOO@++++##########",
"##########+++@@OOOOooooXXXXXX......XXXXXXooooOOOO@++++##########",
"###########+++@@OOOOooooXXXXXXXXXXXXXXXXooooOOOO@@+++###########",
"###########+++@@OOOOOooooXXXXXXXXXXXXXXooooOOOO@@@+++###########",
"############+++@@OOOOOooooXXXXXXXXXXXXooooOOOOO@@+++############",
"############+++@@@OOOOOooooooXXXXXXooooooOOOOO@@@+++############",
"#############+++@@OOOOOOooooooooooooooooOOOOO@@@+++#############",
"##############+++@@OOOOOOOooooooooooooOOOOOO@@@+++##############",
"##############++++++OOOOOOOOooooooooOOOOOOO@@@++++##############",
"###############++++++OOOOOOOOOOOOOOOOOOOO@@@@++++###############",
"################+++++++OOOOOOOOOOOOOOOO@@@@@++++################",
"#################++++++++OOOOOOOOO@@@@@@@@+++++#################",
"###################+++++++++OO@@@@@@@@@@+++++###################",
"####################++++++++++++@@@+++++++++####################",
"######################++++++++++++++++++++######################",
"########################++++++++++++++++########################",
"###########################++++++++++###########################",
"################################################################",
"################################################################",
"################################################################",
"################################################################",
"################################################################",
"################################################################",
"################################################################",
"################################################################",
"################################################################"
};
