/* XPM */
static const char *frame_00[] = {
/* columns rows colors chars-per-pixel */
"64 64 8 1 ",
"  c #090C16",
". c #111627",
"X c #1A223D",
"o c #273256",
"O c #303E6C",
"+ c #3F5393",
"@ c #4C66BA",
"# c None",
/* pixels */
"################################################################",
"################################################################",
"################################################################",
"################################################################",
"################################################################",
"################################################################",
"################################################################",
"################################################################",
"################################################################",
"###########################++++++++++###########################",
"########################++++++++++++++++########################",
"######################++++++++++++++++++++######################",
"####################++++++++++++++++++++++++####################",
"###################+++++++++OOOOO@@@@@@++++++###################",
"#################++++++++OOOOOOOOOOOO@@@@@+++++#################",
"################+++++++OOOOOOOOOOOOOOOOO@@@@++++################",
"###############++++++OOOOOOOOOOOOOOOOOOOOO@@@++++###############",
"##############++++++OOOOOOOOooooooooOOOOOOO@@@++++##############",
"##############+++++OOOOOOOooooooooooooOOOOOO@@++++##############",
"#############+++++OOOOOOooooooooooooooooOOOOO@@++++#############",
"############+++++OOOOOOooooooXXXXXXooooooOOOO@@@++++############",
"############++++OOOOOOooooXXXXXXXXXXXXooooOOOO@@++++############",
"###########++++@OOOOOooooXXXXXXXXXXXXXXooooOOOO@@++++###########",
"###########+++@@OOOOooooXXXXXXXXXXXXXXXXooooOOO@@++++###########",
"##########++++@OOOOooooXXXXXX......XXXXXXooooOOO@+++++##########",
"##########+++@@OOOOoooXXXXXX........XXXXXXoooOOO@@++++##########",
"##########+++@OOOOoooXXXXXX..........XXXXXXoooOOO@++++##########",
"#########+++@@OOOOoooXXXXX............XXXXXoooOOO@+++++#########",
"#########+++@@OOOooooXXXX.....    .....XXXXooooOOOO++++#########",
"#########++@@OOOOoooXXXX.....      .....XXXXoooOOOO++++#########",
"#########++@@OOOOoooXXXX....        ....XXXXoooOOOO++++#########",
"#########++@@OOOOoooXXXX....        ....XXXXoooOOOO++++#########",
"#########++@@OOOOoooXXXX....        ....XXXXoooOOOO++++#########",
"#########++@@OOOOoooXXXX....        ....XXXXoooOOOO++++#########",
"#########++@@OOOOoooXXXX.....      .....XXXXoooOOOO++++#########",
"#########++@@OOOOooooXXXX.....    .....XXXXooooOOOO++++#########",
"#########++@@@OOOOoooXXXXX............XXXXXoooOOO@+++++#########",
"##########++@@OOOOoooXXXXXX..........XXXXXXoooOOO@++++##########",
"##########++@@@OOOOoooXXXXXX........XXXXXXoooOOO@@++++##########",
"##########+++@@OOOOooooXXXXXX......XXXXXXooooOOO@@++++##########",
"###########++@@@OOOOooooXXXXXXXXXXXXXXXXooooOOOO@@+++###########",
"###########+++@@OOOOOooooXXXXXXXXXXXXXXooooOOOO@@@+++###########",
"############++@@@OOOOOooooXXXXXXXXXXXXooooOOOOO@@+++############",
"############+++@@@OOOOOooooooXXXXXXooooooOOOOO@@@+++############",
"#############+++@@OOOOOOooooooooooooooooOOOOO@@@+++#############",
"##############+++@@OOOOOOOooooooooooooOOOOOO@@@+++##############",
"##############++++@@OOOOOOOOooooooooOOOOOOO@@@++++##############",
"###############++++++OOOOOOOOOOOOOOOOOOOOO@@@++++###############",
"################+++++++OOOOOOOOOOOOOOOOO@@@@++++################",
"#################++++++++OOOOOOOOOOO@@@@@@@++++#################",
"###################+++++++++OOO@@@@@@@@@@++++###################",
"####################++++++++++++++@@@+++++++####################",
"######################++++++++++++++++++++######################",
"########################++++++++++++++++########################",
"###########################++++++++++###########################",
"################################################################",
"################################################################",
"################################################################",
"################################################################",
"################################################################",
"################################################################",
"################################################################",
"################################################################",
"################################################################"
};
